<svg width="16" height="16" viewBox="0 0 16 16" fill="none" xmlns="http://www.w3.org/2000/svg">
<path d="M2.55556 10.1657L3.2866 9.9981L2.55556 10.1657ZM2.55556 6.23549L3.2866 6.40304L2.55556 6.23549ZM13.4445 6.23549L12.7135 6.40304L13.4445 6.23549ZM13.4445 10.1657L12.7135 9.9981L13.4445 10.1657ZM9.92014 13.7726L10.0952 14.5019L9.92014 13.7726ZM6.07995 13.7726L6.25502 13.0433L6.07995 13.7726ZM6.07994 2.62853L6.25502 3.35781L6.07994 2.62853ZM9.92014 2.62853L10.0952 1.89925L9.92014 2.62853ZM6.13009 2C6.13009 1.58579 5.79431 1.25 5.38009 1.25C4.96588 1.25 4.63009 1.58579 4.63009 2H6.13009ZM4.63009 3.67583C4.63009 4.09004 4.96588 4.42583 5.38009 4.42583C5.79431 4.42583 6.13009 4.09004 6.13009 3.67583H4.63009ZM11.37 2C11.37 1.58579 11.0342 1.25 10.62 1.25C10.2058 1.25 9.86999 1.58579 9.86999 2H11.37ZM9.86999 3.67583C9.86999 4.09004 10.2058 4.42583 10.62 4.42583C11.0342 4.42583 11.37 4.09004 11.37 3.67583H9.86999ZM3.2866 9.9981C3.01563 8.81586 3.01563 7.58528 3.2866 6.40304L1.82451 6.06793C1.50299 7.47072 1.50299 8.93042 1.82451 10.3332L3.2866 9.9981ZM12.7135 6.40304C12.9845 7.58528 12.9845 8.81586 12.7135 9.9981L14.1756 10.3332C14.4971 8.93042 14.4971 7.47072 14.1756 6.06794L12.7135 6.40304ZM9.74507 13.0433C8.59722 13.3189 7.40286 13.3189 6.25502 13.0433L5.90487 14.5019C7.28288 14.8327 8.71721 14.8327 10.0952 14.5019L9.74507 13.0433ZM6.25502 3.35781C7.40286 3.08225 8.59722 3.08225 9.74507 3.35781L10.0952 1.89925C8.71721 1.56844 7.28288 1.56844 5.90487 1.89925L6.25502 3.35781ZM6.25502 13.0433C4.79054 12.6918 3.63487 11.5176 3.2866 9.9981L1.82451 10.3332C2.29664 12.3931 3.87186 14.0138 5.90487 14.5019L6.25502 13.0433ZM10.0952 14.5019C12.1282 14.0138 13.7034 12.3931 14.1756 10.3332L12.7135 9.9981C12.3652 11.5176 11.2095 12.6918 9.74507 13.0433L10.0952 14.5019ZM9.74507 3.35781C11.2095 3.70938 12.3652 4.88353 12.7135 6.40304L14.1756 6.06794C13.7034 4.00801 12.1282 2.3873 10.0952 1.89925L9.74507 3.35781ZM5.90487 1.89925C3.87185 2.3873 2.29664 4.008 1.82451 6.06793L3.2866 6.40304C3.63487 4.88353 4.79053 3.70938 6.25502 3.35781L5.90487 1.89925ZM2.76015 6.26924H13.2399V4.76924H2.76015V6.26924ZM4.63009 2V3.67583H6.13009V2H4.63009ZM9.86999 2V3.67583H11.37V2H9.86999Z" fill="#A29EB6"/>
<path d="M8.96137 9.28262C9.23137 9.09062 9.39937 8.80262 9.39937 8.41262C9.39937 7.60262 8.77537 7.18262 8.03737 7.18262C7.29937 7.18262 6.66937 7.60262 6.66937 8.41262C6.66937 8.80262 6.84337 9.09062 7.10737 9.28262C6.74137 9.50462 6.53137 9.87062 6.53137 10.2966C6.53137 11.0706 7.10137 11.5506 8.03737 11.5506C8.96737 11.5506 9.54337 11.0706 9.54337 10.2966C9.54337 9.87062 9.33337 9.50462 8.96137 9.28262ZM8.03737 7.96262C8.34937 7.96262 8.57737 8.14262 8.57737 8.45462C8.57737 8.76062 8.34937 8.95262 8.03737 8.95262C7.72537 8.95262 7.49737 8.76062 7.49737 8.45462C7.49737 8.14262 7.72537 7.96262 8.03737 7.96262ZM8.03737 10.7706C7.64137 10.7706 7.35337 10.5666 7.35337 10.1886C7.35337 9.81662 7.64137 9.61262 8.03737 9.61262C8.43337 9.61262 8.72137 9.81662 8.72137 10.1886C8.72137 10.5666 8.43337 10.7706 8.03737 10.7706Z" fill="#A29EB6"/>
</svg>
