<svg width="35" height="35" viewBox="0 0 35 35" fill="none" xmlns="http://www.w3.org/2000/svg">
<g clip-path="url(#clip0_1688_1304)">
<path d="M25.0845 15.2539V8.81955C25.0845 8.63538 24.9994 8.46521 24.879 8.33059L17.6651 0.755356C17.5305 0.613724 17.3391 0.535645 17.1479 0.535645H5.71047C3.59897 0.535645 1.91235 2.25754 1.91235 4.3693V25.9967C1.91235 28.1085 3.59897 29.8021 5.71047 29.8021H14.7386C16.4462 32.6365 19.5502 34.5356 23.0861 34.5356C28.4574 34.5356 32.8439 30.1704 32.8439 24.792C32.8511 20.0938 29.4779 16.1681 25.0845 15.2539ZM17.8566 3.02302L22.6964 8.11788H19.5572C18.6218 8.11788 17.8566 7.34565 17.8566 6.41025V3.02302ZM5.71047 28.3847C4.38546 28.3847 3.32971 27.3217 3.32971 25.9967V4.3693C3.32971 3.03703 4.38546 1.953 5.71047 1.953H16.4392V6.41025C16.4392 8.13215 17.8353 9.53523 19.5572 9.53523H23.6671V15.0695C23.4547 15.0625 23.2845 15.0412 23.1003 15.0412C20.6272 15.0412 18.3525 15.9909 16.6377 17.4791H7.63807C7.24819 17.4791 6.92939 17.7979 6.92939 18.1875C6.92939 18.5774 7.24819 18.8962 7.63807 18.8962H15.3197C14.8164 19.6048 14.3983 20.3135 14.0725 21.093H7.63807C7.24819 21.093 6.92939 21.4118 6.92939 21.8017C6.92939 22.1913 7.24819 22.5104 7.63807 22.5104H13.6118C13.4346 23.2191 13.3425 24.0056 13.3425 24.792C13.3425 26.0675 13.5905 27.329 14.0369 28.392H5.71047V28.3847ZM23.0933 33.1255C18.5014 33.1255 14.7669 29.3909 14.7669 24.7991C14.7669 20.2072 18.4942 16.4726 23.0933 16.4726C27.6922 16.4726 31.4195 20.2072 31.4195 24.7991C31.4195 29.3909 27.6852 33.1255 23.0933 33.1255Z" fill="#6F6F6F"/>
<path d="M7.63812 15.3461H14.8165C15.2063 15.3461 15.5251 15.027 15.5251 14.6374C15.5251 14.2475 15.2063 13.9287 14.8165 13.9287H7.63812C7.24824 13.9287 6.92944 14.2475 6.92944 14.6374C6.92944 15.027 7.24824 15.3461 7.63812 15.3461Z" fill="#6F6F6F"/>
<path d="M26.7213 24.6501L23.809 27.7893V20.0512C23.809 19.6613 23.49 19.3425 23.1003 19.3425C22.7105 19.3425 22.3917 19.6613 22.3917 20.0512V27.7893L19.4579 24.6501C19.1886 24.3668 18.7352 24.3456 18.4516 24.6148C18.1681 24.8841 18.1469 25.3305 18.4164 25.614L22.5618 30.0713C22.6965 30.2129 22.8806 30.298 23.0791 30.298C23.2775 30.298 23.4617 30.2129 23.5963 30.0713L27.749 25.614C28.0183 25.3305 28.004 24.8771 27.7205 24.6148C27.43 24.3456 26.9908 24.3668 26.7213 24.6501Z" fill="#6F6F6F"/>
</g>
<defs>
<clipPath id="clip0_1688_1304">
<rect width="34" height="34" fill="white" transform="translate(0.38501 0.535645)"/>
</clipPath>
</defs>
</svg>
