<svg width="35" height="35" viewBox="0 0 35 35" fill="none" xmlns="http://www.w3.org/2000/svg">
<g clip-path="url(#clip0_1688_1309)">
<path d="M25.1663 15.0642V8.62986C25.1663 8.44568 25.0812 8.27552 24.9608 8.14089L17.7469 0.565658C17.6123 0.424026 17.4209 0.345947 17.2297 0.345947H5.79226C3.68075 0.345947 1.99414 2.06784 1.99414 4.17961V25.807C1.99414 27.9188 3.68075 29.6124 5.79226 29.6124H14.8204C16.528 32.4468 19.632 34.3459 23.1678 34.3459C28.5392 34.3459 32.9257 29.9807 32.9257 24.6024C32.9329 19.9041 29.5597 15.9784 25.1663 15.0642ZM17.9384 2.83332L22.7782 7.92818H19.639C18.7036 7.92818 17.9384 7.15595 17.9384 6.22056V2.83332ZM5.79226 28.195C4.46725 28.195 3.4115 27.132 3.4115 25.807V4.17961C3.4115 2.84733 4.46725 1.7633 5.79226 1.7633H16.521V6.22056C16.521 7.94245 17.9171 9.34554 19.639 9.34554H23.7489V14.8798C23.5365 14.8728 23.3663 14.8515 23.1821 14.8515C20.709 14.8515 18.4343 15.8012 16.7194 17.2894H7.71986C7.32998 17.2894 7.01118 17.6082 7.01118 17.9978C7.01118 18.3877 7.32998 18.7065 7.71986 18.7065H15.4014C14.8982 19.4151 14.4801 20.1238 14.1542 20.9033H7.71986C7.32998 20.9033 7.01118 21.2221 7.01118 21.612C7.01118 22.0016 7.32998 22.3207 7.71986 22.3207H13.6936C13.5164 23.0294 13.4243 23.8159 13.4243 24.6024C13.4243 25.8778 13.6723 27.1393 14.1187 28.2023H5.79226V28.195ZM23.1751 32.9358C18.5832 32.9358 14.8487 29.2012 14.8487 24.6094C14.8487 20.0175 18.576 16.2829 23.1751 16.2829C27.774 16.2829 31.5013 20.0175 31.5013 24.6094C31.5013 29.2012 27.767 32.9358 23.1751 32.9358Z" fill="#6F6F6F"/>
<path d="M7.71991 15.1564H14.8983C15.2881 15.1564 15.6069 14.8373 15.6069 14.4477C15.6069 14.0578 15.2881 13.739 14.8983 13.739H7.71991C7.33003 13.739 7.01123 14.0578 7.01123 14.4477C7.01123 14.8373 7.33003 15.1564 7.71991 15.1564Z" fill="#6F6F6F"/>
<path d="M27.4895 22.0378C27.1006 21.6489 26.4698 21.6489 26.0808 22.0378L22.1368 25.9819L20.8489 24.694C20.4599 24.305 19.8292 24.305 19.4402 24.694C19.0512 25.0829 19.0512 25.7136 19.4402 26.1027L21.4324 28.0948C21.6269 28.2893 21.8818 28.3866 22.1368 28.3866C22.3917 28.3866 22.6466 28.2893 22.8411 28.0948L27.4895 23.4464C27.8785 23.0575 27.8785 22.4267 27.4895 22.0378Z" fill="#6F6F6F"/>
</g>
<defs>
<clipPath id="clip0_1688_1309">
<rect width="34" height="34" fill="white" transform="translate(0.466797 0.345947)"/>
</clipPath>
</defs>
</svg>
