<svg width="15" height="15" viewBox="0 0 15 15" fill="none" xmlns="http://www.w3.org/2000/svg">
<g clip-path="url(#clip0_1685_1274)">
<path d="M14.6575 7.35159L11.4757 4.16982C11.3614 4.03635 11.1606 4.0208 11.0271 4.13512C10.8936 4.24941 10.8781 4.45028 10.9924 4.58374C11.0031 4.59618 11.0147 4.6078 11.0271 4.61844L13.6648 7.25931H1.06817C0.892458 7.25931 0.75 7.40176 0.75 7.5775C0.75 7.75323 0.892458 7.89567 1.06817 7.89567H13.6648L11.0271 10.5333C10.8936 10.6476 10.8781 10.8485 10.9924 10.982C11.1067 11.1154 11.3076 11.131 11.441 11.0167C11.4535 11.006 11.4651 10.9944 11.4757 10.982L14.6575 7.80018C14.7808 7.67613 14.7808 7.4757 14.6575 7.35159Z" fill="black"/>
</g>
<defs>
<clipPath id="clip0_1685_1274">
<rect width="14" height="14" fill="white" transform="translate(0.75 0.576172)"/>
</clipPath>
</defs>
</svg>
