<svg width="40" height="65" viewBox="0 0 40 65" fill="none" xmlns="http://www.w3.org/2000/svg">
<path d="M39.712 16.829C39.712 19.1756 39.272 21.2583 38.392 23.077C37.5707 24.7783 36.544 26.3036 35.312 27.653C34.1387 29.0023 32.408 30.645 30.12 32.581L28.096 34.429C25.632 36.541 23.872 38.3303 22.816 39.797C21.8187 41.1463 21.232 42.9063 21.056 45.077L20.792 47.629H14.544V44.461C14.6027 40.941 15.072 38.3596 15.952 36.717C16.8907 35.0743 19.12 32.669 22.64 29.501L24.224 28.181C27.04 25.893 28.976 23.9863 30.032 22.461C31.1467 20.877 31.704 19.0583 31.704 17.005C31.704 14.2476 30.7067 12.077 28.712 10.493C26.7173 8.85028 24.048 8.02895 20.704 8.02895C18.064 8.02895 15.5707 8.58628 13.224 9.70095C10.936 10.757 8.17867 12.605 4.952 15.245L0.376 10.053C7.12267 4.01029 13.9573 0.988952 20.88 0.988952C26.2187 0.988952 30.6773 2.42628 34.256 5.30095C37.8933 8.11695 39.712 11.9596 39.712 16.829ZM22.288 55.373V64.877H13.312V55.373H22.288Z" fill="#6F6F6F" fill-opacity="0.66"/>
</svg>
