<svg width="46" height="46" viewBox="0 0 46 46" fill="none" xmlns="http://www.w3.org/2000/svg">
<g clip-path="url(#clip0_1689_1894)">
<path d="M38.91 7.09012C34.6905 2.87054 28.9675 0.5 23.0001 0.5C17.0327 0.5 11.3097 2.87054 7.09012 7.09012C2.87054 11.3097 0.5 17.0327 0.5 23.0001C0.5 28.9675 2.87054 34.6905 7.09012 38.91C11.3097 43.1296 17.0327 45.5002 23.0001 45.5002C28.9675 45.5002 34.6905 43.1296 38.91 38.91C43.1296 34.6905 45.5002 28.9675 45.5002 23.0001C45.5002 17.0327 43.1296 11.3097 38.91 7.09012ZM23.0001 42.336C12.3382 42.336 3.66414 33.662 3.66414 23.0001C3.66414 12.3382 12.3382 3.66414 23.0001 3.66414C33.6619 3.66414 42.336 12.3382 42.336 23.0001C42.336 33.662 33.6619 42.336 23.0001 42.336ZM33.9425 23.0001C33.9425 23.4197 33.7758 23.8221 33.4791 24.1187C33.1824 24.4154 32.78 24.5821 32.3604 24.5821H24.5821V32.3604C24.5821 32.78 24.4154 33.1824 24.1187 33.4791C23.8221 33.7758 23.4197 33.9425 23.0001 33.9425C22.5805 33.9425 22.1781 33.7758 21.8814 33.4791C21.5847 33.1824 21.4181 32.78 21.4181 32.3604V24.5821H13.6397C13.2202 24.5821 12.8178 24.4154 12.5211 24.1187C12.2244 23.8221 12.0577 23.4197 12.0577 23.0001C12.0577 22.5805 12.2244 22.1781 12.5211 21.8814C12.8178 21.5847 13.2202 21.4181 13.6397 21.4181H21.4181V13.6397C21.4181 13.2202 21.5847 12.8178 21.8814 12.5211C22.1781 12.2244 22.5805 12.0577 23.0001 12.0577C23.4197 12.0577 23.8221 12.2244 24.1187 12.5211C24.4154 12.8178 24.5821 13.2202 24.5821 13.6397V21.4181H32.3604C32.78 21.4181 33.1824 21.5847 33.4791 21.8814C33.7758 22.1781 33.9425 22.5805 33.9425 23.0001Z" fill="#8BCC60"/>
</g>
<defs>
<clipPath id="clip0_1689_1894">
<rect width="45" height="45" fill="white" transform="translate(0.5 0.5)"/>
</clipPath>
</defs>
</svg>
