<svg width="14" height="16" viewBox="0 0 14 16" fill="none" xmlns="http://www.w3.org/2000/svg">
<path d="M7 13.7475L6.94961 13.7181L1.32757 10.4386L7 13.7475ZM7 13.7475L7.05039 13.7181L12.6725 10.4385C12.8214 10.3517 12.9987 10.3276 13.1654 10.3714C13.3321 10.4153 13.4746 10.5236 13.5614 10.6725C13.6045 10.7462 13.6325 10.8277 13.644 10.9123C13.6556 10.9968 13.6503 11.0829 13.6286 11.1654C13.6069 11.248 13.5691 11.3254 13.5174 11.3934C13.4658 11.4613 13.4012 11.5184 13.3275 11.5614L7.32751 15.0614L7.37521 15.1432M7 13.7475L7.37521 15.1432M7.37521 15.1432L7.32751 15.0614C7.2281 15.1194 7.11508 15.15 7 15.15C6.88492 15.15 6.7719 15.1194 6.67249 15.0614L6.62466 15.1434M7.37521 15.1432L6.62466 15.1434M6.62466 15.1434L6.67249 15.0614L0.672541 11.5615M6.62466 15.1434L0.672541 11.5615M7 10.7475L6.94961 10.7181L1.32757 7.43858L7 10.7475ZM7 10.7475L7.05039 10.7181M7 10.7475L7.05039 10.7181M7.05039 10.7181L12.6725 7.43855L12.6221 7.35217M7.05039 10.7181L12.6221 7.35217M12.6221 7.35217L12.6725 7.43852C12.7463 7.39545 12.8278 7.36732 12.9124 7.35576C12.997 7.3442 13.083 7.34942 13.1656 7.37112C13.2482 7.39283 13.3257 7.43059 13.3937 7.48226C13.4617 7.53393 13.5188 7.59849 13.5618 7.67225C13.6049 7.74601 13.6329 7.82753 13.6445 7.91214C13.656 7.99675 13.6507 8.0828 13.6289 8.16538C13.6072 8.24795 13.5694 8.32543 13.5177 8.39338C13.4659 8.46134 13.4014 8.51843 13.3276 8.56142L13.3275 8.56145L7.32751 12.0614L7.3779 12.1478L7.32751 12.0614C7.2281 12.1194 7.11508 12.15 7 12.15C6.88492 12.15 6.7719 12.1194 6.67249 12.0614L6.62466 12.1434L6.67249 12.0614L0.672541 8.56148L12.6221 7.35217ZM0.672541 11.5615L0.672488 11.5614C0.523724 11.4745 0.415556 11.3321 0.371759 11.1655C0.327956 10.9988 0.352125 10.8216 0.438951 10.6727C0.525778 10.5239 0.668156 10.4156 0.834788 10.3717C1.0014 10.3278 1.17862 10.3518 1.32751 10.4385L0.672541 11.5615ZM0.672482 4.43855L0.672488 4.43855L6.67249 0.938551L6.67249 0.938549C6.7719 0.880558 6.88492 0.85 7 0.85C7.11508 0.85 7.2281 0.880558 7.32751 0.938549L7.32751 0.938551L13.3275 4.43855L13.3765 4.35454L13.3275 4.43855C13.4256 4.49579 13.5071 4.57775 13.5636 4.67626C13.6202 4.77477 13.65 4.88639 13.65 5C13.65 5.1136 13.6202 5.22522 13.5636 5.32373C13.5071 5.42225 13.4256 5.50421 13.3275 5.56145L13.3752 5.64321L13.3275 5.56145L7.32751 9.06145L7.3779 9.14782L7.32751 9.06145C7.2281 9.11944 7.11508 9.15 7 9.15C6.88492 9.15 6.7719 9.11944 6.67249 9.06145L6.62734 9.13884L6.67249 9.06145L0.672488 5.56145L0.672482 5.56144C0.574349 5.50421 0.492933 5.42225 0.436351 5.32374C0.379768 5.22523 0.349995 5.11361 0.35 5L0.25 5L0.35 4.99999C0.349995 4.88639 0.379768 4.77477 0.436351 4.67626C0.492933 4.57775 0.574349 4.49579 0.672482 4.43855ZM2.43808 4.91362L2.29 5L2.43808 5.08638L6.94961 7.71809L7 7.74748L7.05039 7.71809L11.5619 5.08638L11.71 5L11.5619 4.91362L7.05039 2.28191L7 2.25252L6.94961 2.28191L2.43808 4.91362ZM0.834788 7.37169C1.0014 7.32779 1.17862 7.35184 1.32751 7.43855L0.672488 8.56145C0.523724 8.47452 0.415556 8.33209 0.371759 8.16545C0.327956 7.9988 0.352125 7.82156 0.438951 7.67272C0.525778 7.52387 0.668156 7.4156 0.834788 7.37169Z" fill="#787486" stroke="white" stroke-width="0.2"/>
</svg>
