<svg width="24" height="24" viewBox="0 0 24 24" fill="none" xmlns="http://www.w3.org/2000/svg">
<path d="M11.5978 23.2816C8.08809 23.2816 4.57834 23.2686 1.06935 23.2939C0.45413 23.2985 0.0894402 22.9139 0.0940371 22.3217C0.11932 18.9015 0.110126 15.4814 0.100932 12.0605C0.100166 11.7127 0.184443 11.4193 0.379047 11.132C1.25783 9.83334 2.12128 8.52398 2.99776 7.22381C3.12571 7.03457 3.17474 6.84534 3.17398 6.61855C3.16708 4.81886 3.17015 3.01993 3.17015 1.22023C3.17015 0.561337 3.43217 0.300078 4.09643 0.300078C7.79619 0.298546 11.4975 0.302377 15.1988 0.293949C15.5826 0.293183 15.873 0.408872 16.1442 0.685454C17.3057 1.8684 18.481 3.03831 19.6601 4.20363C19.9137 4.45417 20.0746 4.72998 20.0209 5.08471C19.8179 6.41705 20.2569 7.52645 21.079 8.56535C21.7256 9.38284 22.252 10.2946 22.8366 11.1611C23.0135 11.4231 23.0932 11.6982 23.0925 12.0207C23.0848 15.4669 23.0879 18.9123 23.0879 22.3584C23.0879 23.0189 22.8266 23.2816 22.1646 23.2816C18.6419 23.2824 15.1199 23.2816 11.5971 23.2816H11.5978ZM15.1421 5.64017C15.0976 5.57965 15.0226 5.56203 14.9827 5.61029C14.949 5.6509 15.0218 5.68461 15.0616 5.70989C15.588 6.2462 16.1074 6.78941 16.643 7.31652C16.8682 7.5387 16.9671 7.78694 16.964 8.09953C16.9556 8.96682 16.9686 9.83487 16.9556 10.7022C16.9525 10.9404 17.0023 11.0485 17.2666 11.0278C17.5708 11.0048 17.8803 11.004 18.1845 11.0285C18.4519 11.05 18.4955 10.9374 18.494 10.7029C18.4856 9.13384 18.4825 7.56475 18.4948 5.99567C18.4971 5.73288 18.4381 5.6555 18.1646 5.65856C17.1571 5.66929 16.1496 5.64937 15.1428 5.64094L15.1421 5.64017ZM14.6127 5.26246C14.6441 5.29234 14.6763 5.32222 14.7077 5.35287C14.7605 5.28698 14.7452 5.23105 14.6831 5.18201C14.6747 4.16303 14.6632 3.14328 14.6625 2.12429C14.6625 1.93429 14.6556 1.82932 14.4096 1.83009C11.2615 1.83852 8.11261 1.83698 4.96448 1.83162C4.77218 1.83162 4.6902 1.87299 4.70169 2.08292C4.71931 2.38785 4.72927 2.69661 4.69939 3.00001C4.66875 3.31183 4.78826 3.37083 5.07787 3.37006C7.44912 3.35857 9.8196 3.36623 12.1908 3.3601C12.5303 3.35933 12.7976 3.45817 13.0382 3.7064C13.5508 4.23658 14.0863 4.74531 14.6127 5.26323V5.26246ZM11.6162 12.5578C8.42597 12.5578 5.23493 12.5616 2.04467 12.5517C1.74816 12.5509 1.63094 12.5915 1.63324 12.9332C1.64933 15.7534 1.64627 18.5736 1.63554 21.3946C1.63477 21.6758 1.69607 21.7532 1.98797 21.7532C8.39455 21.744 14.8011 21.744 21.2077 21.7532C21.5004 21.7532 21.5609 21.6743 21.5594 21.3946C21.5487 18.5744 21.5494 15.7542 21.5594 12.9332C21.5602 12.6444 21.4981 12.5501 21.1878 12.5517C17.9975 12.5647 14.8065 12.5593 11.6162 12.5585V12.5578ZM10.0418 11.0224C11.725 11.0224 13.409 11.0163 15.0923 11.0285C15.3589 11.0308 15.4416 10.9634 15.4317 10.693C15.411 10.1329 15.411 9.57055 15.4309 9.00972C15.4401 8.76149 15.3551 8.71935 15.1291 8.72318C14.2495 8.7362 13.3692 8.72931 12.4889 8.72701C11.8729 8.72548 11.5971 8.45349 11.5963 7.8467C11.594 6.96639 11.5856 6.08684 11.6024 5.20653C11.607 4.9537 11.5373 4.89164 11.2891 4.89317C9.19748 4.90313 7.10588 4.90313 5.01428 4.89317C4.75915 4.89164 4.70016 4.96749 4.70169 5.21189C4.71165 7.03534 4.71471 8.85956 4.69863 10.683C4.69633 10.9864 4.79899 11.0301 5.06868 11.0278C6.72664 11.0155 8.38459 11.0216 10.0426 11.0224H10.0418ZM17.2352 4.12855C16.8943 3.77306 16.5441 3.4076 16.1948 3.04368C16.1948 3.32179 16.2001 3.61293 16.1925 3.9033C16.1886 4.05423 16.2185 4.13928 16.3978 4.13238C16.6974 4.12012 16.9985 4.12932 17.2344 4.12932L17.2352 4.12855ZM13.1317 6.02632C13.1317 6.39177 13.1302 6.68291 13.1325 6.97328C13.1325 7.06982 13.1056 7.1901 13.2658 7.19087C13.5952 7.19164 13.9239 7.19087 14.2457 7.19087C13.8703 6.7986 13.5247 6.43697 13.1325 6.02555L13.1317 6.02632ZM2.31588 11.0216C2.58634 11.0216 2.78784 11.0201 2.98857 11.0216C3.0851 11.0224 3.16785 11.0147 3.16708 10.8868C3.16555 10.5428 3.16708 10.1988 3.16708 9.74906C2.85296 10.2187 2.60702 10.5865 2.31588 11.0209V11.0216ZM20.093 9.85326C20.07 9.85862 20.0462 9.86398 20.0232 9.86858V10.313C20.0232 10.8058 20.274 11.0393 20.7756 11.0132C20.7902 11.0132 20.8032 10.9818 20.8285 10.9504C20.5856 10.5872 20.3397 10.2202 20.0937 9.85326H20.093Z" fill="#050505"/>
<path d="M15.1413 5.64017C16.1488 5.6486 17.1563 5.66852 18.163 5.6578C18.4373 5.65473 18.4955 5.73211 18.4932 5.9949C18.481 7.56399 18.4833 9.13307 18.4925 10.7022C18.494 10.9366 18.4503 11.05 18.1829 11.0278C17.8788 11.0033 17.57 11.0033 17.2651 11.027C17.0008 11.0469 16.951 10.9397 16.954 10.7014C16.9663 9.8341 16.954 8.96605 16.9625 8.09876C16.9655 7.78617 16.8667 7.53794 16.6414 7.31575C16.1059 6.78864 15.5864 6.24544 15.0601 5.70913C15.0869 5.68614 15.1137 5.66316 15.1405 5.63941L15.1413 5.64017Z" fill="#FEFEFE"/>
<path d="M14.6824 5.18201C14.7444 5.23105 14.7598 5.28698 14.7069 5.35287C14.6755 5.32299 14.6433 5.29311 14.6119 5.26246C14.6356 5.23564 14.6586 5.20883 14.6824 5.18125V5.18201Z" fill="#FEFEFE"/>
<path d="M15.0609 5.70989C15.021 5.68461 14.949 5.6509 14.9819 5.61029C15.0218 5.56203 15.0969 5.57888 15.1413 5.64017C15.1145 5.66316 15.0877 5.68614 15.0609 5.70989Z" fill="#FEFEFE"/>
<path d="M11.5756 17.9193C10.3505 17.9193 9.12547 17.9209 7.89962 17.9193C7.34109 17.9186 7.00092 17.6297 6.99709 17.1585C6.99326 16.6881 7.33803 16.384 7.88429 16.3832C10.3605 16.3817 12.8359 16.3817 15.3122 16.3832C15.86 16.3832 16.1986 16.6858 16.194 17.1616C16.1894 17.619 15.8531 17.917 15.3275 17.9178C14.0771 17.9209 12.826 17.9186 11.5749 17.9193H11.5756Z" fill="#050505"/>
</svg>
