<svg width="17" height="20" viewBox="0 0 17 20" fill="none" xmlns="http://www.w3.org/2000/svg">
<path d="M15.6068 6.47127C14.8156 5.48474 14.0893 4.57969 13.3639 3.67463C12.6892 2.83354 12.0085 1.9977 11.3452 1.14785C11.1963 0.956849 11.0465 0.880625 10.802 0.881501C8.01765 0.890263 5.23328 0.885006 2.44891 0.888511C1.49041 0.889387 0.891129 1.47903 0.890253 2.43227C0.886748 7.48146 0.899014 12.5307 0.877987 17.5798C0.874482 18.5051 1.62971 19.121 2.39809 19.1157C6.45111 19.0868 10.5033 19.1035 14.5563 19.1008C15.5069 19.1008 16.0606 18.5375 16.0615 17.5746C16.0641 14.6851 16.0615 11.7956 16.0632 8.90606C16.0632 8.76063 16.0518 8.60818 16.0904 8.4715C16.1509 8.25422 16.3086 8.12542 16.5469 8.14908C16.7773 8.17186 16.9201 8.29715 16.9341 8.53984C16.9403 8.64147 16.9385 8.74398 16.9385 8.84649C16.9385 11.736 16.8991 14.6264 16.956 17.5141C16.9823 18.8695 15.8495 20.019 14.4608 19.9997C10.4673 19.9437 6.47126 19.9463 2.47782 19.9997C1.16887 20.019 -0.0121712 18.9387 9.47065e-05 17.5474C0.0447778 12.528 0.0421494 7.50775 0.00184699 2.48747C-0.00954283 1.05322 1.12068 -0.0121611 2.5006 0.00010484C5.35769 0.0246368 8.21478 0.0132469 11.0719 0.00098098C11.4136 -0.000771299 11.6396 0.113127 11.849 0.376845C13.4637 2.40511 15.089 4.42636 16.7151 6.44586C16.878 6.64825 17.0305 6.84889 16.8973 7.10998C16.7729 7.35442 16.5267 7.35179 16.2858 7.35092C14.9882 7.34654 13.6907 7.35267 12.3931 7.34741C11.4907 7.34391 10.8896 6.74112 10.8861 5.84396C10.8826 4.99761 10.8782 4.15126 10.8931 3.3049C10.8975 3.06046 10.8318 2.98248 10.5804 2.98599C9.60346 3.00001 8.62657 3.00614 7.65055 2.98511C7.22825 2.97635 7.36843 3.25934 7.36142 3.45735C7.35441 3.6501 7.25541 3.88666 7.64179 3.89192C8.66336 3.90681 8.66336 3.92609 8.66336 4.94767C8.66336 5.28323 8.66336 5.61879 8.66336 5.95435C8.66336 6.32934 8.49777 6.53085 8.10001 6.49142C8.02816 6.48441 7.95457 6.49055 7.88185 6.49055C7.39296 6.49055 7.19758 6.78143 7.35704 7.24841C7.39734 7.36669 7.47357 7.35617 7.55592 7.35705C7.73115 7.35968 7.9055 7.36055 8.08073 7.35705C8.48025 7.34916 8.66774 7.54542 8.66424 7.94231C8.65986 8.42419 8.67037 8.90519 8.66161 9.38707C8.65373 9.86369 8.53107 9.97934 8.06146 9.98635C7.94493 9.9881 7.82665 9.99949 7.71188 9.98372C7.43589 9.94604 7.30885 10.0354 7.35354 10.3333C7.40172 10.6496 7.27994 10.9203 7.12924 11.198C6.76039 11.8779 6.45724 12.5832 6.49317 13.3858C6.5212 14.0236 6.91634 14.4424 7.51825 14.4625C8.15257 14.4836 8.58889 14.0911 8.63533 13.441C8.68614 12.7155 8.39439 12.0794 8.08774 11.4504C7.99837 11.2664 7.97559 11.0903 8.09913 10.9142C8.20777 10.76 8.36723 10.7644 8.53107 10.7679C8.68527 10.7714 8.77726 10.8677 8.83509 10.9843C9.24424 11.8087 9.60171 12.6437 9.50358 13.6039C9.4002 14.6089 8.5959 15.3431 7.55943 15.3413C6.53434 15.3396 5.70464 14.5852 5.62316 13.5855C5.55394 12.7348 5.7318 11.9314 6.13921 11.1919C6.39329 10.7319 6.52295 10.2728 6.48966 9.74365C6.45724 9.23111 6.60706 9.11283 7.13012 9.10845C7.18882 9.10845 7.24752 9.11459 7.30447 9.1067C7.45692 9.0848 7.70136 9.19081 7.74605 9.04362C7.81526 8.8167 7.79336 8.54948 7.75568 8.30766C7.73466 8.17274 7.55505 8.23231 7.45079 8.23757C6.3267 8.29189 6.48616 8.05884 6.48178 7.23527C6.48002 6.89971 6.47827 6.56414 6.48178 6.22858C6.48791 5.77211 6.62897 5.6293 7.0758 5.61528C7.14852 5.61353 7.22124 5.61528 7.29483 5.61528C7.73203 5.61528 7.94405 5.27359 7.76707 4.86618C7.69173 4.69359 7.54541 4.75141 7.42801 4.75667C6.34773 4.80573 6.4809 4.58144 6.4809 3.77451C6.4809 3.39515 6.48441 3.01578 6.4809 2.63641C6.47652 2.29559 6.63861 2.11248 6.97855 2.1116C8.40753 2.1081 9.83564 2.10547 11.2646 2.11335C11.6212 2.11511 11.7737 2.32188 11.771 2.67934C11.7614 3.71581 11.7623 4.75141 11.764 5.78788C11.7649 6.30743 11.9244 6.46864 12.4378 6.4704C13.4558 6.4739 14.473 6.47127 15.6076 6.47127H15.6068Z" fill="#121313"/>
</svg>
