<svg width="11" height="11" viewBox="0 0 11 11" fill="none" xmlns="http://www.w3.org/2000/svg">
<path d="M4.98912 7.33394C3.41566 7.33394 1.84259 7.33394 0.269128 7.33394C0.0946897 7.33394 0.0286895 7.2488 0.0711275 7.07853C0.444087 5.57966 0.816265 4.08118 1.19001 2.58271C1.33607 1.9973 1.48994 1.41345 1.63053 0.826867C1.65826 0.709316 1.69965 0.666748 1.82189 0.666748C3.94131 0.669872 6.06074 0.670263 8.18017 0.666748C8.30279 0.666748 8.34302 0.709707 8.37192 0.826086C8.89797 2.942 9.42753 5.05713 9.96217 7.17108C10.0051 7.34057 9.9239 7.33511 9.80635 7.33472C8.20047 7.33315 6.59499 7.33394 4.98912 7.33394ZM4.99302 5.66714C5.63584 5.66714 6.27827 5.66284 6.92108 5.67026C7.07378 5.67222 7.09175 5.62145 7.0605 5.48984C6.97263 5.11805 6.6645 4.84663 6.28452 4.84389C5.42768 4.83804 4.57085 4.83765 3.71402 4.84389C3.33833 4.84663 3.02278 5.12781 2.93921 5.49335C2.90757 5.6316 2.93921 5.67182 3.08448 5.67026C3.72066 5.66284 4.35684 5.66714 4.99302 5.66714ZM4.99536 2.34565C4.53024 2.34721 4.17368 2.70846 4.17524 3.17553C4.17681 3.63636 4.54547 4.00073 5.00708 3.99839C5.46596 3.99566 5.82954 3.62582 5.8272 3.16343C5.82486 2.69908 5.46361 2.34409 4.99536 2.34565Z" fill="#0B0C0C"/>
<path d="M4.9981 10.666C3.65154 10.666 2.30537 10.6667 0.95881 10.666C0.325755 10.6656 0.00317469 10.3395 0.00200309 9.70213C0.00122203 9.24052 0.00551789 8.77852 5.04254e-05 8.31691C-0.00151171 8.19897 0.0328552 8.1603 0.154311 8.16069C1.3056 8.16421 2.4569 8.16343 3.60819 8.15913C3.71285 8.15913 3.76714 8.19155 3.81908 8.2841C4.07449 8.74025 4.4658 8.98589 4.99263 8.98863C5.52766 8.99136 5.92483 8.74415 6.18415 8.28215C6.23726 8.18803 6.29389 8.15913 6.3966 8.15952C7.54125 8.16343 8.6863 8.16538 9.83095 8.15991C9.97545 8.15913 10.0028 8.21264 10.0012 8.34112C9.99536 8.81601 10.002 9.29051 9.9981 9.7654C9.99341 10.3262 9.65716 10.664 9.09558 10.6652C7.72949 10.6683 6.36418 10.6664 4.9981 10.666Z" fill="#0B0C0C"/>
<path d="M4.99302 5.66714C4.35684 5.66714 3.72066 5.66284 3.08448 5.67026C2.93921 5.67182 2.90757 5.6316 2.93921 5.49335C3.02278 5.12781 3.33833 4.84663 3.71402 4.84389C4.57085 4.83765 5.42768 4.83804 6.28452 4.84389C6.6645 4.84663 6.97263 5.11805 7.0605 5.48984C7.09175 5.62145 7.07378 5.67222 6.92108 5.67026C6.27827 5.66284 5.63584 5.66714 4.99302 5.66714Z" fill="#FCFCFC"/>
<path d="M4.99536 2.34565C5.46361 2.34409 5.82486 2.69908 5.8272 3.16343C5.82954 3.62582 5.46596 3.99566 5.00708 3.99839C4.54547 4.00073 4.17681 3.63636 4.17524 3.17553C4.17368 2.70846 4.53024 2.34721 4.99536 2.34565Z" fill="#FCFCFC"/>
</svg>
