<svg width="45" height="46" viewBox="0 0 45 46" fill="none" xmlns="http://www.w3.org/2000/svg">
<g clip-path="url(#clip0_1687_883)">
<path d="M36.5629 8.9648C35.0096 8.9648 33.7504 10.224 33.7504 11.7773V8.02727C33.7504 6.47398 32.4912 5.21478 30.9379 5.21478C29.3847 5.21478 28.1255 6.47398 28.1255 8.02727V4.27734C28.1255 2.72405 26.8662 1.46484 25.313 1.46484C23.7597 1.46484 22.5005 2.72405 22.5005 4.27734V8.02736C22.5005 6.47407 21.2413 5.21487 19.688 5.21487C18.1347 5.21487 16.8755 6.47407 16.8755 8.02736V27.7148L10.3655 24.4598C9.71469 24.1343 8.99697 23.9649 8.26924 23.9648C6.80912 23.9648 5.62549 25.1484 5.62549 26.6085V26.6198C5.624 27.3229 5.9027 27.9977 6.3999 28.4948L18.5236 40.6185C21.0709 43.1632 24.5248 44.5917 28.1255 44.5897C34.3386 44.5897 39.3754 39.5529 39.3754 33.3397V11.7773C39.3754 10.224 38.1162 8.9648 36.5629 8.9648Z" fill="#FFCC80"/>
<path d="M22.5 21.1525C23.0178 21.1525 23.4376 20.7327 23.4376 20.215V2.19629C22.8383 2.72152 22.4963 3.48072 22.5 4.27754V21.1525Z" fill="#FFB74D"/>
<path d="M28.125 21.1526C28.6428 21.1526 29.0626 20.7328 29.0626 20.215V5.94629C28.4633 6.47152 28.1213 7.23072 28.125 8.02753V21.1526Z" fill="#FFB74D"/>
<path d="M33.75 11.7775V21.1525C34.2678 21.1525 34.6876 20.7328 34.6876 20.215V9.69629C34.0883 10.2215 33.7463 10.9807 33.75 11.7775Z" fill="#FFB74D"/>
<path d="M28.1254 45.5273C24.2737 45.5385 20.5777 44.0079 17.8617 41.2766L5.73788 29.1529C4.33682 27.751 4.33743 25.4787 5.73937 24.0777C6.41059 23.4069 7.32017 23.0292 8.26912 23.0273C9.14179 23.028 10.0023 23.2309 10.7835 23.6198L15.9378 26.1979V8.0273C15.9389 5.95625 17.6187 4.27816 19.6898 4.2793C20.3474 4.27965 20.9933 4.45288 21.5628 4.78168V4.27728C21.5629 2.20632 23.2418 0.527344 25.3129 0.527344C27.384 0.527344 29.063 2.20632 29.063 4.27737V4.78177C30.8565 3.74624 33.15 4.36077 34.1856 6.15435C34.5144 6.72388 34.6876 7.36979 34.6879 8.02739V8.53179C36.4815 7.49627 38.775 8.1108 39.8105 9.90438C40.1393 10.4739 40.3126 11.1198 40.3129 11.7774V33.3398C40.3046 40.0673 34.8529 45.519 28.1254 45.5273ZM8.26912 24.9023C7.32263 24.9049 6.55755 25.6744 6.56027 26.6209C6.56159 27.0734 6.74176 27.5071 7.06169 27.8273L19.1873 39.951C21.5524 42.3294 24.7712 43.6624 28.1254 43.6522C33.8178 43.645 38.4307 39.0322 38.4379 33.3398V11.7773C38.4379 10.7418 37.5984 9.90236 36.5629 9.90236C35.5274 9.90236 34.6879 10.7418 34.6879 11.7773V20.2148C34.6879 20.7326 34.2682 21.1523 33.7504 21.1523C33.2326 21.1523 32.8129 20.7326 32.8129 20.2148V8.0273C32.8129 6.99177 31.9734 6.15233 30.9379 6.15233C29.9024 6.15233 29.063 6.99177 29.063 8.0273V20.2148C29.063 20.7326 28.6432 21.1523 28.1254 21.1523C27.6077 21.1523 27.1879 20.7326 27.1879 20.2148V4.27737C27.1879 3.24184 26.3485 2.4024 25.3129 2.4024C24.2774 2.4024 23.438 3.24184 23.438 4.27737V20.2148C23.438 20.7326 23.0182 21.1523 22.5004 21.1523C21.9827 21.1523 21.5629 20.7326 21.5629 20.2148V8.0273C21.5629 6.99177 20.7235 6.15233 19.6879 6.15233C18.6524 6.15233 17.813 6.99177 17.813 8.0273V27.7148C17.813 28.2325 17.3932 28.6523 16.8754 28.6522C16.7296 28.6522 16.5858 28.6182 16.4555 28.5529L9.93799 25.2979C9.41952 25.0394 8.84841 24.9039 8.26912 24.9023Z" fill="black"/>
</g>
<defs>
<clipPath id="clip0_1687_883">
<rect width="45" height="45" fill="white" transform="translate(0 0.527344)"/>
</clipPath>
</defs>
</svg>
