<svg width="17" height="17" viewBox="0 0 17 17" fill="none" xmlns="http://www.w3.org/2000/svg">
<path d="M4.75626 7.30423H3.39734C1.75305 7.30423 0.849365 6.40055 0.849365 4.75626V3.39734C0.849365 1.75305 1.75305 0.849365 3.39734 0.849365H4.75626C6.40055 0.849365 7.30423 1.75305 7.30423 3.39734V4.75626C7.30423 6.40055 6.40055 7.30423 4.75626 7.30423ZM3.39734 1.86855C2.32379 1.86855 1.86855 2.32379 1.86855 3.39734V4.75626C1.86855 5.8298 2.32379 6.28504 3.39734 6.28504H4.75626C5.8298 6.28504 6.28504 5.8298 6.28504 4.75626V3.39734C6.28504 2.32379 5.8298 1.86855 4.75626 1.86855H3.39734Z" fill="#787486"/>
<path d="M12.9098 7.30423H11.5508C9.90655 7.30423 9.00287 6.40055 9.00287 4.75626V3.39734C9.00287 1.75305 9.90655 0.849365 11.5508 0.849365H12.9098C14.5541 0.849365 15.4577 1.75305 15.4577 3.39734V4.75626C15.4577 6.40055 14.5541 7.30423 12.9098 7.30423ZM11.5508 1.86855C10.4773 1.86855 10.0221 2.32379 10.0221 3.39734V4.75626C10.0221 5.8298 10.4773 6.28504 11.5508 6.28504H12.9098C13.9833 6.28504 14.4385 5.8298 14.4385 4.75626V3.39734C14.4385 2.32379 13.9833 1.86855 12.9098 1.86855H11.5508Z" fill="#787486"/>
<path d="M12.9098 15.4577H11.5508C9.90655 15.4577 9.00287 14.554 9.00287 12.9097V11.5508C9.00287 9.90649 9.90655 9.00281 11.5508 9.00281H12.9098C14.5541 9.00281 15.4577 9.90649 15.4577 11.5508V12.9097C15.4577 14.554 14.5541 15.4577 12.9098 15.4577ZM11.5508 10.022C10.4773 10.022 10.0221 10.4772 10.0221 11.5508V12.9097C10.0221 13.9832 10.4773 14.4385 11.5508 14.4385H12.9098C13.9833 14.4385 14.4385 13.9832 14.4385 12.9097V11.5508C14.4385 10.4772 13.9833 10.022 12.9098 10.022H11.5508Z" fill="#787486"/>
<path d="M4.75626 15.4577H3.39734C1.75305 15.4577 0.849365 14.554 0.849365 12.9097V11.5508C0.849365 9.90649 1.75305 9.00281 3.39734 9.00281H4.75626C6.40055 9.00281 7.30423 9.90649 7.30423 11.5508V12.9097C7.30423 14.554 6.40055 15.4577 4.75626 15.4577ZM3.39734 10.022C2.32379 10.022 1.86855 10.4772 1.86855 11.5508V12.9097C1.86855 13.9832 2.32379 14.4385 3.39734 14.4385H4.75626C5.8298 14.4385 6.28504 13.9832 6.28504 12.9097V11.5508C6.28504 10.4772 5.8298 10.022 4.75626 10.022H3.39734Z" fill="#787486"/>
</svg>
