<svg width="9" height="8" viewBox="0 0 9 8" fill="none" xmlns="http://www.w3.org/2000/svg">
<path d="M0.912203 -5.93063e-05C1.078 -0.00256001 1.17953 0.0699604 1.2738 0.164737C2.15005 1.04323 3.0278 1.92023 3.90504 2.79773C3.9859 2.87858 4.06642 2.87867 4.14661 2.79798C5.0061 1.93824 5.8656 1.07849 6.72534 0.219002C6.95365 -0.00906182 7.16121 -0.00781147 7.39403 0.221003C7.54257 0.367044 7.69161 0.512585 7.83915 0.659376C8.05321 0.872686 8.05446 1.0945 7.83915 1.31031C6.96516 2.18556 6.09116 3.0603 5.21416 3.9323C5.14239 4.00382 5.13689 4.03958 5.21266 4.11485C6.08516 4.97934 6.9534 5.84833 7.8229 6.71583C8.06171 6.95415 8.06096 7.1607 7.82115 7.40077C7.67385 7.54806 7.52756 7.6961 7.37952 7.84265C7.16821 8.05145 6.94815 8.05145 6.73784 7.8414C5.86284 6.9674 4.98735 6.09415 4.1161 5.21641C4.04008 5.13989 4.00582 5.14739 3.93455 5.21941C3.07131 6.08765 2.20457 6.9524 1.33832 7.81789C1.09625 8.05971 0.893197 8.06021 0.65338 7.82089C0.51184 7.6796 0.3703 7.53831 0.22926 7.39677C-0.00555557 7.16145 -0.00705598 6.9529 0.225259 6.71933C1.0915 5.84909 1.95725 4.97784 2.82674 4.1106C2.89976 4.03783 2.90326 4.00232 2.82924 3.92855C1.94299 3.04805 1.06074 2.1638 0.177496 1.2803C-0.0575702 1.04523 -0.0590706 0.835926 0.172495 0.604111C0.328538 0.447817 0.485583 0.292773 0.640876 0.135979C0.723149 0.0524555 0.820177 0.00394182 0.912203 -5.93063e-05Z" fill="#263238"/>
</svg>
