<svg width="16" height="16" viewBox="0 0 16 16" fill="none" xmlns="http://www.w3.org/2000/svg">
<path d="M8.00001 15.2066C7.54001 15.2066 7.10668 14.9733 6.80001 14.5666L5.80001 13.2333C5.78001 13.2066 5.70001 13.1733 5.66668 13.1666H5.33334C2.55334 13.1666 0.833344 12.4133 0.833344 8.66665V5.33331C0.833344 2.38665 2.38668 0.833313 5.33334 0.833313H10.6667C13.6133 0.833313 15.1667 2.38665 15.1667 5.33331V8.66665C15.1667 11.6133 13.6133 13.1666 10.6667 13.1666H10.3333C10.28 13.1666 10.2333 13.1933 10.2 13.2333L9.20001 14.5666C8.89334 14.9733 8.46001 15.2066 8.00001 15.2066ZM5.33334 1.83331C2.94668 1.83331 1.83334 2.94665 1.83334 5.33331V8.66665C1.83334 11.68 2.86668 12.1666 5.33334 12.1666H5.66668C6.00668 12.1666 6.39334 12.36 6.60001 12.6333L7.60001 13.9666C7.83334 14.2733 8.16668 14.2733 8.40001 13.9666L9.40001 12.6333C9.62001 12.34 9.96668 12.1666 10.3333 12.1666H10.6667C13.0533 12.1666 14.1667 11.0533 14.1667 8.66665V5.33331C14.1667 2.94665 13.0533 1.83331 10.6667 1.83331H5.33334Z" fill="#787486"/>
<path d="M8.00001 8.00002C7.62668 8.00002 7.33334 7.70002 7.33334 7.33335C7.33334 6.96669 7.63334 6.66669 8.00001 6.66669C8.36668 6.66669 8.66668 6.96669 8.66668 7.33335C8.66668 7.70002 8.37334 8.00002 8.00001 8.00002Z" fill="#787486"/>
<path d="M10.6667 8.00002C10.2933 8.00002 10 7.70002 10 7.33335C10 6.96669 10.3 6.66669 10.6667 6.66669C11.0333 6.66669 11.3333 6.96669 11.3333 7.33335C11.3333 7.70002 11.04 8.00002 10.6667 8.00002Z" fill="#787486"/>
<path d="M5.33332 8.00002C4.95999 8.00002 4.66666 7.70002 4.66666 7.33335C4.66666 6.96669 4.96666 6.66669 5.33332 6.66669C5.69999 6.66669 5.99999 6.96669 5.99999 7.33335C5.99999 7.70002 5.70666 8.00002 5.33332 8.00002Z" fill="#787486"/>
</svg>
