<svg width="16" height="16" viewBox="0 0 16 16" fill="none" xmlns="http://www.w3.org/2000/svg">
<path d="M11.2828 0.743646C10.1778 0.743646 9.25517 1.11731 8.49082 1.86683C7.82592 2.51909 7.17146 3.18288 6.51096 3.84009C6.37303 3.97746 6.22137 4.05879 6.02355 3.94669C5.8631 3.85548 5.83123 3.7159 5.85266 3.5494C5.86145 3.48236 5.89222 3.42796 5.93838 3.3829C6.75494 2.58558 7.49567 1.70472 8.38916 0.99257C11.0977 -1.16752 15.2524 0.392514 15.8921 3.79558C16.202 5.44573 15.7657 6.87828 14.5925 8.0795C13.9606 8.72681 13.316 9.36203 12.6736 9.99946C12.4736 10.1978 12.2159 10.2055 12.0785 10.0203C11.9203 9.80713 12.0071 9.63239 12.1736 9.46699C12.7835 8.86199 13.383 8.24709 13.9996 7.64924C14.6557 7.01181 15.092 6.2513 15.2162 5.35012C15.5003 3.28949 14.3298 1.58219 12.589 0.966194C12.35 0.881571 12.101 0.818378 11.851 0.774967C11.6548 0.740898 11.4504 0.751888 11.2823 0.744745L11.2828 0.743646Z" fill="#0D0E0E"/>
<path d="M4.60639 15.2565C5.81474 15.256 6.73735 14.8823 7.50116 14.1334C8.16661 13.4811 8.82107 12.8173 9.48047 12.159C9.62004 12.02 9.77116 11.9408 9.96788 12.0529C10.1283 12.1442 10.1569 12.2854 10.1366 12.4513C10.1283 12.5189 10.0965 12.5728 10.0503 12.6178C9.23484 13.4168 8.49466 14.2993 7.59952 15.0087C4.87949 17.1639 0.75163 15.6137 0.0988219 12.2024C-0.212196 10.577 0.21147 9.15212 1.36213 7.95916C2.00285 7.29481 2.66335 6.65024 3.31835 6.00018C3.53925 5.78093 3.80631 5.79741 3.94094 6.02711C4.06348 6.23592 3.96182 6.38868 3.8173 6.5332C3.19636 7.15249 2.57378 7.77013 1.95614 8.39271C0.212569 10.1511 0.335108 12.8437 2.24078 14.3916C2.96393 14.979 3.80301 15.2736 4.60639 15.2565Z" fill="#0D0E0E"/>
<path d="M11.2779 5.06932C11.2658 5.2622 11.1416 5.3732 11.0251 5.48969C9.57169 6.94258 8.11825 8.39601 6.66482 9.84944C6.23841 10.2759 5.8065 10.6962 5.38558 11.1276C5.09544 11.4254 4.78442 11.2166 4.72783 10.9737C4.68716 10.7973 4.79706 10.6808 4.90806 10.5698C5.60538 9.87197 6.3038 9.17465 7.00167 8.47679C8.19024 7.28821 9.37716 6.09744 10.5679 4.91107C10.8432 4.63687 11.1235 4.66929 11.2449 4.97701C11.2581 5.01053 11.2696 5.0446 11.2784 5.06878L11.2779 5.06932Z" fill="#0D0E0E"/>
</svg>
