<svg width="24" height="24" viewBox="0 0 24 24" fill="none" xmlns="http://www.w3.org/2000/svg">
<g clip-path="url(#clip0_1685_1261)">
<path d="M21.1356 2.64549H17.7042V1.28906C17.7042 0.892136 17.3823 0.570312 16.9854 0.570312C16.5885 0.570312 16.2667 0.892136 16.2667 1.28906V2.64549H10.3263V1.28906C10.3263 0.892136 10.0045 0.570312 9.60753 0.570312C9.2106 0.570312 8.88878 0.892136 8.88878 1.28906V2.64549H5.45734C4.55259 2.64549 3.81647 3.38161 3.81647 4.28637V13.2309C3.81647 13.2641 3.80822 13.2971 3.79225 13.3269L1.39841 17.8079C1.12396 18.3213 1.13888 18.9258 1.43806 19.4249C1.73743 19.9241 2.2635 20.2222 2.84556 20.2222H3.12474V21.3904C3.12474 22.2951 3.86086 23.0312 4.76579 23.0312H20.6745C21.5794 23.0312 22.3155 22.2951 22.3155 21.3904V14.5683L22.6087 13.9707C22.7184 13.7472 22.7765 13.4971 22.7765 13.2478V4.28637C22.7765 3.38161 22.0404 2.64549 21.1356 2.64549ZM2.67096 18.6859C2.64411 18.6408 2.6213 18.5694 2.66622 18.4854L5.05989 14.0048C5.18693 13.7677 5.25397 13.5001 5.25397 13.2309V4.28637C5.25397 4.17424 5.34521 4.08299 5.45734 4.08299H8.88878V4.74752C8.88878 5.14445 9.2106 5.46627 9.60753 5.46627C10.0045 5.46627 10.3263 5.14445 10.3263 4.74752V4.08299H16.2667V4.74752C16.2667 5.14445 16.5885 5.46627 16.9854 5.46627C17.3823 5.46627 17.7042 5.14445 17.7042 4.74752V4.08299H21.1356C21.2477 4.08299 21.339 4.17424 21.339 4.28637V13.2478C21.339 13.2792 21.332 13.3093 21.3183 13.3374L18.7014 18.6708C18.6674 18.74 18.5958 18.7847 18.5187 18.7847H2.84556C2.75027 18.7847 2.69816 18.731 2.67096 18.6859ZM20.878 21.3904C20.878 21.5025 20.7868 21.5938 20.6745 21.5938H4.76579C4.65349 21.5938 4.56224 21.5025 4.56224 21.3904V20.2222H18.5187C19.1401 20.2222 19.7183 19.8618 19.9919 19.304L20.878 17.498V21.3904Z" fill="black"/>
<path d="M9.37711 10.7148H7.99365C7.59673 10.7148 7.2749 11.0367 7.2749 11.4336C7.2749 11.8305 7.59673 12.1523 7.99365 12.1523H9.37711C9.77403 12.1523 10.0959 11.8305 10.0959 11.4336C10.0959 11.0367 9.77403 10.7148 9.37711 10.7148Z" fill="black"/>
<path d="M13.9883 10.7148H12.605C12.2081 10.7148 11.8862 11.0367 11.8862 11.4336C11.8862 11.8305 12.2081 12.1523 12.605 12.1523H13.9883C14.3852 12.1523 14.707 11.8305 14.707 11.4336C14.707 11.0367 14.3852 10.7148 13.9883 10.7148Z" fill="black"/>
<path d="M18.5993 10.7148H17.2158C16.8189 10.7148 16.4971 11.0367 16.4971 11.4336C16.4971 11.8305 16.8189 12.1523 17.2158 12.1523H18.5993C18.9962 12.1523 19.318 11.8305 19.318 11.4336C19.318 11.0367 18.9962 10.7148 18.5993 10.7148Z" fill="black"/>
<path d="M8.2241 15.0957H6.84082C6.44389 15.0957 6.12207 15.4175 6.12207 15.8145C6.12207 16.2114 6.44389 16.5332 6.84082 16.5332H8.2241C8.62103 16.5332 8.94285 16.2114 8.94285 15.8145C8.94285 15.4175 8.62103 15.0957 8.2241 15.0957Z" fill="black"/>
<path d="M12.8356 15.0957H11.4521C11.0552 15.0957 10.7334 15.4175 10.7334 15.8145C10.7334 16.2114 11.0552 16.5332 11.4521 16.5332H12.8356C13.2325 16.5332 13.5544 16.2114 13.5544 15.8145C13.5544 15.4175 13.2325 15.0957 12.8356 15.0957Z" fill="black"/>
<path d="M17.4468 15.0957H16.0635C15.6665 15.0957 15.3447 15.4175 15.3447 15.8145C15.3447 16.2114 15.6665 16.5332 16.0635 16.5332H17.4468C17.8437 16.5332 18.1655 16.2114 18.1655 15.8145C18.1655 15.4175 17.8437 15.0957 17.4468 15.0957Z" fill="black"/>
<path d="M7.7627 8.46387H18.8298C19.2267 8.46387 19.5485 8.14204 19.5485 7.74512C19.5485 7.34819 19.2267 7.02637 18.8298 7.02637H7.7627C7.36577 7.02637 7.04395 7.34819 7.04395 7.74512C7.04395 8.14204 7.36577 8.46387 7.7627 8.46387Z" fill="black"/>
</g>
<defs>
<clipPath id="clip0_1685_1261">
<rect width="23" height="23" fill="white" transform="translate(0.75 0.5)"/>
</clipPath>
</defs>
</svg>
