<svg width="10" height="11" viewBox="0 0 10 11" fill="none" xmlns="http://www.w3.org/2000/svg">
<path d="M8.41781 10.3263C7.97803 10.6011 7.49402 10.6696 6.98354 10.6664C5.42818 10.657 3.87282 10.6577 2.31782 10.6664C1.83344 10.6689 1.37191 10.6066 0.946269 10.3633C0.908201 10.3194 0.864332 10.2843 0.808498 10.2654C0.805598 10.248 0.798347 10.2349 0.777319 10.24C0.672903 10.1385 0.568487 10.037 0.464071 9.93511V9.92025L0.448118 9.91807C0.440867 9.87565 0.412225 9.85027 0.377783 9.82961C0.321224 9.73643 0.265028 9.64289 0.208469 9.54972C0.208469 9.51273 0.194692 9.48228 0.165688 9.45871L0.170764 9.44494L0.158799 9.43515C0.145022 9.39744 0.131608 9.3601 0.11783 9.32239C0.108041 9.24589 0.092089 9.17157 0.0525705 9.10413C-0.00652599 8.7927 0.0282793 8.47583 0 8.16258C0 8.13829 0 8.114 0 8.09007C0.0203031 7.72787 0.0203031 7.36532 0 7.00313V6.93062C0.0203031 6.56806 0.0203031 6.20587 0 5.84368V5.77116C0.0203031 5.40861 0.0203031 5.04605 0 4.68386V4.61135C0.0203031 4.24879 0.0203031 3.8866 0 3.52441C0 3.50012 0 3.47583 0 3.4519C0.006526 3.10457 0.013052 2.7576 0.019578 2.41028C0.0406062 2.37293 0.0471322 2.33378 0.0355304 2.29208C0.0772243 2.16011 0.118918 2.02851 0.160612 1.89654C0.165688 1.88493 0.170401 1.87297 0.175477 1.86137C0.219346 1.80626 0.256689 1.74753 0.270829 1.67719C0.317236 1.64021 0.342252 1.58981 0.361468 1.53543C0.369806 1.52963 0.375607 1.52165 0.37887 1.5115C0.414038 1.4912 0.44123 1.46473 0.447393 1.42195C0.499239 1.3886 0.538757 1.34473 0.562323 1.28708C0.630846 1.24792 0.691755 1.20043 0.731637 1.13046C0.781307 1.11668 0.8172 1.08369 0.84983 1.04634C0.859981 1.03837 0.870133 1.03039 0.880284 1.02278L0.883547 1.02096C0.944819 1.0003 1.00283 0.97492 1.04198 0.919812C1.0931 0.90821 1.14169 0.891895 1.18012 0.853827L1.19571 0.855277L1.20441 0.8415C1.21927 0.837512 1.23414 0.833523 1.24864 0.829535C1.26822 0.834611 1.28091 0.828085 1.28526 0.807782C1.30882 0.801619 1.33239 0.795818 1.35559 0.789654C1.41542 0.769714 1.47524 0.749411 1.53506 0.72947C1.56261 0.721494 1.59053 0.713518 1.61808 0.705541C1.63947 0.703004 1.6605 0.700828 1.68189 0.69829C1.73084 0.693215 1.77978 0.688501 1.82873 0.683426C1.89073 0.69394 1.95164 0.696115 2.01037 0.668198C2.19092 0.685601 2.37111 0.687414 2.5513 0.666748C2.57559 0.666748 2.59952 0.666748 2.62381 0.666748C2.98637 0.687414 3.34856 0.687414 3.71112 0.666748C3.73541 0.666748 3.75934 0.666748 3.78363 0.666748C4.14618 0.687414 4.50838 0.687414 4.87093 0.666748C4.89522 0.666748 4.91915 0.666748 4.94344 0.666748C5.306 0.687414 5.66819 0.687414 6.03074 0.666748C6.05504 0.666748 6.07896 0.666748 6.10326 0.666748C6.46581 0.687414 6.828 0.687414 7.19056 0.666748C7.28664 0.685238 7.38271 0.696115 7.4806 0.6827C7.66152 0.724394 7.84207 0.766088 8.02299 0.807782C8.03495 0.815033 8.04655 0.821922 8.05852 0.829173C8.13429 0.862165 8.2097 0.895158 8.28548 0.92815C8.31774 0.979271 8.36814 1.00175 8.42288 1.01806C8.46857 1.06266 8.51243 1.11015 8.57552 1.13118C8.59474 1.17541 8.62881 1.20224 8.67341 1.21747C8.69553 1.26206 8.72852 1.29651 8.77311 1.31898C8.78689 1.36503 8.81662 1.39693 8.8594 1.4176C8.88986 1.49156 8.93989 1.55175 8.99608 1.60685C9.01458 1.6732 9.04285 1.73375 9.09542 1.78088C9.11609 1.83091 9.13639 1.88095 9.15706 1.93098C9.16504 1.94621 9.17301 1.96107 9.18099 1.9763C9.31404 2.37293 9.29809 2.78407 9.29773 3.19376C9.29664 4.45473 9.30752 5.71569 9.29374 6.9763C9.2854 7.73404 9.36589 8.49613 9.21978 9.24988C9.1886 9.26583 9.1886 9.29375 9.19223 9.32312C9.18933 9.33472 9.18643 9.34596 9.18353 9.35756C9.17664 9.36953 9.17011 9.38113 9.16322 9.39309C9.00007 9.77196 8.74955 10.0812 8.41926 10.327L8.41781 10.3263ZM8.80502 8.37359C8.76224 8.3725 8.74665 8.4102 8.72308 8.43341C8.31883 8.83802 7.82866 9.03561 7.25981 9.03634C5.52208 9.03815 3.78399 9.03706 2.04626 9.03634C1.74099 9.03634 1.44805 8.97724 1.16997 8.84817C0.918352 8.73143 0.708071 8.55631 0.502139 8.35763C0.372707 9.41267 1.04778 10.1835 2.08651 10.1885C2.42441 10.19 2.76231 10.1889 3.10021 10.1885C4.48191 10.1885 5.86397 10.1922 7.24567 10.1867C8.26336 10.1827 8.96092 9.36662 8.80502 8.37359ZM2.33087 4.81039C2.33087 5.14829 2.33268 5.4862 2.32978 5.82373C2.32906 5.90857 2.34138 5.9586 2.44544 5.95607C2.72895 5.94954 3.01283 5.96223 3.29563 5.94773C3.63969 5.92996 3.93046 5.79147 4.10123 5.47822C4.27561 5.15808 4.30353 4.80785 4.21761 4.45908C4.09434 3.9602 3.8304 3.72961 3.32318 3.6843C3.02987 3.65819 2.73258 3.67632 2.4371 3.67052C2.32615 3.66834 2.32978 3.73832 2.33014 3.81482C2.33087 4.14655 2.33051 4.47865 2.33087 4.81039ZM5.59858 5.18963C5.76173 5.18963 5.92452 5.18781 6.08767 5.19071C6.15728 5.1918 6.19426 5.1802 6.2026 5.09536C6.24538 4.65522 5.98796 4.27961 5.58299 4.20384C5.12291 4.11755 4.75382 4.35212 4.63636 4.8035C4.59466 4.96448 4.59648 5.12835 4.61787 5.28933C4.65884 5.59786 4.80494 5.84549 5.11638 5.93794C5.45102 6.03728 5.77551 6.01045 6.0409 5.7476C6.08622 5.70264 6.11558 5.63919 6.14567 5.58082C6.17903 5.51592 6.16054 5.47786 6.08114 5.48076C5.95823 5.48547 5.84657 5.47097 5.73454 5.57683C5.48836 5.80959 5.07142 5.65986 5.0116 5.33719C4.99275 5.23603 4.99855 5.17802 5.12834 5.18709C5.28461 5.19796 5.44195 5.18963 5.59858 5.18963ZM7.00783 4.75746C7.00783 4.44421 7.00783 4.13096 7.00783 3.81772C7.00783 3.54471 7.00783 3.5487 6.73809 3.55595C6.646 3.55849 6.61265 3.58278 6.61337 3.67922C6.617 4.39635 6.61808 5.11313 6.61373 5.83026C6.61265 6.03329 6.75803 5.93758 6.84396 5.95208C6.93387 5.96731 7.01617 5.97311 7.01109 5.8241C6.99877 5.46916 7.00747 5.11276 7.00783 4.75746Z" fill="#060607"/>
<path d="M3.07338 5.6004C2.84545 5.6004 2.73161 5.49792 2.73185 5.29295C2.73185 4.9188 2.73584 4.54464 2.72968 4.17085C2.7275 4.0512 2.76702 4.00371 2.88558 4.01821C2.93307 4.02401 2.98202 4.02038 3.03024 4.01893C3.32246 4.01132 3.59836 4.06425 3.7394 4.35031C3.89747 4.67081 3.89674 5.00944 3.7122 5.3216C3.56211 5.57538 3.30433 5.61925 3.07338 5.6004Z" fill="#060607"/>
<path d="M5.39881 4.9217C5.30237 4.9217 5.20557 4.91807 5.10949 4.92278C5.0145 4.9275 4.99674 4.8858 5.01559 4.80205C5.05475 4.62803 5.22116 4.50077 5.41549 4.50186C5.61163 4.50295 5.7465 4.61425 5.79327 4.79915C5.81502 4.88508 5.80125 4.92496 5.7059 4.92206C5.60365 4.91916 5.50141 4.9217 5.39881 4.9217Z" fill="#060607"/>
</svg>
