<svg width="24" height="30" viewBox="0 0 24 30" fill="none" xmlns="http://www.w3.org/2000/svg">
<path d="M0.0115067 15.0019C0.0115067 10.237 0.0191367 5.47205 6.16496e-05 0.708375C-0.00248169 0.188263 0.0712752 -0.00375939 0.668959 5.56171e-05C5.32708 0.0305757 9.9852 0.021674 14.6433 0.010229C15.049 0.010229 15.3504 0.105604 15.6454 0.404446C18.1188 2.902 20.6049 5.38557 23.0974 7.86405C23.3428 8.10822 23.4293 8.35746 23.4293 8.69827C23.4204 15.6022 23.4178 22.5048 23.4344 29.4087C23.4344 29.8894 23.311 29.9987 22.8392 29.9974C15.4292 29.9809 8.01793 29.9796 0.607919 30C0.0801768 30.0013 6.16497e-05 29.8296 0.00133332 29.3616C0.0165933 24.5763 0.0115067 19.7898 0.0115067 15.0045V15.0019ZM1.30352 14.9778C1.30352 19.3409 1.30988 23.7027 1.29335 28.0658C1.29208 28.5172 1.36838 28.6749 1.86941 28.6736C8.43377 28.6546 14.9981 28.6546 21.5625 28.6736C22.0597 28.6749 22.1411 28.5236 22.1398 28.0696C22.1246 21.9491 22.1246 15.8285 22.1398 9.70797C22.1398 9.27815 22.0584 9.13827 21.5968 9.14335C19.3739 9.17006 17.1498 9.14081 14.9269 9.16624C14.4462 9.17133 14.2822 9.0696 14.2885 8.55076C14.3203 6.36984 14.286 4.18766 14.314 2.00675C14.3203 1.50062 14.2249 1.32641 13.6718 1.33022C9.75503 1.35693 5.83702 1.35311 1.91901 1.33276C1.42942 1.33022 1.28699 1.44594 1.28953 1.95207C1.31115 6.29354 1.30225 10.635 1.30225 14.9765L1.30352 14.9778ZM15.6403 2.48871C15.6403 4.14824 15.6441 5.83574 15.6365 7.52452C15.6365 7.77504 15.7319 7.85261 15.9748 7.85134C17.6572 7.84498 19.3409 7.84752 20.9902 7.84752C19.2048 6.05956 17.4334 4.28558 15.6403 2.48871Z" fill="#121313"/>
<path d="M12.5756 23.1266C11.721 24.4148 10.6363 25.2427 9.08359 25.3139C9.06197 25.3139 9.03781 25.3228 9.02001 25.3164C8.22776 24.9972 7.69366 25.3737 7.18117 25.937C6.92303 26.2206 6.54661 26.1799 6.28338 25.8861C6.0176 25.5898 6.02268 25.2198 6.34315 24.9934C6.92938 24.5789 6.89886 24.2355 6.5695 23.5933C5.83702 22.1627 6.02777 20.7194 7.01586 19.4299C7.58684 18.6847 8.47446 18.438 9.27816 18.7406C10.0361 19.0255 10.4519 19.7783 10.3998 20.7486C10.3375 21.8982 9.88983 22.9079 9.18278 23.929C10.1009 23.8515 10.7126 23.4496 11.1857 22.824C11.4654 22.4539 11.688 22.0432 11.9576 21.6655C12.4713 20.9444 13.1059 20.9966 13.5154 21.7812C13.7722 22.2738 14.1194 22.3543 14.5569 22.0228C15.0986 21.6108 15.6594 21.2446 16.3664 21.1797C16.7975 21.1403 17.1523 21.2433 17.2337 21.7074C17.3138 22.1703 17.0302 22.4285 16.5966 22.4781C16.0371 22.5417 15.6352 22.8875 15.2067 23.1864C15.0159 23.3199 14.8442 23.4776 14.6573 23.6162C13.5993 24.4008 13.1898 24.3144 12.5769 23.1292L12.5756 23.1266ZM7.95053 23.3161C8.55966 22.4984 9.0518 21.6973 9.06197 20.6926C9.06452 20.4281 9.14082 20.0962 8.81145 19.9742C8.46938 19.847 8.20868 20.039 7.98996 20.3022C7.36302 21.0602 7.32487 22.3395 7.95053 23.3161Z" fill="#121313"/>
<path d="M12.0644 10.4303C14.3699 10.4303 16.6755 10.4506 18.9797 10.415C19.5113 10.4074 19.5685 10.6223 19.5342 11.0407C19.5049 11.3993 19.6512 11.7643 19.0026 11.7604C14.3508 11.7312 9.69781 11.7325 5.04477 11.7579C4.34662 11.7617 4.62003 11.3166 4.56917 11.0025C4.50431 10.6007 4.59842 10.4125 5.08546 10.4176C7.41135 10.4455 9.73723 10.4303 12.0644 10.4303Z" fill="#050605"/>
<path d="M11.9728 14.361C9.68636 14.361 7.39863 14.3318 5.11217 14.3801C4.47888 14.3928 4.57044 14.0698 4.56281 13.6858C4.55391 13.2992 4.53483 13.0423 5.09691 13.0448C9.73469 13.0728 14.3712 13.0728 19.009 13.0448C19.5876 13.041 19.5393 13.3322 19.5316 13.7023C19.524 14.0545 19.6219 14.3839 19.023 14.375C16.6729 14.3381 14.3229 14.3597 11.9716 14.3597L11.9728 14.361Z" fill="#050605"/>
<path d="M12.0974 15.6416C14.3852 15.6416 16.6716 15.667 18.9581 15.6238C19.5469 15.6123 19.5291 15.8832 19.538 16.2965C19.5469 16.7314 19.5113 16.9628 18.9479 16.959C14.3318 16.9323 9.71434 16.9272 5.09818 16.9628C4.44073 16.9679 4.58951 16.6144 4.56408 16.2558C4.53483 15.8489 4.56408 15.6174 5.10963 15.6263C7.43805 15.6632 9.76902 15.6416 12.0974 15.6416Z" fill="#050605"/>
<path d="M8.79238 5.2228C10.0412 5.2228 11.2899 5.25713 12.5374 5.20754C13.1148 5.18465 13.0283 5.5191 13.0054 5.84083C12.9838 6.14603 13.2114 6.57331 12.5578 6.56568C10.0399 6.53898 7.52198 6.54279 5.00408 6.56187C4.28686 6.56695 4.63148 6.06464 4.57298 5.7658C4.50558 5.41864 4.56154 5.19101 5.04731 5.20754C6.29482 5.2495 7.5436 5.22153 8.79238 5.22153V5.2228Z" fill="#121313"/>
<path d="M8.75296 9.15225C7.50672 9.15225 6.25921 9.11919 5.01552 9.16751C4.47252 9.18786 4.5361 8.87885 4.57807 8.57746C4.61749 8.29515 4.31356 7.83354 4.99263 7.83989C7.52707 7.86406 10.0615 7.86151 12.5959 7.84116C13.2763 7.83608 12.9533 8.30914 13.0003 8.58763C13.0525 8.89919 13.0817 9.18659 12.5552 9.16751C11.2899 9.12173 10.0208 9.15225 8.75423 9.15225H8.75296Z" fill="#050605"/>
<path d="M7.95053 23.3174C7.32615 22.3407 7.36302 21.0614 7.98996 20.3035C8.20741 20.0403 8.46938 19.8483 8.81145 19.9754C9.13954 20.0975 9.06452 20.4294 9.06197 20.6939C9.05307 21.6973 8.55966 22.4984 7.95053 23.3174Z" fill="#FBFBFB"/>
</svg>
