<svg width="11" height="11" viewBox="0 0 11 11" fill="none" xmlns="http://www.w3.org/2000/svg">
<g clip-path="url(#clip0_707_2182)">
<path d="M0.0781614 10.6664C-0.0413922 10.6732 0.00825629 10.6001 0.0233494 10.5512C0.0956376 10.3181 0.170706 10.0857 0.244186 9.85299C0.762516 8.21141 1.28045 6.56983 1.79878 4.92865C1.81864 4.86589 1.84644 4.8083 1.89609 4.75905C3.23859 3.41973 4.58148 2.08042 5.91921 0.735934C6.02764 0.627105 6.07768 0.659277 6.16665 0.748247C7.4174 2.00376 8.66973 3.25768 9.92723 4.50644C10.0404 4.61884 10.0166 4.67326 9.91809 4.77136C8.58751 6.09638 7.26051 7.42498 5.93311 8.75357C5.75795 8.92873 5.51447 8.94144 5.29959 9.01055C3.58533 9.55986 1.8667 10.0973 0.149655 10.6382C0.124632 10.6462 0.100404 10.6573 0.0781614 10.6664ZM2.7707 5.5578C2.68888 5.57765 2.69205 5.64637 2.67537 5.69919C2.45771 6.38355 2.2758 7.08181 2.01286 7.74829C1.84922 8.16375 1.92588 8.43185 2.26071 8.68525C2.36596 8.76509 2.44302 8.80163 2.57449 8.75913C3.32636 8.51526 4.08182 8.28171 4.83488 8.04101C4.9322 8.01003 5.08948 8.01162 5.10378 7.91431C5.11848 7.81581 4.99376 7.72883 4.90717 7.65932C4.60571 7.41703 4.25102 7.30264 3.87488 7.24267C3.47293 7.17832 3.48087 7.17594 3.41216 6.77478C3.33947 6.3486 3.22746 5.93512 2.87794 5.63684C2.84338 5.60705 2.80446 5.58242 2.7707 5.5578Z" fill="#070808"/>
<path d="M2.7707 5.5578C2.80446 5.58242 2.84338 5.60705 2.87794 5.63684C3.22746 5.93512 3.33947 6.3486 3.41216 6.77478C3.48087 7.17594 3.47293 7.17832 3.87488 7.24267C4.25102 7.30264 4.60571 7.41703 4.90717 7.65932C4.99376 7.72883 5.11848 7.81581 5.10378 7.91431C5.08948 8.01162 4.9322 8.01003 4.83488 8.04101C4.08182 8.28171 3.32636 8.51526 2.57449 8.75913C2.44302 8.80163 2.36596 8.76509 2.26071 8.68525C1.92588 8.43185 1.84922 8.16375 2.01286 7.74829C2.2758 7.08181 2.45771 6.38355 2.67537 5.69919C2.69205 5.64637 2.68888 5.57765 2.7707 5.5578Z" fill="#FBFBFB"/>
</g>
<defs>
<clipPath id="clip0_707_2182">
<rect width="10.0024" height="10" fill="white" transform="translate(0 0.666748)"/>
</clipPath>
</defs>
</svg>
