<svg width="22" height="22" viewBox="0 0 22 22" fill="none" xmlns="http://www.w3.org/2000/svg">
<g clip-path="url(#clip0_781_855)">
<path d="M10.9611 22C4.91521 21.9955 -0.000747248 17.0751 8.5197e-08 11.0276C0.000747419 4.91671 4.89578 0 10.9798 0C17.084 0 22.0067 4.94062 21.9873 11.0478C21.9679 17.1109 17.0422 22.0037 10.9611 22ZM11.7272 13.0455C11.8348 13.2121 11.9065 13.3421 11.9969 13.458C12.2114 13.7337 12.4842 13.9168 12.8414 13.9482C14.002 14.0521 14.8966 13.5417 15.4235 12.4977C15.9122 11.5284 15.91 10.5023 15.7717 9.47021C15.5528 7.84177 14.8249 6.54664 13.2435 5.86956C12.4722 5.53998 11.6532 5.46973 10.8266 5.53326C9.08533 5.66703 7.76405 6.48685 6.91657 8.02188C6.08404 9.52925 5.98988 11.1554 6.27386 12.8078C6.4592 13.8862 6.93675 14.8488 7.82981 15.5296C9.22957 16.596 10.8005 16.6865 12.4386 16.241C13.0455 16.0759 13.0484 16.0251 12.8952 15.407C12.8399 15.1851 12.7742 15.1148 12.5432 15.2082C12.1741 15.357 11.784 15.4459 11.3871 15.4892C9.61818 15.6805 8.06746 14.9624 7.50622 13.0484C7.19906 12.0014 7.23195 10.9387 7.44793 9.87227C7.61533 9.04871 7.93369 8.30138 8.49494 7.67885C9.53896 6.52123 10.8715 6.31497 12.3205 6.61016C13.3279 6.81568 14.0402 7.41205 14.4318 8.37238C14.8742 9.4575 14.916 10.5755 14.6477 11.7017C14.5439 12.1382 14.3331 12.55 13.9288 12.7996C13.674 12.9573 13.3862 13.0866 13.0858 12.9244C12.8003 12.7697 12.8526 12.4745 12.8706 12.2211C12.9356 11.3281 13.0215 10.4365 13.0925 9.54419C13.1605 8.69522 13.1284 8.65113 12.3258 8.35668C12.2443 8.32679 12.1621 8.29391 12.0777 8.27597C11.1838 8.08988 10.3139 8.0996 9.67274 8.85889C8.69149 10.0202 8.40825 11.3796 8.77444 12.8407C8.97921 13.6575 9.70039 14.0648 10.5292 13.9318C11.0501 13.8481 11.4335 13.5409 11.7272 13.0447V13.0455Z" fill="#333333"/>
<path d="M9.93954 11.713C9.96569 11.1645 10.0501 10.5636 10.2714 9.9904C10.5187 9.34918 10.9903 9.0794 11.645 9.17057C11.8437 9.19822 11.9327 9.27968 11.9132 9.4852C11.831 10.3626 11.766 11.2422 11.6696 12.1181C11.6195 12.5739 11.0979 12.982 10.6338 12.9775C10.3707 12.9752 10.1884 12.8527 10.077 12.6143C9.95149 12.3467 9.94552 12.0613 9.94028 11.713H9.93954Z" fill="#333333"/>
</g>
<defs>
<clipPath id="clip0_781_855">
<rect width="21.9873" height="22" fill="white"/>
</clipPath>
</defs>
</svg>
