<svg width="23" height="24" viewBox="0 0 23 24" fill="none" xmlns="http://www.w3.org/2000/svg">
<path d="M18.2083 9.77461V4.95867C18.2083 3.90162 17.3487 3.04199 16.2916 3.04199H1.91664C0.85958 3.04199 0 3.90157 0 4.95867V14.542C0 15.599 0.85958 16.4587 1.91668 16.4587H12.6627C13.2905 18.6676 15.3216 20.292 17.7292 20.292C18.6557 20.292 19.5668 20.0482 20.3651 19.5864C20.5939 19.4539 20.6725 19.161 20.5396 18.9317C20.4072 18.7024 20.1138 18.6233 19.8849 18.7572C19.2326 19.1344 18.4872 19.3337 17.7291 19.3337C15.3511 19.3337 13.4166 17.3992 13.4166 15.0212C13.4166 12.6431 15.3511 10.7087 17.7291 10.7087C20.1072 10.7087 22.0416 12.6431 22.0416 15.0212V15.5004C22.0416 16.0286 21.6116 16.4587 21.0833 16.4587C20.555 16.4587 20.125 16.0286 20.125 15.5004V13.5837C20.125 13.3188 19.9107 13.1045 19.6458 13.1045C19.5169 13.1045 19.4011 13.1566 19.3151 13.2393C18.8916 12.8619 18.3397 12.6253 17.7291 12.6253C16.4082 12.6253 15.3333 13.7002 15.3333 15.0211C15.3333 16.3421 16.4082 17.417 17.7292 17.417C18.4433 17.417 19.0782 17.0967 19.5175 16.5993C19.8646 17.0924 20.4357 17.417 21.0834 17.417C22.1404 17.417 23 16.5574 23 15.5003V15.0211C23 12.2765 20.8906 10.0178 18.2083 9.77461ZM1.91668 4.00031H16.2917C16.3116 4.00031 16.3283 4.01051 16.348 4.01172L9.49819 9.63428C9.2544 9.78778 8.90109 9.75593 8.74247 9.65863L1.86093 4.01163C1.88038 4.01046 1.89692 4.00031 1.91668 4.00031ZM17.25 9.77461C14.5677 10.0178 12.4583 12.2765 12.4583 15.0212C12.4583 15.1829 12.4682 15.3423 12.4826 15.5004H1.91668C1.3884 15.5004 0.958363 15.0703 0.958363 14.542V4.95867C0.958363 4.82296 0.988326 4.6948 1.03945 4.57774L8.17677 10.4307C8.45564 10.6128 8.77621 10.7087 9.10423 10.7087C9.41962 10.7087 9.72797 10.6198 9.99938 10.4514C10.0265 10.4369 10.0523 10.4196 10.0766 10.3994L17.1689 4.57765C17.22 4.6948 17.25 4.82296 17.25 4.95872V9.77461H17.25ZM17.7292 16.4587C16.9365 16.4587 16.2917 15.8139 16.2917 15.0212C16.2917 14.2285 16.9365 13.5837 17.7292 13.5837C18.5219 13.5837 19.1667 14.2285 19.1667 15.0212C19.1667 15.8139 18.5219 16.4587 17.7292 16.4587Z" fill="black"/>
</svg>
