<svg width="24" height="24" viewBox="0 0 24 24" fill="none" xmlns="http://www.w3.org/2000/svg">
<path d="M24 12.0313C23.9917 18.6789 18.6282 24.0158 11.9708 24C5.32262 23.9841 -0.0166358 18.6197 3.89507e-05 11.9721C0.0167137 5.32946 5.38848 -0.0158064 12.0317 3.51207e-05C18.6782 0.0158767 24.0083 5.37365 24 12.0313ZM22.7494 12.0121C22.7536 6.04984 18.0029 1.26652 12.0609 1.25068C6.02212 1.23484 1.25398 5.98313 1.25231 12.0138C1.25064 17.976 6.00795 22.7026 11.9617 22.761C17.6669 22.8169 22.8219 18.1244 22.7502 12.0121H22.7494Z" fill="#8DC63F"/>
<path d="M11.9875 20.2673C7.49701 20.3382 3.69184 16.5228 3.72018 11.9446C3.74853 7.46732 7.49368 3.69453 12.0601 3.72038C16.5497 3.74622 20.3157 7.51484 20.2832 12.0597C20.2515 16.537 16.5172 20.3473 11.9867 20.2673H11.9875ZM15.3933 9.20071C15.3592 8.94808 15.2349 8.75965 14.9931 8.66294C14.7305 8.55788 14.5071 8.62958 14.3128 8.82385C13.6358 9.50004 12.9472 10.1645 12.2877 10.8582C12.0534 11.105 11.9208 11.07 11.7074 10.8466C11.0746 10.1854 10.4218 9.54339 9.77395 8.89556C9.4046 8.5262 9.08445 8.48784 8.80098 8.77049C8.51834 9.0523 8.55002 9.39748 8.90019 9.751C9.56301 10.4213 10.2225 11.0959 10.8978 11.7545C11.0921 11.9438 11.0921 12.058 10.8962 12.2465C10.2067 12.9101 9.53467 13.5922 8.85517 14.2658C8.64507 14.4743 8.5075 14.7002 8.6409 15.0062C8.83016 15.4406 9.32206 15.5157 9.69975 15.1488C10.3859 14.4818 11.0679 13.8106 11.7357 13.1252C11.9317 12.9243 12.045 12.8935 12.2568 13.1152C12.898 13.7873 13.5633 14.4368 14.2228 15.0904C14.5863 15.4506 14.9173 15.4848 15.1999 15.2047C15.485 14.922 15.4525 14.5877 15.0949 14.2275C14.4404 13.568 13.7909 12.9026 13.1206 12.2606C12.9071 12.0564 12.9096 11.9421 13.1206 11.7404C13.8001 11.0867 14.4562 10.4088 15.1265 9.746C15.2824 9.59175 15.38 9.41999 15.3917 9.20071H15.3933Z" fill="#5B6871"/>
</svg>
