<svg width="16" height="16" viewBox="0 0 16 16" fill="none" xmlns="http://www.w3.org/2000/svg">
<path d="M14.3334 7.33331V11.3333C14.3334 14 13.6667 14.6666 11.0001 14.6666H4.33341C1.66674 14.6666 1.00008 14 1.00008 11.3333V4.66665C1.00008 1.99998 1.66674 1.33331 4.33341 1.33331H5.33341C6.33341 1.33331 6.55341 1.62665 6.93341 2.13331L7.93341 3.46665C8.18674 3.79998 8.33341 3.99998 9.00008 3.99998H11.0001C13.6667 3.99998 14.3334 4.66665 14.3334 7.33331Z" stroke="#787486" stroke-miterlimit="10"/>
<path d="M5.33333 1.33331H11.3333C12.6667 1.33331 13.3333 1.99998 13.3333 3.33331V4.25331" stroke="#787486" stroke-miterlimit="10" stroke-linecap="round" stroke-linejoin="round"/>
<path d="M9.33333 10H6" stroke="#787486" stroke-miterlimit="10" stroke-linecap="round" stroke-linejoin="round"/>
</svg>
