<svg width="24" height="24" viewBox="0 0 24 24" fill="none" xmlns="http://www.w3.org/2000/svg">
<path d="M21.5001 11V17C21.5001 21 20.5001 22 16.5001 22H6.50012C2.50012 22 1.50012 21 1.50012 17V7C1.50012 3 2.50012 2 6.50012 2H8.00012C9.50012 2 9.83012 2.44 10.4001 3.2L11.9001 5.2C12.2801 5.7 12.5001 6 13.5001 6H16.5001C20.5001 6 21.5001 7 21.5001 11Z" stroke="#1458DD" stroke-miterlimit="10"/>
<path d="M8 2H17C19 2 20 3 20 5V6.38" stroke="#1458DD" stroke-miterlimit="10" stroke-linecap="round" stroke-linejoin="round"/>
<path d="M14 15H9" stroke="#1458DD" stroke-miterlimit="10" stroke-linecap="round" stroke-linejoin="round"/>
</svg>
