<svg width="23" height="24" viewBox="0 0 23 24" fill="none" xmlns="http://www.w3.org/2000/svg">
<path d="M8.71013 5.69514C8.6174 5.31138 8.85422 4.92619 9.23656 4.83488C13.7847 3.74066 18.3427 5.8963 22.791 11.2347C23.0107 11.4987 23.0121 11.8824 22.7924 12.1464C21.7224 13.4403 20.5783 14.6045 19.3927 15.6031C19.2586 15.7158 19.096 15.7714 18.9334 15.7714C18.7308 15.7714 18.5296 15.6844 18.3884 15.5175C18.133 15.2165 18.173 14.7671 18.474 14.5117C19.4541 13.6857 20.4056 12.7384 21.3087 11.6913C17.3655 7.13747 13.4209 5.30139 9.57039 6.22157C9.17093 6.31287 8.80143 6.07748 8.71013 5.69514ZM11.3223 8.05764C11.2695 8.44854 11.542 8.80805 11.9315 8.86084C13.1997 9.03203 14.2027 10.0364 14.3753 11.3018C14.4224 11.6599 14.7291 11.9195 15.08 11.9195C15.1114 11.9195 15.1442 11.9181 15.177 11.9138C15.5665 11.861 15.8404 11.5015 15.7876 11.1106C15.5308 9.20893 14.0243 7.70241 12.1226 7.44562C11.7374 7.39426 11.3736 7.66675 11.3223 8.05764ZM22.7482 21.886C23.0264 22.1642 23.0264 22.6164 22.7482 22.8946C22.6084 23.0344 22.4258 23.1043 22.2431 23.1043C22.0605 23.1043 21.8779 23.0344 21.7381 22.896L16.4068 17.5647C14.7861 18.3936 13.1612 18.8301 11.5391 18.8301C7.76998 18.8301 4.00795 16.5989 0.295862 12.1492C0.0761609 11.8853 0.0747342 11.5001 0.294435 11.2362C1.98214 9.20608 3.69695 7.65819 5.40463 6.56111L0.340088 1.49657C0.0618946 1.21838 0.0618946 0.766135 0.340088 0.487942C0.61828 0.209749 1.07052 0.209749 1.34872 0.487942L22.7482 21.886ZM8.69016 11.6913C8.69016 13.2648 9.96984 14.5445 11.5434 14.5445C12.0556 14.5445 12.552 14.3962 12.9857 14.1422L9.09104 10.2475C8.83567 10.6812 8.69016 11.172 8.69016 11.6913ZM15.3525 16.509L14.0172 15.1737C13.2996 15.6816 12.4336 15.9712 11.5434 15.9712C9.18377 15.9712 7.26353 14.0509 7.26353 11.6913C7.26353 10.7882 7.54885 9.93509 8.05959 9.21607L6.43465 7.59113C4.89532 8.53128 3.33316 9.89086 1.77813 11.6913C6.38757 17.0169 10.8415 18.6004 15.3525 16.509Z" fill="black"/>
</svg>
