<svg width="18" height="18" viewBox="0 0 18 18" fill="none" xmlns="http://www.w3.org/2000/svg">
<g clip-path="url(#clip0_707_2082)">
<path d="M17.4188 0.507812C17.7751 0.89063 17.7909 1.33346 17.6292 1.7965C17.079 3.36884 16.5218 4.93927 15.9684 6.51097C15.5054 7.82556 15.0436 9.14079 14.5818 10.456C13.7972 12.6916 13.0196 14.9292 12.2236 17.161C12.0493 17.6499 11.6867 17.9519 11.1428 17.9942C10.542 18.0403 10.1055 17.7997 9.83954 17.2583C8.86923 15.2804 7.90145 13.3012 6.92988 11.324C6.86102 11.1837 6.76879 11.0549 6.6873 10.921C6.6633 10.9033 6.63992 10.8856 6.61592 10.8679L6.61402 10.8717C6.6753 10.8003 6.73152 10.7232 6.79848 10.6575C8.10802 9.36821 9.43209 8.09404 10.7492 6.81167C11.4144 6.16416 12.0922 5.52866 12.7423 4.86473C13.6443 3.94243 14.6008 3.07319 15.5287 2.17553C15.952 1.76618 16.3538 1.33346 16.7852 0.932323C16.9697 0.761129 17.1295 0.529922 17.4201 0.509076L17.4188 0.507812Z" fill="#269CD0"/>
<path d="M17.4188 0.507947C17.1282 0.528794 16.9678 0.76 16.784 0.931194C16.3531 1.33233 15.9514 1.76505 15.5275 2.1744C14.5995 3.07143 13.6431 3.9413 12.741 4.8636C12.091 5.52816 11.4131 6.16366 10.7479 6.81054C9.43146 8.09228 8.10676 9.36644 6.79722 10.6564C6.73026 10.7221 6.67404 10.7992 6.61276 10.8706C5.97031 10.6387 5.38977 10.2774 4.78143 9.97541C3.42893 9.3039 2.08844 8.60776 0.740368 7.92804C0.306382 7.70883 -0.0189497 7.19967 0.000633386 6.73284C0.0240067 6.18577 0.359446 5.70946 0.868605 5.53069C1.93493 5.15608 3.00505 4.79348 4.07202 4.42077C5.9741 3.75621 7.87239 3.07965 9.77764 2.4233C11.0234 1.99373 12.2571 1.53195 13.4877 1.05943C14.2198 0.77832 14.9514 0.492154 15.674 0.187669C16.4466 -0.137031 16.9968 -0.0466959 17.4188 0.507947Z" fill="#40ACD9"/>
</g>
<defs>
<clipPath id="clip0_707_2082">
<rect width="17.7277" height="18" fill="white"/>
</clipPath>
</defs>
</svg>
