<svg width="21" height="21" viewBox="0 0 21 21" fill="none" xmlns="http://www.w3.org/2000/svg">
<path d="M19 2L19.8415 2.31926L20.5272 0.511953L18.7027 1.15053L19 2ZM12.9294 18L12.107 18.3655L12.9951 20.3639L13.7709 18.3193L12.9294 18ZM9.72941 10.8L10.5518 10.4345C10.4646 10.2381 10.31 10.0795 10.1159 9.98722L9.72941 10.8ZM3 7.6L2.70268 6.75053L0.637736 7.47326L2.6135 8.41278L3 7.6ZM18.1585 1.68074L12.0879 17.6807L13.7709 18.3193L19.8415 2.31926L18.1585 1.68074ZM13.7518 17.6345L10.5518 10.4345L8.90698 11.1655L12.107 18.3655L13.7518 17.6345ZM10.1159 9.98722L3.3865 6.78722L2.6135 8.41278L9.34291 11.6128L10.1159 9.98722ZM3.29732 8.44947L19.2973 2.84947L18.7027 1.15053L2.70268 6.75053L3.29732 8.44947Z" fill="#222222"/>
</svg>
