<svg width="23" height="22" viewBox="0 0 23 22" fill="none" xmlns="http://www.w3.org/2000/svg">
<g clip-path="url(#clip0_931_833)">
<path d="M10.9461 22.0001C4.87347 21.9702 -0.0423218 16.9977 0.000274756 10.9273C0.0436186 4.86661 4.99678 -0.0297562 11.0545 0.000136144C17.1159 0.0307758 22.0317 4.98468 22.0018 11.0349C21.9719 17.1247 17.0262 22.0293 10.9468 22.0001H10.9461ZM16.0487 7.6025C16.0711 6.87985 15.8103 6.63324 15.2715 6.68256C14.9591 6.71096 14.664 6.8126 14.3777 6.93217C12.3622 7.77513 10.3475 8.61809 8.335 9.46778C7.12361 9.97969 5.91447 10.4968 4.71056 11.0259C4.48935 11.1231 4.25096 11.2531 4.27338 11.567C4.2958 11.8749 4.56782 11.9234 4.77557 11.9937C5.37491 12.1962 5.97874 12.392 6.59303 12.5415C7.0997 12.6655 7.61161 12.6199 8.06298 12.3173C9.56955 11.3069 11.0709 10.2898 12.5782 9.28021C12.7307 9.17857 12.9108 8.94392 13.0901 9.15316C13.2747 9.36764 13.0087 9.5029 12.8801 9.62995C11.8354 10.6612 10.7809 11.6828 9.7362 12.7133C9.26839 13.1752 9.31397 13.6011 9.85727 13.9718C10.1547 14.1743 10.4603 14.3656 10.76 14.5667C11.5544 15.0995 12.3361 15.6525 13.1447 16.1629C14.0243 16.7182 14.4457 16.5523 14.7476 15.5852C14.7768 15.4911 14.8029 15.3947 14.8239 15.2983C15.1318 13.9016 15.3246 12.4847 15.5465 11.073C15.7378 9.85713 15.8993 8.63678 16.0472 7.6025H16.0487Z" fill="#333333"/>
</g>
<defs>
<clipPath id="clip0_931_833">
<rect width="22.0015" height="22" fill="white"/>
</clipPath>
</defs>
</svg>
