<svg width="27" height="27" viewBox="0 0 27 27" fill="none" xmlns="http://www.w3.org/2000/svg">
<path d="M0.0012419 13.5034C0.0012419 10.3429 0.0012419 7.18359 0.0012419 4.02309C0.00239181 1.5492 1.54327 0 4.00638 0C10.3447 0 16.683 0 23.0213 0C25.4166 0 26.9885 1.55495 26.9908 3.94028C26.9965 8.8432 26.9862 13.7461 27 18.649C27.0011 19.2459 26.8218 19.706 26.394 20.1281C24.2828 22.2144 22.1865 24.3145 20.0982 26.4226C19.7084 26.8171 19.2795 27.0011 18.7229 27C13.7829 26.9896 8.84176 27 3.90174 26.9919C1.58467 26.9908 0.00584155 25.4071 0.00239181 23.0988C-0.00220783 19.9004 0.0012419 16.7019 0.0012419 13.5034ZM13.492 2.46929C10.2952 2.46929 7.09849 2.46584 3.90174 2.47159C2.95881 2.47274 2.47585 2.91208 2.4747 3.80687C2.46665 10.259 2.46665 16.7111 2.47355 23.1632C2.47355 24.0511 2.94041 24.5227 3.81665 24.5238C8.52553 24.533 13.2344 24.525 17.9433 24.5376C18.3021 24.5376 18.3998 24.426 18.3941 24.081C18.3757 23.0471 18.378 22.0131 18.3895 20.9792C18.4056 19.4219 19.4313 18.4052 20.9975 18.3903C21.9737 18.3811 22.9512 18.3638 23.9263 18.3995C24.392 18.4167 24.5403 18.2994 24.538 17.8095C24.5185 13.2332 24.5277 8.65803 24.5254 4.08174C24.5254 2.84767 24.1448 2.46814 22.9098 2.46814C19.7705 2.46699 16.6313 2.46814 13.492 2.46814V2.46929Z" fill="#1458DD"/>
<path d="M12.0164 15.9981C10.4826 15.9981 8.94875 16.0023 7.41493 15.9981C6.50026 15.9953 5.98786 15.4366 6.00022 14.4741C6.01258 13.5537 6.53396 13.0021 7.40482 13.0021C10.4725 12.9993 13.5401 12.9993 16.6077 13.0021C17.4606 13.0021 17.9955 13.5819 18 14.4966C18.0045 15.4183 17.4797 15.9939 16.6178 15.9967C15.084 16.0009 13.5502 15.9967 12.0164 15.9981Z" fill="#1458DD"/>
<path d="M10.0174 10.998C9.167 10.998 8.31665 11.0035 7.4663 10.9962C6.58727 10.9888 6.00125 10.5839 6 9.99918C6 9.41169 6.57605 9.00957 7.4638 9.00588C9.16451 8.99851 10.8652 8.99758 12.5659 9.00588C13.4375 9.0105 14.0123 9.42921 13.9998 10.0195C13.9873 10.5802 13.4038 10.986 12.5684 10.9943C11.7181 11.0035 10.8677 10.9962 10.0174 10.9962V10.998Z" fill="#2D4A17"/>
<path d="M18.5605 9.00562C18.9668 9.00562 19.3732 8.99183 19.7784 9.00746C20.4851 9.03505 20.9869 9.43967 20.9997 9.96936C21.0137 10.5174 20.5026 10.9662 19.783 10.9846C18.9331 11.0057 18.082 11.0048 17.232 10.9837C16.5206 10.9653 15.9885 10.5064 16.0002 9.97395C16.0118 9.45438 16.5265 9.03781 17.2262 9.0093C17.6698 8.99091 18.1146 9.00562 18.5593 9.00562H18.5605Z" fill="#2D4A17"/>
</svg>
