<svg width="14" height="14" viewBox="0 0 14 14" fill="none" xmlns="http://www.w3.org/2000/svg">
<path d="M11.1676 1C12.3229 1 13.2671 1.90421 13.3308 3.04365L13.3343 3.1666L13.3339 11.1691C13.3337 12.3657 12.3637 13.3358 11.1671 13.3358H3.1667C2.01134 13.3358 1.06717 12.4315 1.00343 11.2921L1 11.1692L1.0004 3.16661C1.00054 1.97006 1.97055 1 3.1671 1H11.1676ZM6.66667 5.66667L2 5.66733L2.00007 11.1691L2.00485 11.2763C2.05892 11.8704 2.55844 12.3358 3.16667 12.3358L6.66667 12.3353V5.66667ZM12.3333 9.66667L7.66667 9.66733V12.3353L11.1671 12.3358C11.8114 12.3358 12.3338 11.8134 12.3339 11.1691L12.3333 9.66667ZM11.1676 2L7.66667 1.99933V8.66733L12.3333 8.66667L12.3342 3.16665L12.3294 3.05949C12.2753 2.46537 11.7758 2 11.1676 2ZM6.66667 1.99933L3.16715 2L3.07149 2.00387C2.4719 2.05259 2.00047 2.5546 2.0004 3.16669L2 4.66733L6.66667 4.66667V1.99933Z" fill="#787486" stroke="#787486" stroke-width="0.3"/>
</svg>
