<svg width="12" height="12" viewBox="0 0 12 12" fill="none" xmlns="http://www.w3.org/2000/svg">
<path d="M11.5774 0.722229H0.422689C0.189009 0.722229 0 0.911336 0 1.14492V2.85501C0 3.08859 0.189009 3.27775 0.422689 3.27775H11.5774C11.811 3.27775 12 3.08859 12 2.85501V1.14492C12 0.911336 11.811 0.722229 11.5774 0.722229Z" fill="#787486"/>
<path d="M11.5774 4.72229H0.422689C0.189009 4.72229 0 4.91135 0 5.14493V6.85508C0 7.08871 0.189009 7.27776 0.422689 7.27776H11.5774C11.811 7.27776 12 7.08871 12 6.85508V5.14493C12 4.91135 11.811 4.72229 11.5774 4.72229Z" fill="#787486"/>
<path d="M5.5773 8.72229H0.422689C0.189009 8.72229 0 8.91137 0 9.14493V10.8551C0 11.0887 0.189009 11.2778 0.422689 11.2778H5.5773C5.81098 11.2778 5.99999 11.0887 5.99999 10.8551V9.14493C6.00001 8.91137 5.811 8.72229 5.5773 8.72229Z" fill="#787486"/>
</svg>
