<svg width="39" height="39" viewBox="0 0 39 39" fill="none" xmlns="http://www.w3.org/2000/svg">
<g clip-path="url(#clip0_1082_1494)">
<path d="M0 19.021V17.1032C0.3039 16.8841 0.206332 16.5274 0.267112 16.2395C2.02653 7.82463 7.07288 2.56716 15.3933 0.428659C15.91 0.294303 16.5002 0.404667 16.9432 0C17.6358 0 18.3284 0 19.021 0C19.0513 0.0383874 19.1073 0.0783743 19.1057 0.116762C19.0386 3.38449 19.0354 6.66021 18.354 9.87836C17.3959 14.3953 14.736 17.2599 10.1599 18.274C7.99578 18.7538 5.80449 18.9602 3.59882 19.0114C2.40081 19.0402 1.19961 19.2113 0 19.021Z" fill="#040505"/>
<path d="M0 20.2989C3.3541 20.2797 6.6986 20.3724 9.99992 21.0666C14.6448 22.0423 17.3847 24.8989 18.3524 29.4942C19.0034 32.5812 19.0338 35.7242 19.0977 38.8624C19.0977 38.9071 19.0481 38.9535 19.021 38.9999H16.9432C16.7721 38.6816 16.433 38.7632 16.1755 38.7184C8.40044 37.3812 2.16569 31.4424 0.454251 23.7649C0.326293 23.1939 0.415863 22.5541 0 22.0567V20.2989Z" fill="#040505"/>
<path d="M38.9999 19.021C37.7284 19.1729 36.4552 19.0434 35.1868 18.9938C33.0355 18.9106 30.8874 18.7187 28.7921 18.1828C24.2416 17.0184 21.764 13.973 20.9419 9.4545C20.3741 6.32752 20.2637 3.16856 20.2989 0H21.7368C21.772 0.180741 21.9192 0.147152 22.0439 0.164746C30.0685 1.26678 36.3912 6.91773 38.4289 14.7664C38.6305 15.5437 38.6033 16.3754 38.9999 17.1016V19.0194V19.021Z" fill="#040505"/>
<path d="M20.2992 39.0001C20.2912 35.7788 20.3984 32.5686 21.0622 29.3985C22.081 24.5329 25.1296 21.8154 29.9425 20.942C32.9383 20.3982 35.9645 20.2687 39.0003 20.2991V22.0569C38.6852 22.2296 38.7652 22.5671 38.7204 22.8246C37.3384 30.6685 31.4316 36.8456 23.6933 38.5555C23.0423 38.6994 22.3418 38.645 21.7372 38.9985H20.2992V39.0001Z" fill="#040505"/>
</g>
<defs>
<clipPath id="clip0_1082_1494">
<rect width="39" height="39" fill="white"/>
</clipPath>
</defs>
</svg>
