<svg width="71" height="66" viewBox="0 0 71 66" fill="none" xmlns="http://www.w3.org/2000/svg">
<path d="M39.6252 37.2633C39.7229 28.6476 46.6035 21.91 55.1788 22.0315C63.6991 22.1507 70.4582 29.0432 70.3796 37.5327C70.2986 46.1055 63.3083 52.898 54.6759 52.7955C46.3176 52.6954 39.5298 45.6908 39.6276 37.2633H39.6252ZM63.0056 31.0786C62.0165 31.0881 61.4135 30.5376 61.3396 29.7868C61.2848 29.2315 61.4302 28.7287 61.8735 28.4069C62.7601 27.761 62.4717 27.3678 61.6876 26.9149C60.4793 26.2166 59.228 25.6804 57.8767 25.3062C56.8137 25.0107 56.3323 25.0726 56.4252 26.3501C56.492 27.2724 55.9271 27.8421 54.9619 27.8373C54.0538 27.8325 53.6201 27.2724 53.5128 26.4168C53.489 26.2214 53.4818 26.0188 53.5009 25.8234C53.5509 25.2371 53.3174 25.0345 52.7311 25.1584C51.0079 25.5255 49.4063 26.1666 47.9334 27.1461C47.3591 27.5298 47.4329 27.8039 47.9001 28.2091C48.6794 28.8836 48.9916 29.7058 48.2814 30.5996C47.688 31.3455 46.8157 31.2502 45.829 30.304C45.2951 29.7916 45.0449 29.8893 44.6659 30.4613C43.8031 31.7698 43.2574 33.1926 42.8355 34.6917C42.5686 35.6355 42.7449 35.9954 43.7817 35.9215C44.5444 35.8667 45.1831 36.2051 45.4 37.0345C45.5692 37.6876 45.3237 38.2 44.8113 38.6028C44.4395 38.8983 43.9819 38.8816 43.5577 38.853C42.7878 38.7982 42.5805 39.0532 42.7735 39.8183C43.1525 41.3293 43.7054 42.7498 44.5015 44.0939C44.9972 44.9281 45.3666 45.052 46.0339 44.2655C46.6655 43.5219 47.5283 43.4314 48.2266 44.1368C48.9154 44.8352 48.7962 45.6455 48.1146 46.3533C48.0598 46.4105 48.0145 46.482 47.9525 46.5273C47.2971 47.0064 47.4615 47.3353 48.0812 47.7261C49.3325 48.5126 50.6528 49.1061 52.0804 49.4898C53.0481 49.7496 53.6725 49.7639 53.5223 48.4459C53.4461 47.7738 53.8298 47.2423 54.5329 47.0064C55.1859 46.7895 55.6936 47.0064 56.1345 47.4735C56.4634 47.8239 56.4896 48.2767 56.4467 48.7057C56.3537 49.6209 56.6969 49.7424 57.5406 49.5565C59.0731 49.2157 60.4578 48.5913 61.7925 47.7929C62.4932 47.3734 62.7339 47.0231 61.9641 46.4415C61.7257 46.2604 61.5017 45.9744 61.4159 45.6908C61.2062 44.9948 61.3039 44.3132 61.9903 43.9176C62.6886 43.5148 63.4155 43.6054 63.9208 44.2441C64.6263 45.1426 65.01 44.8781 65.4986 44.0296C66.2159 42.7831 66.726 41.4794 67.1335 40.1019C67.4433 39.0556 67.1764 38.7625 66.1444 38.8411C65.203 38.9126 64.5881 38.3883 64.5381 37.4683C64.4833 36.4625 65.1434 35.9811 66.1063 35.9001C66.3041 35.8834 66.5043 35.8834 66.7021 35.8953C67.2765 35.9311 67.3552 35.6498 67.2431 35.1541C66.8594 33.4357 66.2255 31.8341 65.2459 30.3588C64.8574 29.7725 64.581 29.8417 64.183 30.2826C63.8064 30.702 63.3941 31.0738 63.0104 31.0715L63.0056 31.0786Z" fill="#52B709"/>
<path d="M18.9832 64.357C16.2471 64.357 13.5111 64.3594 10.775 64.357C9.13052 64.3546 8.82307 64.1258 8.29874 62.548C6.71383 57.7766 8.85882 52.0376 13.2298 49.5732C14.0902 49.0894 14.3524 48.8439 13.728 47.8882C12.1097 45.4191 12.3909 42.3994 14.2618 40.2878C16.1899 38.1094 19.1381 37.516 21.8503 38.7553C24.3314 39.8898 25.8043 42.7021 25.3729 45.5478C25.2227 46.5392 24.8223 47.4568 24.2098 48.2481C23.8166 48.7557 23.8714 48.9774 24.4529 49.3039C27.904 51.2439 29.8345 54.2207 30.3016 58.146C30.497 59.7929 30.2087 61.3731 29.7058 62.9389C29.3745 63.9661 28.7215 64.3737 27.668 64.3641C24.7747 64.3379 21.8789 64.3546 18.9856 64.3546L18.9832 64.357ZM16.6857 51.3536C12.715 52.3212 9.97898 56.8638 10.856 60.6509C11.0348 61.4279 11.4876 61.3874 12.0644 61.4088C12.8866 61.4374 12.6555 60.8583 12.6817 60.4316C12.7055 60.036 12.6626 59.6356 12.7007 59.2424C12.7889 58.3343 13.2322 57.7575 14.2213 57.7766C15.1603 57.7957 15.5536 58.3748 15.6227 59.2257C15.6608 59.7 15.6656 60.179 15.6299 60.6533C15.587 61.2229 15.8014 61.4207 16.3734 61.4088C17.7224 61.3778 19.0714 61.3993 20.4227 61.3993C21.7335 61.3993 22.4223 60.759 22.4891 59.4783C22.4986 59.2805 22.501 59.0779 22.5534 58.8896C22.7751 58.0888 23.3065 57.7004 24.1431 57.7838C24.932 57.86 25.3467 58.3343 25.4158 59.1017C25.4515 59.495 25.392 59.9002 25.4444 60.291C25.5016 60.7176 25.1107 61.3707 26.0307 61.416C26.7647 61.4541 27.1508 61.3254 27.2962 60.4817C27.8635 57.1665 26.0354 53.3984 23.0348 51.8755C22.5772 51.6443 22.1173 51.4417 21.5977 51.7015C22.7067 54.5726 22.3294 56.898 20.4656 58.6775C20.4084 58.7323 20.3465 58.7824 20.2892 58.8372C19.4885 59.5999 18.671 59.607 17.8773 58.8467C17.1909 58.1889 16.5617 57.4668 15.8586 56.8281C15.1317 56.1679 15.0316 55.4481 15.4011 54.5782C15.8324 53.5629 16.2209 52.5309 16.688 51.3536H16.6857ZM19.0618 41.1267C17.1576 41.1315 15.6608 42.6211 15.6704 44.4991C15.6823 46.3438 17.2434 47.9097 19.0738 47.9097C20.947 47.9097 22.4342 46.3915 22.4366 44.4848C22.4366 42.5567 20.9971 41.1219 19.0618 41.1267ZM19.0499 53.7774C18.8164 54.3494 18.1061 54.8261 18.7306 55.5196C18.9641 55.7794 19.2239 55.7484 19.436 55.5148C20.0652 54.8189 19.3669 54.3446 19.0499 53.7774Z" fill="#52B709"/>
<path d="M18.9713 35.2065C16.1947 35.2065 13.4157 35.1469 10.6416 35.2327C9.31404 35.2733 8.71344 34.6774 8.32496 33.5168C6.67331 28.5857 8.74681 23.104 13.4586 20.3107C14.2714 19.8293 14.2642 19.591 13.778 18.8521C11.9381 16.0541 12.4624 12.6198 14.9578 10.4819C17.3196 8.45609 20.9304 8.47992 23.2565 10.5343C25.6994 12.696 26.1761 16.1614 24.3171 18.9284C23.8285 19.6577 23.9763 19.8722 24.665 20.2821C29.415 23.0992 31.479 28.5833 29.7868 33.5978C29.4031 34.7322 28.7953 35.2613 27.5417 35.2304C24.6865 35.1612 21.8289 35.2089 18.9737 35.2089L18.9713 35.2065ZM16.7166 22.1268C12.6531 23.3829 10.1577 27.4131 10.8298 31.2764C10.949 31.9628 11.1969 32.3013 11.9881 32.2655C12.8437 32.2274 12.6698 31.6935 12.6864 31.2025C12.7007 30.7664 12.6769 30.3255 12.7365 29.8965C12.8533 29.0766 13.3657 28.6119 14.1856 28.6095C15.0221 28.6095 15.4988 29.1171 15.6036 29.9251C15.6656 30.3946 15.668 30.8784 15.6299 31.3503C15.575 32.0248 15.8348 32.2655 16.5093 32.2464C17.9369 32.2107 19.3645 32.2417 20.7921 32.2345C22.7274 32.2226 22.4628 32.43 22.4843 30.6329C22.4867 30.3946 22.4771 30.1539 22.52 29.9203C22.6797 29.0647 23.1969 28.5499 24.0764 28.6119C24.8795 28.6691 25.3705 29.1624 25.4182 30.0037C25.442 30.4399 25.442 30.876 25.4277 31.3122C25.411 31.8222 25.4015 32.2488 26.1284 32.2512C26.7552 32.2512 27.1651 32.1821 27.2748 31.4337C27.5632 29.4341 27.2605 27.5608 26.2166 25.8305C25.0178 23.8476 23.3351 22.5773 21.6287 22.3032C21.5143 22.6464 21.7431 22.9157 21.8503 23.197C22.818 25.7646 22.2754 27.9469 20.2225 29.7439C20.1915 29.7702 20.1677 29.8011 20.1367 29.8274C19.4289 30.447 18.6996 30.4589 18.0156 29.8226C17.2338 29.0933 16.5021 28.3068 15.7323 27.5656C15.0984 26.9555 15.0579 26.2762 15.3772 25.504C15.811 24.4506 16.2185 23.3852 16.7166 22.1245V22.1268ZM22.4366 15.4249C22.4628 13.5087 21.0162 11.9929 19.1357 11.9643C17.2648 11.9357 15.7228 13.4206 15.6751 15.2986C15.6298 17.1433 17.1433 18.7139 19.007 18.7544C20.8898 18.795 22.4104 17.3173 22.4366 15.4249ZM19.0285 24.6317C18.8211 25.2275 18.1014 25.7257 18.7496 26.4144C18.9927 26.6742 19.243 26.6194 19.4479 26.3739C20.0414 25.6637 19.3788 25.187 19.0285 24.6317Z" fill="#52B709"/>
<path d="M46.9229 65.9943C44.225 65.9943 41.5271 66.0015 38.8291 65.992C37.013 65.9872 36.6436 65.6201 36.6412 63.8422C36.6365 60.4698 36.6198 57.0974 36.6555 53.725C36.6627 53.0147 36.503 52.7144 35.7403 52.7907C35.073 52.8574 34.3914 52.8241 33.7193 52.7907C32.8255 52.7478 32.3155 52.2068 32.2726 51.3583C32.2321 50.5456 32.735 49.9164 33.5215 49.8735C35.1397 49.7829 36.7771 49.7496 38.3882 49.8926C39.3511 49.976 39.6562 50.8316 39.6538 51.7659C39.6419 55.0978 39.6824 58.432 39.6276 61.7639C39.6133 62.703 39.7944 63.0628 40.8383 63.0485C44.9638 62.9842 49.0917 62.9961 53.2173 63.0414C54.0729 63.0509 54.2922 62.7864 54.2588 61.9689C54.1968 60.4626 54.2278 58.954 54.2469 57.4453C54.2588 56.3347 54.8451 55.6531 55.7508 55.7127C56.7803 55.7818 57.1903 56.4563 57.1974 57.4048C57.2141 59.6666 57.2213 61.9284 57.1974 64.1901C57.1831 65.4795 56.685 65.9753 55.3694 65.9872C52.5523 66.011 49.7352 65.9943 46.9181 65.9943H46.9229Z" fill="#52B709"/>
<path d="M46.8729 8.78022C49.6113 8.78022 52.3497 8.77307 55.0906 8.78022C56.7494 8.78498 57.2022 9.24496 57.207 10.9061C57.2141 12.9701 57.2189 15.0341 57.207 17.098C57.1998 18.3898 56.623 19.1072 55.665 19.069C54.7474 19.0333 54.254 18.3636 54.2493 17.1147C54.2421 15.5655 54.2302 14.0188 54.2564 12.4696C54.2659 11.9167 54.1086 11.7046 53.5223 11.7069C49.1561 11.7284 44.7898 11.7355 40.4236 11.7022C39.6204 11.695 39.649 12.1216 39.649 12.6722C39.6585 16.047 39.6585 19.4194 39.649 22.7942C39.6466 24.453 39.1723 24.932 37.5374 24.9487C36.4267 24.9582 35.3137 24.963 34.2031 24.9487C32.9685 24.932 32.2798 24.4101 32.2512 23.4996C32.2226 22.5749 32.8923 22.0387 34.1268 22.0029C35.8031 21.9521 36.6412 21.1044 36.6412 19.4599C36.6412 16.5618 36.6365 13.6636 36.6436 10.7655C36.6484 9.2831 37.1441 8.78737 38.6575 8.78022C41.396 8.76592 44.1344 8.77545 46.8752 8.77545L46.8729 8.78022Z" fill="#52B709"/>
<path d="M30.0275 10.2555C27.158 10.2364 24.901 7.95797 24.9248 5.10275C24.9487 2.25944 27.2557 -0.0118699 30.1062 4.6677e-05C32.9328 0.0119633 35.2208 2.33571 35.2065 5.1814C35.1922 8.03662 32.909 10.2746 30.0275 10.2555ZM30.0156 3.00065C28.781 3.01972 27.8349 4.00403 27.8849 5.21715C27.9326 6.37068 28.8954 7.30256 30.049 7.30971C31.2621 7.31686 32.2369 6.33969 32.2273 5.1242C32.2178 3.88725 31.274 2.98159 30.0156 3.00065Z" fill="#52B709"/>
<path d="M8.80401 41.1196C8.77779 43.5196 6.76388 45.5001 4.37102 45.4763C1.99485 45.4524 -0.00238119 43.429 2.13085e-06 41.0457C0.00238546 38.6147 2.06396 36.6008 4.50687 36.6437C6.89496 36.6842 8.83261 38.7029 8.80639 41.1196H8.80401ZM4.39724 42.4971C5.37202 42.4066 5.85822 41.8632 5.82247 41.0028C5.78672 40.1448 5.26953 39.6133 4.34957 39.661C3.44629 39.7062 2.98393 40.2187 3.00776 41.1219C3.03398 42.0538 3.62266 42.4209 4.39724 42.4971Z" fill="#52B709"/>
<path d="M60.1456 57.2022C60.1361 54.7498 62.0356 52.805 64.4642 52.7836C66.9524 52.7621 68.9091 54.7212 68.8924 57.2189C68.8757 59.6404 66.9023 61.6138 64.5047 61.6042C62.0952 61.5971 60.1528 59.6356 60.1432 57.2022H60.1456ZM65.949 57.145C65.8918 56.3037 65.4151 55.8032 64.5547 55.7317C63.754 55.6674 63.0342 56.4134 63.0866 57.2285C63.1438 58.1198 63.7111 58.6394 64.5405 58.6203C65.3579 58.6012 65.9132 58.0912 65.949 57.145Z" fill="#52B709"/>
<path d="M2.89336 52.7955C2.04728 52.7669 1.46098 52.0924 1.52771 51.2058C1.59683 50.2977 2.16168 49.8187 3.00776 49.8473C3.86576 49.8759 4.36864 50.4479 4.4163 51.3154C4.4592 52.1186 3.70369 52.8217 2.89574 52.7931L2.89336 52.7955Z" fill="#52B709"/>
<path d="M32.2583 41.0314C32.275 41.8536 31.5767 42.5901 30.764 42.5305C29.9036 42.4661 29.3387 41.9537 29.3244 41.0981C29.3125 40.2568 29.7892 39.6943 30.6972 39.6371C31.5791 39.5823 32.2369 40.1781 32.2559 41.0314H32.2583Z" fill="#52B709"/>
<path d="M46.942 57.1641C47.7309 57.2833 48.3124 57.6503 48.3601 58.5703C48.403 59.4235 47.7666 60.1337 46.9515 60.1504C46.1745 60.1671 45.4 59.4092 45.4667 58.6227C45.5382 57.7719 46.0268 57.2642 46.942 57.1641Z" fill="#52B709"/>
<path d="M8.80162 10.2912C8.79209 11.1469 8.14383 11.7546 7.26438 11.7022C6.36348 11.6474 5.88443 11.1111 5.88682 10.2531C5.88682 9.37367 6.45405 8.88747 7.30489 8.81358C8.12476 8.74447 8.81116 9.45947 8.80162 10.2936V10.2912Z" fill="#52B709"/>
<path d="M44.0057 5.88209C43.2192 5.78914 42.621 5.44118 42.5424 4.52836C42.4685 3.65845 43.0572 3.01495 43.9318 2.98397C44.797 2.95537 45.4858 3.57742 45.45 4.41158C45.4119 5.28626 44.9066 5.76293 44.0057 5.88209Z" fill="#52B709"/>
<path d="M61.5827 17.6033C60.72 17.6033 60.117 16.9693 60.1504 16.0803C60.1861 15.1699 60.72 14.7028 61.5804 14.6909C62.467 14.6766 62.9579 15.2271 63.039 16.0827C63.1176 16.9074 62.4145 17.6033 61.5827 17.6057V17.6033Z" fill="#52B709"/>
<path d="M63.008 31.0786C63.3917 31.0786 63.804 30.7068 64.1806 30.2897C64.5786 29.8464 64.855 29.7797 65.2435 30.366C66.2231 31.8413 66.857 33.4429 67.2408 35.1612C67.3504 35.657 67.2741 35.9382 66.6997 35.9025C66.5019 35.8905 66.3017 35.8905 66.1039 35.9072C65.141 35.9883 64.4833 36.4697 64.5357 37.4755C64.5857 38.3954 65.2006 38.9221 66.142 38.8482C67.174 38.7696 67.441 39.0627 67.1311 40.109C66.7236 41.4866 66.2112 42.7903 65.4962 44.0368C65.0076 44.8876 64.6239 45.1498 63.9184 44.2512C63.4155 43.6101 62.6886 43.5219 61.9879 43.9247C61.3015 44.3204 61.2038 44.9996 61.4135 45.6979C61.4993 45.9792 61.7234 46.2675 61.9617 46.4487C62.7291 47.0302 62.4908 47.3806 61.7901 47.8C60.4554 48.5984 59.0707 49.2253 57.5382 49.5637C56.6945 49.7496 56.3513 49.628 56.4443 48.7128C56.4872 48.2838 56.461 47.831 56.1321 47.4807C55.6912 47.0135 55.1835 46.7966 54.5305 47.0135C53.8274 47.2471 53.4437 47.7786 53.52 48.453C53.6701 49.7686 53.0457 49.7567 52.078 49.4969C50.6504 49.1132 49.3301 48.5198 48.0788 47.7333C47.4568 47.3424 47.2923 47.0111 47.9501 46.5345C48.0121 46.4892 48.0574 46.4177 48.1122 46.3605C48.7938 45.6526 48.9154 44.8423 48.2242 44.144C47.5283 43.4385 46.6655 43.5291 46.0316 44.2727C45.3618 45.0616 44.9924 44.9376 44.4991 44.1011C43.7007 42.7545 43.1501 41.3364 42.7712 39.8254C42.5781 39.0604 42.7855 38.8054 43.5553 38.8602C43.9795 38.8888 44.4371 38.9054 44.8089 38.6099C45.3189 38.2071 45.5668 37.6947 45.3976 37.0417C45.1807 36.2123 44.542 35.8739 43.7793 35.9287C42.7402 36.0026 42.5662 35.6403 42.8331 34.6989C43.2574 33.1998 43.8008 31.7769 44.6635 30.4685C45.0425 29.8941 45.2927 29.7988 45.8266 30.3112C46.8109 31.2574 47.6856 31.3527 48.279 30.6067C48.9893 29.713 48.677 28.8907 47.8977 28.2162C47.4282 27.8111 47.3567 27.537 47.9311 27.1533C49.404 26.1713 51.0032 25.5302 52.7287 25.1656C53.315 25.0416 53.5486 25.2442 53.4985 25.8305C53.4818 26.026 53.4866 26.2285 53.5104 26.424C53.6177 27.2772 54.0514 27.8397 54.9595 27.8444C55.9247 27.8492 56.4896 27.2796 56.4229 26.3572C56.3299 25.0798 56.8137 25.0178 57.8743 25.3133C59.2256 25.6899 60.4769 26.2238 61.6852 26.9221C62.4693 27.3749 62.7577 27.7706 61.8711 28.414C61.4278 28.7358 61.2824 29.2387 61.3373 29.794C61.4135 30.5471 62.0141 31.0977 63.0032 31.0858L63.008 31.0786ZM53.5033 35.135C53.5033 36.086 53.4937 37.0369 53.5057 37.9879C53.5176 38.9865 54.0824 39.5847 55.031 39.6252C56.7327 39.6967 58.4391 39.7015 60.1408 39.6204C61.0251 39.5775 61.6399 38.9912 61.5732 38.0498C61.5089 37.1394 60.925 36.6413 59.9788 36.6413C59.1065 36.6413 58.2318 36.596 57.3643 36.6532C56.6087 36.7033 56.4157 36.4006 56.4467 35.6927C56.4967 34.5869 56.461 33.4739 56.4515 32.3656C56.4419 31.4266 55.951 30.8141 55.031 30.7974C54.0419 30.7783 53.5343 31.4242 53.508 32.4014C53.4866 33.3118 53.5033 34.2246 53.5033 35.135Z" fill="#FBFBFB"/>
<path d="M16.6857 51.3536C16.2185 52.5309 15.83 53.5629 15.3987 54.5782C15.0269 55.4481 15.1294 56.1679 15.8563 56.8281C16.5593 57.4668 17.1862 58.1889 17.8749 58.8467C18.6686 59.607 19.4861 59.5999 20.2869 58.8372C20.3441 58.7824 20.406 58.7323 20.4632 58.6775C22.327 56.898 22.7044 54.5726 21.5953 51.7015C22.1173 51.4417 22.5749 51.6419 23.0325 51.8755C26.0331 53.3984 27.8611 57.1665 27.2938 60.4817C27.1485 61.3254 26.7624 61.4517 26.0283 61.416C25.1083 61.3683 25.4992 60.7176 25.442 60.291C25.3896 59.9002 25.4515 59.4974 25.4134 59.1017C25.3419 58.3343 24.9296 57.8624 24.1407 57.7838C23.3042 57.7027 22.7751 58.0888 22.551 58.8896C22.4986 59.0779 22.4962 59.2805 22.4867 59.4783C22.4215 60.759 21.7328 61.3993 20.4203 61.3993C19.0714 61.3993 17.72 61.3778 16.3711 61.4088C15.8014 61.4207 15.5846 61.2229 15.6275 60.6533C15.6632 60.179 15.6585 59.7 15.6203 59.2257C15.5488 58.3748 15.158 57.7957 14.2189 57.7766C13.2298 57.7575 12.7865 58.3319 12.6984 59.2424C12.6602 59.6356 12.7031 60.036 12.6793 60.4316C12.6531 60.8583 12.8866 61.4374 12.062 61.4088C11.4852 61.3897 11.0348 61.4279 10.8537 60.6509C9.9766 56.8638 12.7127 52.3212 16.6833 51.3536H16.6857Z" fill="#EBEBEB"/>
<path d="M19.0642 41.1267C20.9995 41.1219 22.439 42.5567 22.439 44.4848C22.439 46.3915 20.9494 47.9073 19.0761 47.9097C17.2457 47.9097 15.6823 46.3462 15.6728 44.4991C15.6608 42.6234 17.1599 41.1315 19.0642 41.1267Z" fill="#FBFBFB"/>
<path d="M19.0523 53.7774C19.3693 54.3446 20.0676 54.8189 19.4384 55.5148C19.2287 55.7484 18.9665 55.7794 18.7329 55.5196C18.1085 54.8237 18.8187 54.3494 19.0523 53.7774Z" fill="#EBEBEB"/>
<path d="M16.7166 22.1268C16.2185 23.3876 15.811 24.453 15.3772 25.5064C15.0579 26.2786 15.0984 26.9578 15.7323 27.568C16.5045 28.3092 17.2338 29.0933 18.0156 29.825C18.6972 30.4637 19.4265 30.4494 20.1367 29.8297C20.1677 29.8035 20.1915 29.7725 20.2225 29.7463C22.2785 27.9493 22.8211 25.767 21.8503 23.1993C21.7431 22.9181 21.5143 22.6488 21.6287 22.3056C23.3351 22.5773 25.0202 23.8476 26.2166 25.8329C27.2605 27.5608 27.5632 29.4365 27.2748 31.4361C27.1651 32.1869 26.7552 32.256 26.1284 32.2536C25.4015 32.2512 25.4086 31.8246 25.4277 31.3146C25.442 30.8784 25.442 30.4423 25.4182 30.0061C25.3705 29.1648 24.8795 28.6714 24.0764 28.6143C23.1969 28.5523 22.6773 29.0671 22.52 29.9227C22.4771 30.1539 22.4891 30.397 22.4843 30.6353C22.4652 32.4323 22.7274 32.225 20.7921 32.2369C19.3645 32.2441 17.9369 32.2131 16.5093 32.2488C15.8348 32.2655 15.575 32.0248 15.6299 31.3527C15.668 30.8808 15.6656 30.397 15.6036 29.9275C15.4988 29.1195 15.0197 28.6095 14.1856 28.6119C13.3657 28.6119 12.8533 29.079 12.7365 29.8989C12.6769 30.3279 12.7007 30.7688 12.6864 31.2049C12.6698 31.6959 12.8414 32.2298 11.9881 32.2679C11.1969 32.3013 10.949 31.9628 10.8298 31.2788C10.1577 27.4154 12.6555 23.3876 16.7166 22.1292V22.1268Z" fill="#EBEBEB"/>
<path d="M22.4366 15.4249C22.4104 17.3173 20.8898 18.7973 19.007 18.7544C17.1433 18.7139 15.6298 17.1433 15.6751 15.2986C15.7228 13.4182 17.2624 11.9334 19.1357 11.9643C21.0162 11.9929 22.4628 13.5087 22.4366 15.4249Z" fill="#FBFBFB"/>
<path d="M19.0285 24.6317C19.3788 25.1894 20.0414 25.6637 19.4479 26.3739C19.243 26.6194 18.9927 26.6718 18.7496 26.4144C18.1014 25.7257 18.8211 25.2275 19.0285 24.6317Z" fill="#EBEBEB"/>
<path d="M30.0156 3.00065C31.2764 2.98159 32.2202 3.88725 32.2273 5.1242C32.2369 6.33731 31.2621 7.31447 30.049 7.30971C28.8954 7.30256 27.9302 6.37068 27.8849 5.21715C27.8349 4.00403 28.781 3.0221 30.0156 3.00065Z" fill="#EBEBEB"/>
<path d="M4.39724 42.4971C3.62266 42.4209 3.03398 42.0538 3.00776 41.1219C2.98393 40.2187 3.44629 39.7062 4.34957 39.661C5.26953 39.6133 5.78433 40.1448 5.82247 41.0028C5.85822 41.8632 5.3744 42.4042 4.39724 42.4971Z" fill="#EBEBEB"/>
<path d="M65.9466 57.1474C65.9109 58.0936 65.3556 58.606 64.5381 58.6227C63.7087 58.6418 63.1438 58.1222 63.0842 57.2308C63.0318 56.4157 63.7516 55.6674 64.5524 55.7341C65.4128 55.8032 65.8894 56.3061 65.9466 57.1474Z" fill="#EBEBEB"/>
<path d="M53.5009 35.135C53.5009 34.2246 53.4842 33.3118 53.5057 32.4014C53.5295 31.4242 54.0395 30.7783 55.0286 30.7974C55.9509 30.8141 56.4395 31.429 56.4491 32.3656C56.461 33.4739 56.4943 34.5869 56.4443 35.6927C56.4133 36.4006 56.6064 36.7033 57.3619 36.6532C58.2294 36.596 59.1041 36.6413 59.9764 36.6413C60.9226 36.6413 61.5065 37.1394 61.5708 38.0498C61.6376 38.9912 61.0227 39.5799 60.1385 39.6204C58.4391 39.7015 56.7303 39.6967 55.0286 39.6252C54.08 39.5847 53.5176 38.9865 53.5033 37.9879C53.4914 37.0369 53.5009 36.086 53.5009 35.135Z" fill="#52B709"/>
</svg>
