<svg width="16" height="16" viewBox="0 0 16 16" fill="none" xmlns="http://www.w3.org/2000/svg">
<path d="M13.3924 1.46561C12.97 1.46561 12.532 1.46561 12.0946 1.46561C11.4596 1.46561 10.8239 1.47174 10.189 1.46289C9.75703 1.45675 9.44363 1.14472 9.44023 0.744116C9.43682 0.344876 9.74477 0.0342039 10.1747 0.00354553C10.2312 -0.000542258 10.2878 0.00150164 10.345 0.00150164C11.9556 0.00150164 13.5668 -0.000542258 15.1774 0.00013904C15.6891 0.00013904 15.9977 0.289691 15.9991 0.78772C16.0025 2.44395 16.0011 4.10087 15.9964 5.75711C15.995 6.17747 15.7484 6.49087 15.3941 6.55354C15.0643 6.61214 14.736 6.42751 14.5915 6.11206C14.5322 5.98194 14.5363 5.84704 14.5357 5.71214C14.5343 4.78149 14.5357 3.85152 14.5329 2.92086C14.5329 2.81322 14.5656 2.69876 14.522 2.62314C10.5596 6.58693 6.59513 10.5528 2.61771 14.5315C2.647 14.5813 2.74852 14.5315 2.82891 14.5315C3.79295 14.5356 4.75767 14.5322 5.7217 14.535C6.23268 14.5363 6.56242 14.8265 6.56242 15.2653C6.56242 15.6993 6.22586 15.9943 5.71557 15.9957C4.07092 15.9997 2.42558 16.0011 0.780928 15.9991C0.312195 15.9991 0.00220471 15.6993 0.00152341 15.2408C-0.00120178 13.573 -0.00052048 11.9051 0.0056112 10.2373C0.0069738 9.83331 0.243384 9.52537 0.579946 9.45042C0.906287 9.37753 1.23672 9.54717 1.39887 9.85988C1.47653 10.0098 1.46631 10.1678 1.467 10.3252C1.46904 11.3008 1.46768 12.2764 1.46836 13.2521C1.46836 13.3038 1.47313 13.3556 1.47449 13.3822C5.4451 9.41159 9.41434 5.44235 13.3924 1.46425V1.46561Z" fill="#0E0E0F"/>
</svg>
