<svg width="11" height="13" viewBox="0 0 11 13" fill="none" xmlns="http://www.w3.org/2000/svg">
<path d="M7.67079 8.63892C7.72497 8.01785 7.64798 7.41785 7.44023 6.84024C7.3938 6.71074 7.48301 6.64801 7.53759 6.57004C7.98363 5.93373 7.88261 5.06979 7.30337 4.5845C6.81293 4.17314 6.12085 4.23184 5.65078 4.73193C5.36319 5.03798 5.08335 5.35299 4.80065 5.66443C4.58028 5.9073 4.35665 6.14703 4.14035 6.39438C3.52649 7.09611 3.6605 8.13571 4.43445 8.61338C4.57621 8.70076 4.56602 8.74781 4.465 8.8558C4.1876 9.152 3.91224 9.45044 3.64665 9.75918C3.54685 9.87524 3.48209 9.85866 3.3774 9.77128C2.19325 8.78545 1.92359 6.90074 2.85682 5.60976C3.47964 4.74851 4.18679 3.94596 4.98803 3.28232C6.56567 1.9761 8.87571 3.01525 9.22073 5.15269C9.3857 6.17302 9.12052 7.05354 8.48425 7.80501C8.23577 8.09851 7.97711 8.38171 7.72334 8.66939C7.70582 8.65909 7.68831 8.64968 7.67079 8.63892Z" fill="#0A0B0C"/>
<path d="M1.6022 6.92494C1.57206 7.41381 1.57083 7.84668 1.68448 8.26162C1.78591 8.63175 1.83764 8.93243 1.60587 9.31959C1.25596 9.90481 1.47918 10.6563 2.0071 11.0699C2.49224 11.4499 3.18187 11.3768 3.62751 10.8897C4.12772 10.3435 4.62713 9.79547 5.12042 9.24117C5.74732 8.53631 5.61371 7.47744 4.83243 7.00828C4.6703 6.91104 4.71959 6.86579 4.81206 6.7672C5.07928 6.48087 5.34772 6.19498 5.60149 5.89475C5.71473 5.76077 5.79009 5.76122 5.91881 5.87145C7.15998 6.93166 7.3327 8.94184 6.26057 10.2364C5.72288 10.8862 5.15423 11.509 4.56602 12.1032C3.46253 13.2176 1.82461 13.1764 0.801365 12.0414C-0.25243 10.8723 -0.269946 9.07403 0.766741 7.84802C1.02296 7.54511 1.29751 7.26056 1.6022 6.92494Z" fill="#0A0B0C"/>
<path d="M11 0.669437C10.9947 0.672573 10.989 0.678847 10.9841 0.678399C10.9792 0.677951 10.9747 0.670781 10.9699 0.666748C10.98 0.667644 10.9898 0.668092 11 0.669437Z" fill="#EBEBEB"/>
</svg>
