<svg width="50" height="50" viewBox="0 0 50 50" fill="none" xmlns="http://www.w3.org/2000/svg">
<path d="M6.71044 15.7967C7.03414 15.4028 7.38319 15.0264 7.67959 14.613C8.13199 13.9812 8.46934 14.1236 8.95684 14.6247C9.38389 15.0615 9.37025 15.2838 8.93539 15.6875C7.96039 16.5942 7.02439 17.5439 6.10789 18.5091C5.75104 18.8855 5.54239 18.8816 5.18554 18.5033C4.24953 17.5127 3.29013 16.5377 2.28978 15.6134C1.82178 15.1805 1.99533 14.9328 2.36778 14.6286C2.68368 14.3693 2.91183 13.8057 3.42078 14.4297C3.79908 14.8938 4.23978 15.3072 4.65318 15.7421C4.72143 15.7011 4.78968 15.6582 4.85793 15.6173C4.85793 13.911 4.88523 12.2028 4.84233 10.4965C4.82673 9.88424 5.01588 9.73604 5.60869 9.73994C8.82424 9.76724 12.0398 9.73409 15.2554 9.76919C15.9437 9.77699 16.2343 9.56639 16.1036 8.89364C15.5908 6.28453 16.6301 4.37353 18.6581 2.79793C19.6507 2.02767 20.3273 0.682172 21.4076 0.243421C22.5269 -0.21093 23.9641 0.11082 25.2628 0.10692C27.7958 0.10107 30.3308 0.13227 32.8619 0.0893703C33.5932 0.0776703 33.8526 0.227821 33.835 1.02537C33.7785 3.62278 33.8467 6.22213 33.7941 8.81954C33.7765 9.62099 34.0456 9.78089 34.7847 9.77114C37.9027 9.73214 41.0208 9.78479 44.1388 9.73409C44.9383 9.72044 45.1041 9.97979 45.0807 10.7149C45.028 12.3354 45.0651 13.9578 45.0651 15.6797C45.7261 15.3891 46.1025 14.8587 46.51 14.4063C46.9975 13.8642 47.2179 14.2932 47.4967 14.5799C47.7678 14.8568 48.2202 15.0596 47.6839 15.5607C46.6407 16.5357 45.6423 17.5595 44.6497 18.5891C44.3358 18.9147 44.1447 18.8445 43.8678 18.5618C42.8694 17.54 41.8749 16.5123 40.8336 15.5354C40.3402 15.0713 40.7361 14.8626 41.0091 14.6384C41.2762 14.42 41.4615 13.7804 41.9802 14.3595C42.4033 14.8314 42.8421 15.2877 43.4739 15.9663C43.4739 14.3849 43.4602 13.133 43.4817 11.881C43.4875 11.4832 43.3335 11.3955 42.9708 11.3955C40.1121 11.4072 37.2534 11.4208 34.3966 11.3857C33.7804 11.3779 33.8136 11.6938 33.8155 12.1053C33.8214 14.769 33.7843 17.4327 33.8389 20.0945C33.8545 20.894 33.5932 21.0558 32.8561 21.0402C30.7462 20.9934 28.6343 21.0422 26.5225 21.011C25.9453 21.0032 25.7152 21.1319 25.7444 21.7598C25.7951 22.9259 25.7698 24.0978 25.7522 25.2659C25.7464 25.65 25.8029 25.9289 26.267 25.8333C27.1582 25.6481 27.3668 26.2331 27.5072 26.9039C27.6476 27.5669 27.8933 27.9822 28.6129 27.4148C29.3753 26.8122 29.9896 27.0053 30.5473 27.7521C30.8359 28.1382 31.2278 28.4483 31.571 28.7915C32.6943 29.9147 32.7294 29.9303 32.078 31.3772C31.8245 31.9388 32.1521 31.9661 32.4953 32.0675C33.2285 32.2839 34.0515 32.3912 33.8389 33.5163C33.7687 33.8908 34.1139 33.8771 34.3771 33.8771C37.2358 33.8771 40.0945 33.8673 42.9513 33.8868C43.3959 33.8888 43.4875 33.725 43.4856 33.3214C43.47 31.0145 43.4622 28.7096 43.4895 26.4027C43.4953 25.884 43.2672 25.8333 42.8479 25.8411C41.7111 25.8626 40.5742 25.8197 39.4374 25.8587C38.8504 25.8782 38.5774 25.7846 38.6028 25.0884C38.6613 23.4348 38.6398 21.7754 38.6106 20.1198C38.6008 19.5992 38.7061 19.3866 39.2911 19.3905C42.6373 19.4178 45.9816 19.412 49.3278 19.3944C49.7977 19.3925 49.9323 19.529 49.9245 19.995C49.8991 21.7481 49.8991 23.5031 49.9245 25.2561C49.9303 25.7183 49.8055 25.8704 49.3297 25.8587C48.1285 25.8255 46.9254 25.8704 45.7242 25.8372C45.2211 25.8236 45.0553 25.9698 45.0573 26.4905C45.0768 30.4197 45.0865 34.3509 45.0495 38.2802C45.0436 38.8789 45.4219 38.9296 45.7768 39.1187C47.0229 39.7876 47.6703 41.098 47.4382 42.4474C47.1984 43.8455 46.1493 44.9258 44.8408 45.1228C43.4134 45.3373 42.0718 44.6704 41.4225 43.4243C40.6249 41.8916 41.1787 39.926 42.7426 39.1655C43.3491 38.8711 43.546 38.563 43.4836 37.9409C43.4056 37.1726 43.7995 36.1664 43.3335 35.6906C42.8655 35.2148 41.8573 35.5424 41.091 35.5561C40.2934 35.5697 39.2365 35.1817 38.7724 35.7277C38.3824 36.1879 38.6379 37.2097 38.6359 37.9838C38.6281 40.16 38.6418 42.3362 38.6262 44.5124C38.6223 44.9941 38.7042 45.31 39.1761 45.6083C40.1413 46.2187 40.4631 47.3009 40.1433 48.3344C39.8508 49.2802 38.8758 49.99 37.8579 49.9958C36.8439 50.0017 35.865 49.3094 35.5491 48.3637C35.2 47.3165 35.551 46.2284 36.565 45.5674C36.955 45.3119 37.0545 45.0584 37.0506 44.6372C37.0369 41.8448 37.0213 39.0505 37.0603 36.2581C37.0701 35.6165 36.8458 35.4742 36.2823 35.5346C35.9293 35.5736 35.5686 35.5346 35.2117 35.5424C34.4824 35.5561 33.5562 35.2792 33.798 36.6247C33.874 37.0459 33.3826 37.0361 33.0979 37.1375C31.8694 37.5704 31.8421 37.5802 32.468 38.758C32.7196 39.2318 32.7411 39.5282 32.3082 39.9085C31.6256 40.5071 30.9607 41.1409 30.3815 41.837C29.8589 42.4669 29.387 42.5293 28.7474 42.0574C28.1059 41.5835 27.6047 41.5894 27.4955 42.5527C27.4019 43.3678 26.9632 43.6759 26.1227 43.5862C25.3525 43.5023 24.5588 43.5062 23.7886 43.5862C23.0027 43.6661 22.5562 43.4224 22.4489 42.6287C22.328 41.7317 21.8951 41.5133 21.1658 42.0691C20.5145 42.5663 20.0309 42.4396 19.5395 41.8195C19.1573 41.3398 18.7205 40.8796 18.2311 40.5149C17.3165 39.8344 17.0143 39.1109 17.7826 38.134C18.2116 37.5899 17.8196 37.4437 17.3633 37.3247C16.6418 37.1356 15.8774 36.9815 16.0997 35.9188C16.1602 35.6263 15.9437 35.5288 15.6746 35.5444C15.6103 35.5483 15.544 35.5463 15.4796 35.5444C13.7532 35.4612 12.89 36.2919 12.89 38.0365C12.89 40.1795 12.9017 42.3245 12.8803 44.4676C12.8744 44.9863 12.9622 45.3275 13.4633 45.6434C14.4052 46.2382 14.7211 47.3848 14.372 48.3871C14.0425 49.3348 13.0655 50.0153 12.0496 49.9997C11.0726 49.9861 10.1288 49.3153 9.809 48.4105C9.4541 47.4023 9.7583 46.2713 10.6982 45.661C11.2188 45.3217 11.3125 44.9512 11.3066 44.3974C11.2812 41.7025 11.2793 39.0056 11.3085 36.3107C11.3144 35.7335 11.1974 35.5034 10.5675 35.5327C9.43265 35.5853 8.29384 35.5736 7.15894 35.5366C6.63244 35.519 6.36919 35.6302 6.44329 36.2171C6.48814 36.5681 6.48814 36.9347 6.44329 37.2877C6.32239 38.249 6.50959 38.8984 7.51969 39.4093C8.73064 40.0216 9.14014 41.6908 8.68579 43.0051C8.21389 44.374 6.95809 45.2047 5.45074 45.1442C4.10328 45.0916 2.88453 44.1127 2.54913 42.814C2.17668 41.371 2.70513 39.8812 4.01943 39.2455C4.78578 38.875 4.88133 38.4128 4.87353 37.6777C4.83843 34.0409 4.84038 30.4022 4.87353 26.7654C4.87938 26.0693 4.75458 25.7826 3.98433 25.8333C2.88453 25.9074 1.77693 25.8314 0.673225 25.8626C0.193524 25.8762 -0.0112269 25.7865 0.000473177 25.2386C0.0375233 23.5187 0.0258232 21.7968 0.00632319 20.075C0.000473177 19.6148 0.0589733 19.3905 0.624475 19.3964C3.96873 19.4256 7.31494 19.4217 10.6611 19.4003C11.1662 19.3964 11.33 19.5309 11.3203 20.0516C11.2891 21.7715 11.2891 23.4953 11.3203 25.2152C11.33 25.7358 11.1701 25.8782 10.6631 25.8645C9.46189 25.8314 8.25874 25.8704 7.05754 25.845C6.60904 25.8353 6.43549 25.9445 6.43939 26.432C6.46279 28.7369 6.45889 31.0437 6.43939 33.3506C6.43549 33.7835 6.58369 33.8946 6.99709 33.8927C9.8558 33.879 12.7145 33.8849 15.5713 33.8868C15.8482 33.8868 16.1621 33.8693 16.088 33.5027C15.8891 32.514 16.5424 32.2664 17.2639 32.1338C17.9912 31.9992 18.1121 31.6599 17.6929 31.112C17.0845 30.3164 17.219 29.7177 18.0107 29.1152C18.5996 28.6667 19.1183 28.107 19.598 27.5376C20.0543 26.9975 20.4814 26.8766 21.0703 27.3075C21.7606 27.8145 22.3066 27.9003 22.4489 26.7966C22.5367 26.118 22.8857 25.6812 23.6774 25.8411C24.0616 25.9191 24.1747 25.7222 24.1688 25.3478C24.1513 24.1134 24.1337 22.8791 24.1747 21.6447C24.1922 21.0792 23.9329 21.0188 23.4727 21.0207C21.2965 21.0363 19.1203 20.9993 16.9441 21.0441C16.2518 21.0578 16.0763 20.8472 16.0861 20.1725C16.1231 17.5088 16.0783 14.8451 16.1173 12.1833C16.127 11.53 15.9262 11.3818 15.3061 11.3896C12.6112 11.4228 9.9143 11.4267 7.21939 11.3877C6.56419 11.3779 6.40429 11.5788 6.43159 12.1989C6.48034 13.3319 6.44524 14.4668 6.44524 15.6017C6.53299 15.668 6.61879 15.7362 6.70654 15.8025L6.71044 15.7967ZM32.1814 10.5511C32.1814 7.85624 32.1678 5.16133 32.1931 2.46838C32.199 1.90677 32.1014 1.67667 31.4599 1.68642C28.7338 1.72542 26.0057 1.71567 23.2796 1.69032C22.7336 1.68447 22.5406 1.83462 22.5601 2.39623C22.5991 3.53113 22.5347 4.66993 22.5874 5.80288C22.6166 6.42299 22.406 6.57313 21.8191 6.55168C20.6842 6.50878 19.5454 6.57119 18.4105 6.52634C17.8372 6.50293 17.7241 6.70769 17.726 7.24004C17.7475 11.0386 17.7553 14.8373 17.7202 18.6339C17.7143 19.2911 17.9152 19.4237 18.5294 19.4198C22.8155 19.3944 27.0997 19.3944 31.3858 19.4198C32 19.4237 32.2067 19.293 32.197 18.6339C32.156 15.941 32.1794 13.2461 32.1794 10.5511H32.1814ZM27.6379 39.7018C27.9986 39.8792 28.4023 40.0255 28.7474 40.2595C29.5586 40.8074 29.8004 40.0001 30.2392 39.6686C30.6643 39.3488 30.8066 39.0388 30.5024 38.4674C29.6581 36.886 29.8082 36.4901 31.5164 35.989C32.4271 35.7218 32.1151 35.0939 32.1833 34.544C32.2555 33.9746 32.1424 33.6158 31.4872 33.4188C29.8258 32.9157 29.6249 32.5004 30.4849 31.0125C30.9275 30.2462 30.4459 29.9946 30.0754 29.5851C29.6717 29.1386 29.3519 28.7837 28.6226 29.1932C27.1796 30.0063 26.7467 29.8191 26.2807 28.2689C26.0662 27.5532 25.6723 27.4128 25.0132 27.444C24.3833 27.4733 23.8685 27.4031 23.6345 28.2552C23.2075 29.8133 22.718 30.0161 21.3101 29.199C20.5145 28.7369 20.2318 29.2497 19.7813 29.6358C19.2919 30.0551 19.0364 30.4509 19.4908 31.073C20.2766 32.1494 19.9217 33.1653 18.5509 33.4052C17.7982 33.5358 17.6909 33.9726 17.726 34.624C17.7592 35.2675 17.6461 35.8174 18.5743 36.0397C20.0114 36.3848 20.2298 36.9796 19.5025 38.2724C19.1222 38.9471 19.2685 39.3196 19.7891 39.8149C20.3098 40.3082 20.6783 40.5851 21.4252 40.1464C22.6634 39.419 23.1431 39.6881 23.656 41.098C23.7652 41.4002 23.7184 41.8214 24.1747 41.9599C25.2101 42.2777 26.0506 41.8994 26.3275 40.8289C26.5166 40.0996 27.0236 39.8929 27.6398 39.7018H27.6379ZM7.30519 24.2597C9.7154 24.2597 9.69395 24.2597 9.67835 21.828C9.67445 21.206 9.52625 20.9837 8.86714 21.0032C7.28374 21.0519 5.69644 21.0188 4.11108 21.0188C1.49028 21.0188 1.50588 21.0188 1.59363 23.6123C1.61118 24.1212 1.74963 24.285 2.25663 24.2694C3.35643 24.2363 4.45623 24.2597 5.55604 24.2597H7.30519ZM45.9348 24.2597C48.3469 24.2597 48.3157 24.2597 48.3294 21.8456C48.3333 21.126 48.0817 20.9895 47.4363 21.0071C45.8529 21.048 44.2656 21.0207 42.6802 21.0207C40.194 21.0207 40.2232 21.0207 40.2349 23.4992C40.2388 24.1797 40.4884 24.2948 41.0812 24.2714C42.1479 24.2304 43.2165 24.2597 44.2831 24.2597H45.9348ZM45.8451 41.9482C45.8451 41.0375 45.147 40.3531 44.2383 40.3706C43.3803 40.3862 42.7036 41.0609 42.688 41.917C42.6705 42.812 43.3725 43.5472 44.2539 43.5589C45.1411 43.5686 45.8451 42.8569 45.8431 41.9501L45.8451 41.9482ZM5.62429 40.3706C4.71948 40.3823 4.05258 41.0863 4.07598 42.0028C4.09938 42.8686 4.76823 43.5413 5.62039 43.5569C6.50179 43.5725 7.22524 42.853 7.22914 41.9579C7.23304 41.059 6.52519 40.3589 5.62429 40.3706ZM12.8783 47.5798C12.812 47.1196 12.5702 46.8212 12.0652 46.829C11.6167 46.8368 11.3456 47.0767 11.3144 47.533C11.2793 48.0497 11.5913 48.3344 12.0535 48.3559C12.5234 48.3773 12.8179 48.0829 12.8783 47.5778V47.5798ZM38.6125 47.5661C38.5755 47.0884 38.3083 46.8212 37.8091 46.829C37.3528 46.8368 37.0837 47.1059 37.0564 47.5408C37.0272 48.04 37.345 48.3422 37.8111 48.3539C38.2752 48.3656 38.5891 48.0965 38.6106 47.5642L38.6125 47.5661ZM18.9721 4.92733C20.4112 4.97023 21.0254 4.40343 20.8148 3.22693C20.2688 3.73198 19.6721 4.28188 18.9721 4.92733Z" fill="#0A0B0B"/>
<path d="M24.9644 11.3955C23.344 11.3955 21.7216 11.3662 20.1031 11.4111C19.4654 11.4286 19.2587 11.2512 19.2977 10.6077C19.3309 10.0734 19.3075 9.72824 20.0485 9.73799C23.3225 9.78284 26.5966 9.78089 29.8706 9.73799C30.5999 9.72824 30.6019 10.0558 30.6272 10.6018C30.6584 11.2336 30.4771 11.4325 29.8277 11.413C28.2073 11.3662 26.5868 11.3974 24.9664 11.3974L24.9644 11.3955Z" fill="#0A0B0B"/>
<path d="M24.9703 12.9711C26.6219 12.9711 28.2755 13.0101 29.9252 12.9536C30.6136 12.9302 30.637 13.2461 30.6155 13.7589C30.596 14.2211 30.6838 14.6072 29.9525 14.5974C26.618 14.5565 23.2816 14.5545 19.9471 14.5974C19.1846 14.6072 19.3465 14.1723 19.3055 13.7375C19.2548 13.1895 19.3601 12.9321 20.0153 12.9536C21.665 13.0062 23.3186 12.9711 24.9703 12.9711Z" fill="#0A0B0B"/>
<path d="M24.9059 17.8305C23.2543 17.8305 21.6007 17.7993 19.949 17.8461C19.3075 17.8637 19.2685 17.5575 19.3114 17.0856C19.3484 16.6781 19.1183 16.1789 19.91 16.1867C23.2796 16.2218 26.6492 16.2198 30.0188 16.1867C30.8203 16.1789 30.559 16.6976 30.6058 17.0954C30.6662 17.5887 30.5765 17.8598 29.9584 17.8442C28.2755 17.8013 26.5888 17.8286 24.904 17.8286L24.9059 17.8305Z" fill="#0A0B0B"/>
<path d="M27.3727 4.96243C26.501 4.96243 25.6255 4.91953 24.7577 4.97608C24.0596 5.02093 24.1571 4.59583 24.1669 4.18048C24.1786 3.75538 23.9992 3.27373 24.7811 3.29713C26.5225 3.34783 28.2677 3.34198 30.011 3.29908C30.7988 3.27958 30.5746 3.79438 30.6058 4.20193C30.6409 4.65238 30.6428 5.01703 29.9857 4.97608C29.1179 4.92148 28.2424 4.96243 27.3707 4.96243H27.3727Z" fill="#0A0B0B"/>
<path d="M27.3961 8.13899C26.618 8.13899 25.84 8.11364 25.0639 8.14679C24.4867 8.17214 24.1435 8.15654 24.1298 7.37069C24.1162 6.55168 24.4535 6.51269 25.0892 6.52634C26.7077 6.56144 28.3301 6.58094 29.9486 6.51854C30.6838 6.48928 30.598 6.88124 30.6136 7.34729C30.6331 7.85819 30.6136 8.20919 29.9213 8.15459C29.0848 8.08829 28.2385 8.13899 27.3961 8.13899Z" fill="#0A0B0B"/>
<path d="M25.0444 30.7005C27.1952 30.7278 28.9892 32.5394 29.0009 34.6961C29.0126 36.9191 27.1465 38.7346 24.8767 38.7073C22.7239 38.6819 20.9357 36.8782 20.9221 34.7215C20.9084 32.4984 22.7824 30.6713 25.0444 30.7005ZM27.3356 34.7546C27.3551 33.4188 26.2904 32.3034 24.982 32.2878C23.7184 32.2722 22.6244 33.333 22.5854 34.6123C22.5445 35.9597 23.5682 37.0751 24.8884 37.1219C26.1929 37.1668 27.3161 36.0806 27.3356 34.7546Z" fill="#0A0B0B"/>
</svg>
