<svg width="20" height="20" viewBox="0 0 20 20" fill="none" xmlns="http://www.w3.org/2000/svg">
<path style="fill: black" d="M19.7192 18.3139L16.0114 14.6333C17.4506 12.8374 18.1476 10.5579 17.959 8.26356C17.7705 5.96919 16.7106 3.83432 14.9975 2.29792C13.2844 0.761532 11.0481 -0.0595993 8.74862 0.00337152C6.44911 0.0663423 4.26109 1.00863 2.63448 2.63648C1.00786 4.26433 0.066292 6.454 0.00336896 8.75527C-0.059554 11.0565 0.760954 13.2945 2.29618 15.0089C3.83141 16.7233 5.96466 17.784 8.25729 17.9727C10.5499 18.1614 12.8277 17.4639 14.6222 16.0235L18.3 19.7042C18.3929 19.7979 18.5035 19.8723 18.6253 19.9231C18.747 19.9739 18.8777 20 19.0096 20C19.1415 20 19.2722 19.9739 19.3939 19.9231C19.5157 19.8723 19.6263 19.7979 19.7192 19.7042C19.8993 19.5177 20 19.2684 20 19.009C20 18.7497 19.8993 18.5004 19.7192 18.3139ZM9.01554 16.0235C7.63189 16.0235 6.27932 15.6129 5.12886 14.8436C3.9784 14.0743 3.08172 12.9809 2.55223 11.7016C2.02273 10.4223 1.88419 9.01462 2.15412 7.65653C2.42406 6.29844 3.09035 5.05095 4.06873 4.07183C5.04712 3.0927 6.29366 2.4259 7.65072 2.15576C9.00778 1.88562 10.4144 2.02426 11.6927 2.55417C12.9711 3.08407 14.0637 3.98142 14.8324 5.13276C15.6011 6.28409 16.0114 7.63769 16.0114 9.02239C16.0114 10.8792 15.2743 12.66 13.9623 13.973C12.6504 15.2859 10.871 16.0235 9.01554 16.0235Z" fill="#FF9900"/>
</svg>
