<svg width="23" height="22" viewBox="0 0 23 22" fill="none" xmlns="http://www.w3.org/2000/svg">
<path d="M10.9458 21.9999C4.87316 21.97 -0.042627 16.9974 -3.04197e-05 10.927C0.0433134 4.86636 4.99647 -0.0300003 11.0541 -0.000107996C17.1156 0.0305316 22.0314 4.98444 22.0015 11.0346C21.9716 17.1245 17.0259 22.029 10.9465 21.9999H10.9458ZM16.0484 7.60226C16.0708 6.87961 15.81 6.633 15.2712 6.68232C14.9588 6.71072 14.6636 6.81235 14.3774 6.93192C12.3619 7.77488 10.3472 8.61785 8.33469 9.46754C7.12331 9.97944 5.91416 10.4966 4.71025 11.0257C4.48905 11.1228 4.25066 11.2529 4.27308 11.5667C4.2955 11.8746 4.56752 11.9232 4.77527 11.9934C5.37461 12.196 5.97843 12.3918 6.59272 12.5412C7.09939 12.6653 7.6113 12.6197 8.06267 12.317C9.56925 11.3067 11.0706 10.2896 12.5779 9.27996C12.7304 9.17833 12.9105 8.94367 13.0898 9.15292C13.2744 9.3674 13.0084 9.50266 12.8798 9.6297C11.8351 10.661 10.7806 11.6826 9.7359 12.7131C9.26808 13.1749 9.31367 13.6009 9.85696 13.9716C10.1544 14.1741 10.46 14.3654 10.7597 14.5664C11.5541 15.0992 12.3358 15.6523 13.1444 16.1627C14.0239 16.7179 14.4454 16.552 14.7473 15.585C14.7765 15.4908 14.8026 15.3944 14.8236 15.298C15.1315 13.9013 15.3243 12.4844 15.5462 11.0728C15.7375 9.85688 15.8989 8.63653 16.0469 7.60226H16.0484Z" fill="#333333"/>
</svg>
