<svg width="22" height="22" viewBox="0 0 22 22" fill="none" xmlns="http://www.w3.org/2000/svg">
<g clip-path="url(#clip0_781_847)">
<path d="M10.9754 22C4.91224 21.9881 -0.0231471 17.0228 2.01954e-05 10.9589C0.0231875 4.91 4.97203 -0.0119356 11.0194 2.17408e-05C17.0699 0.0119791 21.9993 4.95335 21.9955 11.003C21.9918 17.0743 17.0437 22.012 10.9754 22ZM11.4723 9.84166C11.4723 9.53076 11.4806 9.21913 11.4701 8.90824C11.4544 8.42621 11.3453 8.29393 10.8715 8.20798C10.2288 8.09215 9.58233 8.10336 8.93962 8.20873C8.77297 8.23638 8.60855 8.31336 8.45684 8.39332C8.28869 8.48151 8.26702 8.58987 8.47852 8.66012C8.78791 8.76325 8.99418 8.96653 9.04126 9.29162C9.12197 9.84689 9.16307 10.4044 9.05546 10.9634C8.95158 11.503 8.59734 11.6315 8.17734 11.2691C8.07496 11.1801 7.98752 11.0718 7.90008 10.9671C7.31791 10.2669 6.96367 9.44856 6.68342 8.59436C6.58403 8.29019 6.37627 8.13923 6.07733 8.134C5.45555 8.12279 4.83302 8.12129 4.21124 8.13998C3.84953 8.15119 3.76733 8.28645 3.91679 8.62126C4.63722 10.2355 5.43089 11.8101 6.52947 13.2084C7.66318 14.6515 9.10628 15.4354 10.9873 15.2972C11.3139 15.2733 11.5149 15.2045 11.4701 14.8226C11.4537 14.6784 11.482 14.5237 11.5157 14.3795C11.6233 13.9139 11.9207 13.7756 12.349 13.9841C12.6427 14.1276 12.893 14.3376 13.1269 14.5581C13.6897 15.0909 14.3301 15.3689 15.1201 15.2987C15.5154 15.2636 15.916 15.2927 16.3143 15.292C16.6386 15.292 17.0116 15.3241 17.1588 14.9684C17.3 14.6261 17.0108 14.3854 16.7956 14.1702C16.3023 13.6792 15.7837 13.2136 15.2867 12.7256C14.9467 12.3916 14.9273 12.1935 15.2045 11.8116C15.4818 11.4297 15.7889 11.0688 16.0767 10.6944C16.54 10.0913 16.966 9.465 17.1633 8.71617C17.2784 8.27898 17.2036 8.15567 16.7575 8.14521C15.9989 8.12802 15.2396 8.14297 14.4811 8.15119C14.2188 8.15418 14.0873 8.32307 14.0065 8.554C13.8787 8.91646 13.7569 9.28265 13.6037 9.63464C13.3339 10.2557 12.97 10.8192 12.4633 11.2758C12.2884 11.4335 12.0792 11.5874 11.8251 11.4963C11.5508 11.3984 11.4918 11.1368 11.4783 10.8849C11.4596 10.5374 11.4738 10.1884 11.4723 9.84016V9.84166Z" fill="#333333"/>
<path d="M11.4731 9.84153C11.4731 10.1898 11.4596 10.5388 11.4783 10.8863C11.4918 11.1381 11.5516 11.3997 11.8251 11.4976C12.0792 11.588 12.2892 11.4341 12.4633 11.2772C12.97 10.8205 13.3332 10.257 13.6037 9.63601C13.7569 9.28402 13.8788 8.91782 14.0065 8.55537C14.088 8.32369 14.2188 8.15479 14.4811 8.15255C15.2396 8.14433 15.9989 8.13013 16.7575 8.14657C17.2036 8.15629 17.2791 8.2796 17.1633 8.71754C16.966 9.46636 16.54 10.0926 16.0767 10.6957C15.7889 11.0701 15.4818 11.4311 15.2045 11.813C14.9273 12.1956 14.9459 12.3929 15.2867 12.727C15.7837 13.215 16.3024 13.6806 16.7956 14.1716C17.0108 14.3861 17.3 14.6267 17.1588 14.9697C17.0123 15.3255 16.6394 15.2933 16.3143 15.2933C15.916 15.2933 15.5154 15.2649 15.1201 15.3C14.3301 15.3703 13.6904 15.0923 13.1269 14.5594C12.8938 14.3382 12.6434 14.129 12.349 13.9855C11.9207 13.7762 11.6233 13.9152 11.5157 14.3808C11.4821 14.5251 11.4537 14.6798 11.4701 14.824C11.5142 15.2059 11.3139 15.2746 10.9873 15.2986C9.10628 15.4368 7.66318 14.6529 6.52948 13.2098C5.4309 11.8115 4.63798 10.2369 3.9168 8.62262C3.76733 8.28782 3.84954 8.15255 4.21125 8.14134C4.83303 8.12266 5.45556 8.12415 6.07734 8.13536C6.37702 8.1406 6.58403 8.29156 6.68343 8.59572C6.96293 9.44992 7.31791 10.2683 7.90009 10.9685C7.98753 11.0739 8.07422 11.1822 8.17735 11.2704C8.5966 11.6329 8.95159 11.5051 9.05547 10.9648C9.16308 10.4058 9.12198 9.84825 9.04127 9.29298C8.99418 8.96715 8.78792 8.76387 8.47852 8.66149C8.26628 8.59124 8.2887 8.48287 8.45685 8.39469C8.60856 8.31472 8.77297 8.237 8.93963 8.2101C9.58159 8.10472 10.2288 8.09351 10.8715 8.20935C11.3453 8.29455 11.4544 8.42682 11.4701 8.9096C11.4798 9.22049 11.4723 9.53213 11.4723 9.84302L11.4731 9.84153Z" fill="#FBFBFB"/>
</g>
<defs>
<clipPath id="clip0_781_847">
<rect width="21.9955" height="22" fill="white"/>
</clipPath>
</defs>
</svg>
