<svg width="14" height="15" viewBox="0 0 14 15" fill="none" xmlns="http://www.w3.org/2000/svg">
<g clip-path="url(#clip0_323_3463)">
<path d="M14 7.00317C13.9868 10.8653 10.8389 14.0106 6.99629 14.0011C3.1283 13.9921 -0.0285369 10.8199 -6.48721e-06 6.97094C0.0290523 3.11563 3.16106 -0.00264003 7.00211 1.67724e-06C10.8532 0.00264339 14.0127 3.1653 13.9995 7.00317H14ZM0.802544 6.98996C0.786694 10.3957 3.55151 13.1768 6.97569 13.1996C10.3809 13.2223 13.1679 10.4617 13.1969 7.03699C13.2254 3.61914 10.4612 0.827385 7.02324 0.801496C3.61068 0.776136 0.818923 3.55363 0.803073 6.98943L0.802544 6.98996Z" fill="#DDE2E4"/>
<path d="M7.40101 4.01752C7.40101 4.51891 7.40471 5.02031 7.39837 5.5217C7.39678 5.66647 7.42003 5.75787 7.57748 5.82075C7.84693 5.92853 8.05087 6.13247 8.16129 6.40087C8.23156 6.57099 8.33195 6.60692 8.50049 6.60375C9.06317 6.59371 9.62639 6.60005 10.1896 6.60005C10.3227 6.60005 10.4569 6.6048 10.561 6.70202C10.6878 6.82037 10.7306 6.96619 10.6714 7.13315C10.6033 7.32599 10.4522 7.39943 10.2609 7.40049C9.6713 7.40313 9.08219 7.4063 8.49257 7.39943C8.33723 7.39785 8.24583 7.42532 8.17186 7.58858C7.93781 8.10371 7.38146 8.39219 6.83304 8.31558C6.24606 8.23315 5.7901 7.78829 5.69024 7.19972C5.59937 6.66345 5.87992 6.0865 6.38924 5.84294C6.56782 5.75734 6.60269 5.65749 6.60163 5.48261C6.59476 4.53265 6.59793 3.58216 6.59846 2.6322C6.59846 2.55295 6.59529 2.4737 6.60163 2.39498C6.62171 2.14137 6.76964 1.98815 6.99313 1.98446C7.22613 1.98023 7.39097 2.14085 7.39784 2.40819C7.40788 2.79493 7.40101 3.18221 7.40154 3.56948C7.40154 3.719 7.40154 3.86852 7.40154 4.01804L7.40101 4.01752ZM7.52623 6.99314C7.52147 6.70783 7.26153 6.46162 6.97887 6.4743C6.70254 6.48646 6.46796 6.73425 6.47271 7.00793C6.47747 7.28372 6.71839 7.52306 6.99419 7.52623C7.27896 7.5294 7.53151 7.27633 7.52676 6.99261L7.52623 6.99314Z" fill="#DDE2E4"/>
<path d="M7.52623 6.99314C7.53099 7.27686 7.27844 7.52993 6.99367 7.52676C6.71787 7.52359 6.47695 7.28373 6.47219 7.00846C6.46744 6.73425 6.70255 6.48699 6.97834 6.47483C7.26154 6.46215 7.52095 6.70836 7.52571 6.99367L7.52623 6.99314Z" fill="#FBFBFB"/>
</g>
<defs>
<clipPath id="clip0_323_3463">
<rect width="14" height="14.0016" fill="white"/>
</clipPath>
</defs>
</svg>
