<svg width="49" height="50" viewBox="0 0 49 50" fill="none" xmlns="http://www.w3.org/2000/svg">
<path d="M9.61283 0.0321734C13.6309 0.0551556 16.4903 1.95502 18.2848 5.49811C18.5587 6.04011 18.7904 6.13587 19.3439 5.97691C22.7931 4.97909 26.2539 4.98676 29.7012 5.98648C30.226 6.1397 30.4577 6.03819 30.699 5.54024C32.6123 1.58156 36.1554 -0.460029 40.9797 0.0877138C44.7277 0.512885 48.064 3.67677 48.7975 7.71015C49.5885 12.0576 47.8552 16.0584 43.5173 18.2283C42.9639 18.5041 42.8221 18.7359 42.9964 19.3353C43.9885 22.752 43.9808 26.184 42.9945 29.5988C42.8202 30.2021 42.9581 30.4396 43.5193 30.7077C47.3918 32.5558 49.4563 36.4877 48.9067 40.8639C48.426 44.6924 45.1606 48.0516 41.1617 48.8311C36.9502 49.6508 32.6372 47.4579 30.7392 43.4762C30.4692 42.9093 30.2164 42.781 29.6246 42.9515C26.206 43.9359 22.7721 43.9339 19.3611 42.94C18.7119 42.7504 18.5299 42.9706 18.2733 43.5011C15.5997 49.0303 8.68013 50.6907 3.78301 46.9982C3.62979 46.8833 3.48232 46.7627 3.33485 46.642C2.92117 46.3011 2.67794 45.8874 3.09929 45.4259C3.48424 45.0045 3.90558 45.1999 4.27521 45.5197C5.43198 46.5214 6.76303 47.1285 8.27411 47.4004C12.5565 48.1761 16.6435 45.3588 17.6202 40.9233C18.5184 36.8439 15.7721 32.4371 11.6621 31.4757C8.53075 30.7441 5.74607 31.4967 3.58574 33.908C1.38328 36.3671 0.892993 39.236 2.0287 42.3558C2.08232 42.5033 2.16085 42.6431 2.21256 42.7925C2.36194 43.2272 2.34662 43.6428 1.86974 43.842C1.40243 44.0374 1.07494 43.7865 0.873841 43.3613C0.249491 42.0437 -0.0550234 40.6398 0.00817766 39.1958C0.184375 35.3003 2.03061 32.4333 5.52965 30.7019C6.13102 30.4032 6.16167 30.1159 6.00654 29.572C5.02979 26.1515 5.03554 22.7233 6.01611 19.3066C6.16933 18.7723 6.11953 18.5156 5.55072 18.2417C1.60544 16.3438 -0.399757 12.5766 0.107767 8.13723C0.542514 4.33751 3.67384 1.04339 7.69381 0.143254C8.32965 0.00153044 8.9655 0.10112 9.61283 0.0321734ZM6.7841 24.424C6.71515 26.0576 6.99286 27.6491 7.38355 29.233C7.52145 29.7903 7.74935 29.9646 8.36221 29.8669C14.5042 28.8883 20.0506 34.4557 19.1064 40.6513C19.0183 41.224 19.1696 41.4365 19.6963 41.5744C22.908 42.4114 26.1121 42.4152 29.3239 41.5706C29.8487 41.4327 29.9885 41.2278 29.8927 40.6494C28.8834 34.5342 34.5121 28.8959 40.6484 29.8707C41.267 29.9684 41.4853 29.7769 41.6271 29.233C42.4563 26.0538 42.4563 22.8803 41.6309 19.6992C41.4872 19.1476 41.2613 18.9714 40.6484 19.0672C34.5102 20.0363 28.87 14.3903 29.8927 8.2847C30.0019 7.62779 29.7759 7.47075 29.2416 7.33286C26.1255 6.53231 23.021 6.5055 19.8955 7.30413C19.1868 7.48416 19.0279 7.70632 19.1313 8.44558C19.4933 11.0272 18.7808 13.358 17.2161 15.4264C16.7277 16.0718 16.1072 16.091 15.8468 15.5164C15.6629 15.1085 15.8889 14.8021 16.1245 14.4784C17.2506 12.9405 17.7983 11.2264 17.7466 9.30358C17.6317 4.95994 14.0235 1.41877 9.66071 1.40345C5.26153 1.38812 1.55373 4.95228 1.45031 9.29592C1.30093 15.5088 7.54443 19.5 13.2804 16.8494C13.7803 16.6177 14.282 16.3955 14.5846 17.0122C14.8892 17.6327 14.3989 17.9353 13.9124 18.1613C12.1466 18.9868 10.3061 19.4292 8.35647 19.0653C7.74744 18.9523 7.51379 19.1361 7.37589 19.7011C6.99669 21.2543 6.71899 22.8152 6.78027 24.424H6.7841ZM39.3825 17.6998C43.8985 17.7074 47.5507 14.0973 47.568 9.6081C47.5852 5.14188 43.9176 1.42643 39.4667 1.40153C34.9124 1.37663 31.2602 5.01357 31.2659 9.56596C31.2717 14.1011 34.8569 17.6902 39.3844 17.6978L39.3825 17.6998ZM31.264 39.3835C31.2717 43.8918 34.9028 47.5307 39.392 47.5287C43.8582 47.5268 47.5507 43.8535 47.566 39.3969C47.5814 34.8656 43.9138 31.219 39.3576 31.2324C34.832 31.2478 31.2544 34.8483 31.2621 39.3816L31.264 39.3835Z" fill="#111213"/>
<path d="M6.99477 39.2935C6.99477 38.401 6.97753 37.5104 6.9986 36.6179C7.0235 35.5933 7.70722 35.1701 8.59587 35.6623C10.1491 36.5222 11.6889 37.4127 13.2115 38.3263C14.1039 38.8625 14.1269 39.6612 13.2498 40.1936C11.7042 41.132 10.1338 42.0322 8.55182 42.9055C7.72637 43.3613 7.02924 42.9227 7.00052 41.9671C6.9737 41.0765 6.99477 40.184 6.99477 39.2915V39.2935ZM11.9455 39.259C10.7409 38.5676 9.66071 37.9471 8.52117 37.294V41.2565C9.6971 40.5709 10.7734 39.9427 11.9455 39.259Z" fill="#111213"/>
<path d="M28.9562 27.3542V19.7605C27.2708 20.5706 25.6238 21.3022 23.858 21.7082C23.5496 21.7791 23.4424 21.9457 23.4539 22.2464C23.4673 22.6294 23.4539 23.0125 23.4577 23.3955C23.4654 24.0007 23.2987 24.6902 23.5381 25.1862C23.7699 25.6669 24.5494 25.5673 25.076 25.7627C25.5414 25.935 25.9072 26.1859 25.7425 26.7356C25.5797 27.2776 25.1277 27.3733 24.6623 27.1703C23.8139 26.8007 22.9406 26.8505 22.05 26.8735C21.5138 26.8869 21.4238 27.0688 21.464 27.5591C21.5617 28.7657 21.5885 29.9799 21.6689 31.1884C21.7053 31.7476 21.6536 32.3107 21.0063 32.3567C20.2747 32.4084 20.2153 31.8108 20.1961 31.2229C20.1559 29.9799 20.0582 28.7389 20.0199 27.4959C20.0065 27.0688 19.9108 26.9022 19.4339 26.8735C18.3212 26.8065 17.9075 26.3353 17.8979 25.2475C17.8864 24.1309 17.8864 23.0144 17.8979 21.8978C17.9094 20.8253 18.392 20.2565 19.4339 20.245C20.6079 20.2335 21.7915 20.1071 22.9617 20.335C23.2566 20.3925 23.519 20.3063 23.8005 20.2335C25.2829 19.8448 26.6924 19.2721 28.0446 18.5635C28.4985 18.326 29.05 18.1881 29.0577 17.4623C29.0615 17.1233 29.458 17.0026 29.8065 17.0467C30.1206 17.0869 30.339 17.2554 30.3773 17.5887C30.4002 17.7783 30.4079 17.9698 30.4079 18.1613C30.4079 21.7657 30.4079 25.3701 30.4079 28.9744C30.4079 29.166 30.4022 29.3575 30.3773 29.5471C30.337 29.8688 30.1417 30.0642 29.8257 30.1159C29.4675 30.1753 29.0864 30.024 29.0673 29.7003C29.0213 28.9017 28.3759 28.7944 27.8799 28.511C27.38 28.2256 26.7193 27.9939 27.1214 27.2527C27.4949 26.5651 28.035 26.9558 28.5157 27.2067C28.6249 27.2642 28.7493 27.2891 28.9543 27.358L28.9562 27.3542ZM21.9773 23.5736C21.9773 22.2904 21.3331 21.6635 20.0448 21.6929C19.9816 21.6929 19.9165 21.7006 19.8552 21.6929C19.4416 21.6412 19.3037 21.8212 19.3132 22.2311C19.3362 23.1178 19.3266 24.0045 19.3132 24.8913C19.3075 25.2724 19.4128 25.439 19.8418 25.4773C21.9792 25.6707 21.9773 25.6861 21.9773 23.5736Z" fill="#111213"/>
<path d="M5.9012 11.9006C4.30585 10.4527 4.00517 8.66391 4.51461 6.67978C4.62569 6.24695 4.74251 5.77773 5.25195 5.65324C5.75182 5.53067 5.96823 5.9635 6.24019 6.2661C6.58492 6.64914 6.98903 6.94408 7.44484 7.18922C8.10941 7.54736 8.54033 7.68908 8.89272 6.72383C9.37726 5.39661 10.9286 4.84886 12.2385 5.41001C12.7403 5.62451 13.1559 5.76432 13.6309 5.37554C13.9277 5.13231 14.2801 5.12656 14.5846 5.41384C14.8815 5.69537 14.9198 6.03819 14.7015 6.3676C13.9775 7.46309 14.0024 8.76542 13.6558 9.96624C12.4281 14.2237 7.87384 15.4877 4.32117 13.6108C3.99176 13.4366 3.72747 13.1857 3.80407 12.7873C3.88643 12.3621 4.20243 12.1725 4.63526 12.1381C5.03362 12.1074 5.46071 12.2281 5.9012 11.9006ZM7.59614 13.0095C10.6585 12.7892 12.5373 10.807 12.522 7.9438C12.5182 7.07622 11.9972 6.71234 11.2867 6.6702C10.626 6.6319 10.1548 7.02643 10.0552 7.74462C9.86755 9.09483 9.62623 9.2423 8.26071 8.98758C7.36632 8.82096 6.59067 8.37089 5.73841 7.90167C5.67138 9.40892 6.22104 10.4316 7.40654 11.123C8.5499 11.7895 8.57671 11.981 7.59997 13.0095H7.59614Z" fill="#111213"/>
<path d="M41.244 4.00427C41.3264 4.01001 41.5849 4.00427 41.832 4.04832C42.192 4.11343 42.3874 4.37007 42.3893 4.72246C42.3893 5.07677 42.169 5.30276 41.8358 5.41193C41.7764 5.43108 41.7094 5.4215 41.6462 5.42916C39.4437 5.72793 39.4591 5.72793 39.5069 8.04722C39.5165 8.52602 39.6123 8.73669 40.1332 8.68881C40.6944 8.6371 41.3015 8.67157 41.2747 9.45488C41.2498 10.1673 40.6656 10.1922 40.1466 10.1558C39.6429 10.1195 39.4782 10.2861 39.5089 10.7917C39.551 11.4907 39.5989 12.2051 39.4993 12.8926C39.3863 13.674 40.0566 15.0798 38.7504 15.0549C37.4768 15.0319 38.1644 13.6357 38.0457 12.8467C37.9442 12.161 37.9959 11.4467 38.0342 10.7476C38.0591 10.2822 37.9116 10.1233 37.4481 10.1597C36.908 10.2018 36.3316 10.0984 36.3277 9.43382C36.322 8.69455 36.9349 8.63518 37.5075 8.68689C37.9422 8.72711 38.0667 8.55091 38.0323 8.1449C38.0035 7.79633 38.0246 7.44394 38.0265 7.09346C38.038 5.07869 39.0818 4.0215 41.2459 4.00427H41.244Z" fill="#111213"/>
<path d="M39.5261 34.2948C40.5124 34.2948 41.5007 34.2757 42.487 34.3006C43.6686 34.3293 44.4749 35.0877 44.4941 36.2694C44.5305 38.3378 44.5305 40.41 44.4941 42.4784C44.473 43.6409 43.6399 44.4415 42.4736 44.4568C40.4358 44.4836 38.3961 44.4817 36.3584 44.4568C35.1173 44.4415 34.3474 43.6658 34.3321 42.4152C34.3091 40.3775 34.3072 38.3397 34.3321 36.3C34.3474 35.0226 35.081 34.3331 36.3699 34.291C36.4331 34.2891 36.4982 34.291 36.5614 34.291C37.5477 34.291 38.5359 34.291 39.5223 34.291V34.2948H39.5261ZM43.0156 39.3835C43.0156 38.4278 42.9964 37.4702 43.0232 36.5164C43.0385 35.9476 42.8068 35.6987 42.2437 35.7006C40.363 35.7082 38.4823 35.7082 36.6035 35.7006C36.0079 35.6987 35.7321 35.9495 35.7359 36.5605C35.7494 38.4412 35.7474 40.32 35.7359 42.2007C35.7321 42.7714 35.9849 42.9936 36.5461 42.9879C38.4574 42.9725 40.3707 42.9744 42.282 42.9879C42.8049 42.9917 43.0328 42.7868 43.0213 42.2524C43.0002 41.2967 43.0156 40.3411 43.0156 39.3854V39.3835Z" fill="#111213"/>
<path d="M37.2355 39.3184C37.2566 38.108 38.2295 37.1695 39.4437 37.1925C40.6235 37.2155 41.6232 38.2497 41.5887 39.4122C41.5543 40.5843 40.5048 41.5917 39.3518 41.5591C38.1644 41.5247 37.2164 40.5211 37.2374 39.3184H37.2355ZM39.4208 40.0729C39.8268 40.0366 40.1007 39.8067 40.1026 39.3586C40.1026 38.897 39.8172 38.6729 39.3691 38.6787C38.9515 38.6844 38.7141 38.9353 38.7026 39.3337C38.6892 39.7684 38.9113 40.05 39.4188 40.0749L39.4208 40.0729Z" fill="#111213"/>
</svg>
