<svg width="42" height="42" viewBox="0 0 42 42" fill="none" xmlns="http://www.w3.org/2000/svg">
<path d="M38.4919 19.747C38.4919 19.0468 38.4797 18.5548 38.4954 18.0647C38.5182 17.3171 38.499 16.7027 37.7392 16.1547C36.7712 15.4562 36.885 13.9735 37.7795 13.1577C38.6477 12.3646 39.9571 12.4294 40.7501 13.3047C41.5676 14.2098 41.5098 15.598 40.4963 16.3018C39.9484 16.6834 39.8416 17.0896 39.8871 17.6603C39.9116 17.9789 39.9326 18.308 39.8854 18.6214C39.6438 20.2144 40.0061 21.5256 41.5081 22.3659C41.9317 22.604 42.0017 23.0189 42 23.4933C41.986 28.887 41.9947 34.2824 41.9895 39.6761C41.9895 41.1606 41.151 41.9974 39.663 41.9974C27.2117 42.0009 14.7603 42.0009 2.30892 41.9974C0.829741 41.9974 0.00175051 41.1536 0.00175051 39.6568C0 27.2362 0 14.8138 0 2.39136C0 0.838562 0.817488 0.01227 2.35619 0.01227C6.55566 0.0070181 10.7534 0.0175218 14.9529 1.56232e-05C15.4552 -0.001735 15.8281 0.143566 16.2027 0.470932C18.6797 2.6312 21.1724 4.77045 23.7947 7.03225C23.7947 6.29524 23.7719 5.70003 23.8034 5.10657C23.8192 4.79321 23.5986 4.73719 23.4201 4.6059C22.5203 3.95116 22.193 3.10036 22.4853 2.19529C22.7794 1.28847 23.5864 0.700263 24.5211 0.710767C25.4244 0.721271 26.1894 1.28672 26.4887 2.16553C26.7985 3.07585 26.4957 3.96342 25.5872 4.57613C25.2791 4.78446 25.1653 4.98228 25.1863 5.33765C25.2143 5.83133 25.2598 6.33901 25.1811 6.82218C24.9903 7.98634 25.4664 8.76362 26.5937 9.34657C26.5937 8.82839 26.6463 8.34697 26.5832 7.87955C26.4152 6.6121 26.76 5.54073 27.6563 4.6304C28.0554 4.22426 28.2287 3.81987 28.0432 3.15988C27.7246 2.02723 28.6698 0.845565 29.8269 0.714268C31.026 0.57772 32.1078 1.45653 32.1901 2.63295C32.2759 3.87764 31.3254 4.88599 30.0843 4.91926C29.7692 4.92801 29.3876 4.62515 29.1302 5.05055C28.7591 5.65977 28.0397 6.08167 28.0064 6.86244C27.9574 7.99684 27.9959 9.1365 27.9924 10.2744C27.9924 10.4827 27.9959 10.6753 28.1744 10.8276C29.0059 11.5383 29.8322 12.2561 30.7932 13.0859C30.7932 11.969 30.7722 11.0202 30.8037 10.0731C30.8142 9.73521 30.6147 9.64418 30.4028 9.49187C29.5083 8.85115 29.1897 7.98109 29.4926 7.07602C29.7867 6.19896 30.5534 5.62476 31.4531 5.61075C32.3897 5.595 33.1967 6.1762 33.496 7.08477C33.7953 7.98984 33.4855 8.87391 32.5682 9.48662C32.2479 9.7002 32.1779 9.91903 32.1866 10.2569C32.2041 10.8976 32.2934 11.5594 32.1726 12.1773C31.8155 14.0137 32.7363 15.1149 34.2907 15.9989C34.2907 15.1656 34.2907 14.3656 34.2907 13.5656C34.2907 10.8836 34.2872 8.19992 34.296 5.51797C34.296 5.10132 34.2627 4.79846 33.8303 4.52887C32.9726 3.99318 32.6943 3.05485 32.9918 2.17253C33.2877 1.29372 34.0527 0.724772 34.9559 0.712518C35.8924 0.698513 36.6977 1.28322 36.9953 2.19179C37.2841 3.0741 36.9795 3.96342 36.1393 4.55163C35.8679 4.74244 35.6701 4.87724 35.6754 5.27638C35.7051 7.25633 35.6894 9.23628 35.6894 11.3388C36.3633 10.9484 36.976 10.6368 37.5414 10.2534C38.0193 9.93128 37.8618 8.445 37.3471 8.06687C36.5489 7.47866 36.2128 6.63136 36.4404 5.78581C36.6732 4.92276 37.4557 4.27153 38.3292 4.21201C39.2797 4.14723 40.0937 4.67067 40.4438 5.57399C40.7781 6.43354 40.5856 7.39288 39.7943 7.90406C39.2272 8.26994 39.0889 8.70059 39.1957 9.26079C39.4372 10.5212 38.9278 11.3318 37.762 11.7572C36.0237 12.3927 35.5038 13.5708 35.6194 15.423C35.7051 16.8182 35.952 17.8686 37.1686 18.6179C37.6027 18.8857 37.9545 19.2831 38.4884 19.747H38.4919ZM20.9571 40.6004C27.0786 40.6004 33.2019 40.6004 39.3234 40.6004C40.477 40.6004 40.5908 40.4901 40.5908 39.3627C40.5908 34.2894 40.5838 29.2179 40.6031 24.1446C40.6048 23.6316 40.456 23.3043 40.0622 22.9646C33.5695 17.3749 27.0891 11.7712 20.6227 6.15169C20.1746 5.76305 19.7475 5.59324 19.1541 5.595C13.5279 5.616 7.90005 5.62301 2.27391 5.58799C1.5422 5.58274 1.3794 5.76305 1.38115 6.48606C1.40741 17.4187 1.39866 28.3513 1.39866 39.2839C1.39866 40.5251 1.47743 40.6004 2.7623 40.6004C8.82607 40.6004 14.8898 40.6004 20.9536 40.6004H20.9571ZM18.3611 4.20851C17.3545 3.3402 16.5038 2.6382 15.6951 1.89419C15.3082 1.53706 14.9143 1.39351 14.3804 1.39701C10.7726 1.42152 7.16483 1.41977 3.55703 1.40576C1.15709 1.39526 1.42491 1.29898 1.38465 3.67106C1.3759 4.1875 1.59646 4.21726 1.99733 4.21551C4.20822 4.20325 6.41912 4.21026 8.63001 4.21026C11.7932 4.21026 14.9581 4.21026 18.3593 4.21026L18.3611 4.20851ZM25.2003 2.86403C25.1776 2.44738 24.9693 2.17078 24.5789 2.12352C24.1343 2.071 23.8472 2.33359 23.8069 2.7695C23.7684 3.17564 24.0257 3.44523 24.4126 3.49425C24.8625 3.55202 25.1006 3.26842 25.2021 2.86403H25.2003ZM30.7985 2.86403C30.7757 2.44738 30.5674 2.17078 30.177 2.12352C29.7324 2.071 29.4453 2.33359 29.4051 2.7695C29.3665 3.17564 29.6239 3.44523 30.0107 3.49425C30.4606 3.55202 30.6987 3.26842 30.8002 2.86403H30.7985ZM35.0312 2.10251C34.5971 2.14628 34.3082 2.3651 34.303 2.81326C34.2977 3.2159 34.5568 3.48025 34.9524 3.4995C35.397 3.52051 35.6736 3.24917 35.6824 2.80801C35.6911 2.40362 35.4198 2.18829 35.0312 2.10426V2.10251ZM37.783 6.3285C37.8548 6.72239 38.0683 6.99549 38.4709 6.99899C38.9138 7.00249 39.1887 6.7294 39.1799 6.28649C39.1729 5.8891 38.9121 5.62826 38.5112 5.62125C38.0631 5.6125 37.8408 5.9031 37.783 6.33026V6.3285ZM31.4584 7.00249C31.0453 7.09002 30.7617 7.32636 30.8055 7.77627C30.844 8.1649 31.1118 8.424 31.5162 8.39949C31.9555 8.37148 32.2199 8.08613 32.1814 7.64322C32.1464 7.25108 31.8715 7.03751 31.4584 7.00249ZM39.2779 15.423C39.5825 15.3144 39.8871 15.1376 39.8819 14.7227C39.8766 14.2798 39.607 14.0067 39.1624 14.019C38.765 14.0295 38.506 14.2938 38.5007 14.693C38.4954 15.1429 38.786 15.3617 39.2762 15.423H39.2779Z" fill="#010101"/>
<path d="M29.363 36.5897C28.5613 36.63 28.0939 36.0102 28.3442 35.4693C29.5468 32.8609 30.7687 30.2612 31.9485 27.644C32.1761 27.1399 32.3582 27.0103 32.8938 27.2711C33.3892 27.5127 33.5117 27.6931 33.2579 28.227C32.0116 30.8459 30.809 33.4859 29.5889 36.1188C29.4978 36.3148 29.4803 36.5757 29.363 36.5914V36.5897Z" fill="#010101"/>
<path d="M15.7598 18.9049C17.071 18.9049 18.3856 18.947 19.695 18.8874C20.3374 18.8594 20.2884 19.1833 20.3077 19.6174C20.3287 20.1059 20.2586 20.3282 19.6687 20.3194C17.0465 20.2809 14.4224 20.2774 11.7984 20.3194C11.1595 20.3299 11.205 20.0236 11.1875 19.5877C11.1665 19.0993 11.233 18.8612 11.8282 18.8857C13.1376 18.9382 14.4505 18.9014 15.7633 18.9014L15.7598 18.9049Z" fill="#010101"/>
<path d="M11.8965 25.9039C13.1201 25.9039 14.3472 25.9424 15.569 25.8882C16.2167 25.8584 16.0959 26.2435 16.0942 26.6042C16.0942 26.963 16.215 27.3307 15.569 27.3202C13.1218 27.2799 10.6729 27.2799 8.22389 27.3202C7.57795 27.3307 7.69874 26.9648 7.69874 26.6042C7.69874 26.2453 7.5762 25.8584 8.22389 25.8882C9.44575 25.9442 10.6711 25.9039 11.8965 25.9039Z" fill="#010101"/>
<path d="M34.7038 34.1546C34.457 33.8255 34.1892 33.5209 33.9861 33.1777C33.8303 32.9134 34.1454 32.8556 34.2802 32.7348C34.7669 32.2937 35.6736 32.0433 35.6946 31.4726C35.7086 31.098 34.8334 30.6323 34.296 30.3067C33.664 29.9251 34.1349 29.6625 34.317 29.3561C34.5288 28.9973 34.7266 28.7819 35.1695 29.1601C35.8539 29.7448 36.6137 30.2384 37.3226 30.7951C37.9756 31.3081 37.9843 31.6915 37.3489 32.1956C36.6189 32.7733 35.8627 33.316 35.117 33.8727C35.0014 33.9585 34.8789 34.0373 34.7056 34.1563L34.7038 34.1546Z" fill="#010101"/>
<path d="M27.644 29.8638C27.609 30.1719 27.3395 30.2209 27.1767 30.3697C26.7338 30.7741 25.9128 30.9982 25.883 31.5234C25.8638 31.8578 26.6568 32.2919 27.1434 32.586C27.6948 32.9204 27.623 33.1812 27.2957 33.6557C26.9368 34.1756 26.676 34.053 26.2909 33.7432C25.6555 33.2338 24.9885 32.7646 24.3443 32.2674C23.5689 31.6687 23.5759 31.3221 24.3688 30.7146C25.0148 30.2192 25.6607 29.7238 26.3242 29.2529C26.5097 29.1216 26.69 28.7662 26.9561 28.9938C27.2362 29.2318 27.4235 29.5785 27.6423 29.8638H27.644Z" fill="#010101"/>
<path d="M15.31 38.5014C14.3489 38.5014 13.3844 38.4576 12.4251 38.5171C11.7774 38.5574 11.8982 38.1635 11.9 37.8029C11.9 37.444 11.7774 37.0711 12.4251 37.0869C14.4067 37.1324 16.39 37.1324 18.3698 37.0869C19.0158 37.0729 18.8967 37.4422 18.895 37.8029C18.895 38.1618 19.0193 38.5556 18.3698 38.5189C17.3528 38.4611 16.3305 38.5031 15.31 38.5031V38.5014Z" fill="#010101"/>
<path d="M17.4911 30.1019C16.5003 30.1019 15.506 30.0599 14.5187 30.1177C13.8623 30.1562 14.0058 29.7518 13.9971 29.3982C13.9883 29.0288 13.892 28.6734 14.5275 28.6874C16.5091 28.7312 18.4924 28.7329 20.4722 28.6874C21.1269 28.6716 20.9851 29.055 20.9921 29.4087C21.0009 29.7763 21.1006 30.1562 20.4617 30.1177C19.4744 30.0599 18.4801 30.1019 17.4893 30.1019H17.4911Z" fill="#010101"/>
<path d="M12.5967 32.9011C11.6059 32.9011 10.6116 32.8574 9.6243 32.9169C8.97486 32.9554 9.09915 32.5615 9.09915 32.2026C9.09915 31.842 8.97836 31.4726 9.6243 31.4866C11.6059 31.5322 13.5892 31.5322 15.569 31.4866C16.215 31.4726 16.0942 31.842 16.0942 32.2026C16.0942 32.5633 16.2167 32.9554 15.569 32.9169C14.5817 32.8591 13.5875 32.9011 12.5967 32.9011Z" fill="#010101"/>
<path d="M12.9485 16.1057C13.822 16.1057 14.7008 16.1512 15.5708 16.0917C16.222 16.0479 16.0942 16.4488 16.0959 16.8077C16.0959 17.1683 16.215 17.5412 15.569 17.5219C13.822 17.4747 12.0715 17.4747 10.3245 17.5219C9.67507 17.5395 9.80285 17.1631 9.8011 16.8042C9.8011 16.4436 9.68032 16.0462 10.328 16.0899C11.198 16.1495 12.075 16.1039 12.9503 16.1039L12.9485 16.1057Z" fill="#010101"/>
<path d="M12.3288 14.707C11.7757 14.707 11.2103 14.6352 10.6711 14.7227C9.7836 14.868 9.75034 14.3953 9.78535 13.7389C9.8046 13.3922 9.90963 13.2977 10.2422 13.3012C11.5831 13.317 12.924 13.3275 14.2632 13.2995C14.8951 13.2855 14.6815 13.7214 14.6868 14.0137C14.692 14.3131 14.8776 14.7507 14.2526 14.7157C13.6137 14.6789 12.9713 14.707 12.3306 14.707H12.3288Z" fill="#010101"/>
<path d="M24.2253 18.9049C24.7505 18.9049 25.2756 18.9312 25.799 18.8979C26.3259 18.8647 26.6305 18.8944 26.627 19.5982C26.6217 20.2739 26.3644 20.3334 25.8148 20.3159C24.6209 20.2792 23.4236 20.2669 22.2315 20.3194C21.5995 20.3475 21.6871 19.9851 21.6976 19.6122C21.7081 19.2603 21.5593 18.8349 22.2157 18.8927C22.8809 18.9505 23.5549 18.9049 24.2253 18.9049Z" fill="#010101"/>
<path d="M9.09565 35.7021C8.68778 35.7021 8.27291 35.6549 7.87379 35.7126C7.13858 35.8194 6.90926 35.5533 6.97928 34.8233C7.01954 34.4084 7.11232 34.2824 7.52894 34.2946C8.5775 34.3226 9.62955 34.3454 10.6746 34.2876C11.3275 34.2509 11.1928 34.65 11.198 35.0054C11.2015 35.3695 11.3135 35.7844 10.6694 35.7144C10.1512 35.6584 9.6208 35.7021 9.0974 35.7021H9.09565Z" fill="#010101"/>
<path d="M7.98932 24.5034C7.69874 24.5034 7.4064 24.5034 7.11582 24.5034C6.3596 24.5017 6.04451 24.022 6.29833 23.306C6.38411 23.0627 6.54866 23.1082 6.7097 23.1064C7.58321 23.1012 8.45846 23.1327 9.33196 23.0942C10.0252 23.0627 9.76434 23.5476 9.79235 23.8627C9.82386 24.2041 9.89563 24.5875 9.30046 24.5139C8.86983 24.4597 8.42695 24.5034 7.99108 24.5034H7.98932Z" fill="#010101"/>
<path d="M9.40549 11.9077C9.1149 11.9077 8.82257 11.9077 8.53198 11.9077C7.74775 11.9077 7.46242 11.4788 7.69524 10.726C7.79152 10.4162 8.00333 10.516 8.18013 10.5125C9.02563 10.502 9.87112 10.544 10.7149 10.495C11.3065 10.4617 11.2173 10.8258 11.1945 11.1619C11.1718 11.4858 11.4046 11.976 10.7184 11.9147C10.2842 11.8762 9.84486 11.9077 9.40724 11.9077H9.40549Z" fill="#010101"/>
<path d="M8.0716 7.70798C8.36218 7.70798 8.65452 7.70798 8.9451 7.70798C9.76259 7.70798 10.0199 8.08436 9.80285 8.87039C9.71708 9.18025 9.51577 9.10147 9.33547 9.10322C8.60725 9.11197 7.87904 9.10847 7.15083 9.10672C6.33334 9.10672 6.07602 8.73034 6.29308 7.94431C6.37886 7.63445 6.58016 7.71673 6.76047 7.71148C7.19809 7.69922 7.63397 7.70798 8.0716 7.70798Z" fill="#010101"/>
<path d="M11.177 30.1019C10.9739 30.1019 10.7656 30.0774 10.5661 30.1072C9.99016 30.1929 9.78185 30.0319 9.76784 29.3841C9.75209 28.6594 10.1004 28.6646 10.6063 28.6997C10.9827 28.7242 11.3626 28.7049 11.7424 28.7049C12.5652 28.7049 12.8225 29.0725 12.6037 29.8638C12.5371 30.1054 12.4006 30.1019 12.2273 30.1037C11.8772 30.1054 11.5289 30.1037 11.1788 30.1037L11.177 30.1019Z" fill="#010101"/>
<path d="M13.5997 35.7021C13.0868 35.6934 12.4724 35.9227 12.5687 34.9529C12.6212 34.4224 12.7227 34.2124 13.2566 34.2981C13.4264 34.3261 13.6067 34.3121 13.78 34.2999C14.3192 34.2666 14.748 34.1949 14.7323 35.0492C14.7165 35.9157 14.2159 35.6741 13.773 35.7004C13.7152 35.7039 13.6557 35.7004 13.598 35.7004L13.5997 35.7021Z" fill="#010101"/>
<path d="M4.88217 8.45374C5.06597 9.12773 4.63885 9.08046 4.16271 9.12423C3.51152 9.1855 3.51852 8.86164 3.48001 8.36971C3.4275 7.71673 3.74434 7.72198 4.23798 7.68872C4.87517 7.64495 4.99595 7.9163 4.88217 8.45374Z" fill="#010101"/>
<path d="M4.88567 23.7086C4.94519 24.1988 4.97495 24.6067 4.26774 24.5192C3.83011 24.4649 3.38899 24.591 3.48351 23.8732C3.54128 23.4355 3.41349 22.9874 4.12945 23.0924C4.55307 23.1537 5.08173 22.9856 4.88567 23.7086Z" fill="#010101"/>
<path d="M4.21173 27.2729C3.50977 27.462 3.51677 27.0733 3.48001 26.5779C3.43275 25.9477 3.71458 25.9144 4.22573 25.8847C4.85591 25.8479 4.90318 26.1192 4.91718 26.6339C4.93118 27.2239 4.77539 27.4742 4.21173 27.2747V27.2729Z" fill="#010101"/>
<path d="M13.9778 11.2267C14.1441 11.8569 13.801 11.9007 13.2811 11.927C12.6754 11.9567 12.5932 11.7256 12.5739 11.1917C12.5529 10.586 12.7752 10.5002 13.3126 10.4862C13.9043 10.4722 14.1144 10.6543 13.9778 11.2267Z" fill="#010101"/>
<path d="M18.3138 27.2939C17.8342 27.3307 17.3826 27.4112 17.4841 26.6847C17.5436 26.2628 17.3791 25.7849 18.1178 25.8917C18.5396 25.9529 19.0263 25.7884 18.9073 26.5254C18.8407 26.9333 19.0525 27.4935 18.3138 27.2939Z" fill="#010101"/>
<path d="M8.38144 16.8655C8.57049 17.5552 8.11011 17.4712 7.65148 17.5219C6.97928 17.5972 7.02479 17.2331 6.97928 16.7587C6.91451 16.0864 7.26987 16.1302 7.746 16.0882C8.40595 16.0304 8.48122 16.3438 8.38144 16.8655Z" fill="#010101"/>
<path d="M4.27299 10.523C4.9767 10.3322 4.85766 10.8206 4.91368 11.2635C5.0012 11.9567 4.59859 11.871 4.14171 11.9235C3.44675 12.004 3.53078 11.6066 3.48176 11.1497C3.40999 10.4687 3.76535 10.4389 4.27124 10.523H4.27299Z" fill="#010101"/>
<path d="M3.50452 2.77123C3.46601 3.20889 3.2507 3.49424 2.80957 3.49949C2.37194 3.50474 2.11111 3.23865 2.10936 2.79924C2.10936 2.40185 2.35443 2.14976 2.74655 2.12175C3.18943 2.08849 3.424 2.35808 3.50452 2.77298V2.77123Z" fill="#010101"/>
<path d="M5.60513 2.79224C5.55437 3.22114 5.33555 3.50474 4.89092 3.49774C4.4533 3.49074 4.19597 3.21939 4.20822 2.77998C4.21873 2.38434 4.4673 2.13576 4.86116 2.11825C5.30579 2.09899 5.53336 2.36859 5.60338 2.79224H5.60513Z" fill="#010101"/>
<path d="M7.71449 2.79574C7.61822 3.26491 7.3819 3.538 6.94077 3.49599C6.51014 3.45397 6.26332 3.16687 6.31059 2.72922C6.3526 2.34233 6.60992 2.106 7.01079 2.1165C7.46067 2.12875 7.64447 2.43336 7.71274 2.79574H7.71449Z" fill="#010101"/>
</svg>
