<svg width="51" height="36" viewBox="0 0 51 36" fill="none" xmlns="http://www.w3.org/2000/svg">
<path d="M34.4541 0C38.987 0 43.5178 0 48.0507 0C50.0131 0 50.9976 0.977315 50.9976 2.93409C51.0018 9.5374 50.9997 16.1386 50.9976 22.7419C50.9976 24.7136 50.0238 25.6974 48.0762 25.7017C46.4476 25.706 44.819 25.7274 43.1904 25.6888C42.6291 25.676 42.4824 25.8453 42.4866 26.4025C42.5143 29.1137 42.5015 31.827 42.4973 34.5404C42.4973 35.8349 42.3569 35.9828 41.1195 35.9828C36.7652 35.9871 32.4088 35.9678 28.0544 35.9999C27.3719 36.0042 27.1657 35.8392 27.17 35.1298C27.1742 34.4375 27.3485 34.2468 28.0459 34.251C32.0112 34.2875 35.9764 34.251 39.9416 34.2853C40.6284 34.2918 40.8282 34.1203 40.8134 33.413C40.7666 31.0941 40.8027 28.7729 40.7857 26.4539C40.7857 26.1646 41.0153 25.7017 40.3775 25.6931C39.7375 25.6845 39.9565 26.1453 39.9544 26.4411C39.9374 28.3314 39.914 30.2239 39.9587 32.1142C39.982 33.0958 39.5823 33.4323 38.6319 33.4237C35.0919 33.3916 31.5498 33.383 28.0098 33.4323C27.2444 33.443 27.1848 33.143 27.1742 32.5172C27.1614 31.8828 27.2911 31.6277 27.98 31.6813C28.8602 31.7499 29.7511 31.6556 30.6334 31.7113C31.2691 31.752 31.4924 31.5956 31.4647 30.9054C31.4052 29.4438 31.4137 27.9778 31.4626 26.5161C31.4839 25.8753 31.3414 25.5667 30.6611 25.6995C29.9339 25.8388 29.7213 25.5667 29.7128 24.7994C29.7043 24.0128 30.0296 23.9742 30.6419 23.9764C36.3081 23.9935 41.9721 23.9871 47.6383 23.9871C49.2201 23.9871 49.2966 23.9078 49.2966 22.2704C49.2966 15.9178 49.2966 9.56526 49.2966 3.21271C49.2966 1.87319 49.1436 1.71459 47.8487 1.71459C38.8913 1.71244 29.9318 1.71244 20.9744 1.71459C19.7221 1.71459 19.5499 1.88605 19.5499 3.12698C19.5456 7.19484 19.5329 11.2648 19.5626 15.3327C19.5669 16.0228 19.4818 16.3036 18.6782 16.3164C17.8043 16.3293 17.8341 15.9178 17.8383 15.2941C17.8575 11.1898 17.8447 7.08553 17.849 2.98124C17.8511 0.955883 18.8164 0.00214323 20.8575 0C25.3904 0 29.9212 0 34.4541 0ZM38.177 28.7344C38.2003 28.7344 38.2237 28.7344 38.2471 28.7344C38.2471 27.9135 38.2535 27.0926 38.2429 26.2718C38.2407 26.051 38.3407 25.8024 37.9622 25.6974C37.0118 25.4316 36.5505 25.7488 36.5483 26.7454C36.5483 26.9598 36.5568 27.1741 36.5462 27.3884C36.5143 27.9349 36.223 28.2714 35.6809 28.2607C35.143 28.2478 34.8602 27.9028 34.8496 27.3541C34.8432 26.9983 34.8177 26.6383 34.8538 26.2846C34.9389 25.4316 34.3138 25.7488 33.9311 25.7167C33.5228 25.6824 33.0827 25.5774 33.1295 26.3125C33.1975 27.3777 33.1465 28.4536 33.1465 29.5231C33.1465 31.7049 33.1465 31.7199 35.3428 31.6963C36.2868 31.6856 37.5859 32.1142 38.0749 31.5206C38.5405 30.9547 38.1748 29.6945 38.1748 28.7386L38.177 28.7344Z" fill="#020202"/>
<path d="M13.3841 35.9828C9.88022 35.9828 6.37635 35.9871 2.87461 35.9828C0.997231 35.9806 0.0107046 34.9776 7.38811e-05 33.0851C-0.00843066 31.5906 0.71729 30.8433 2.17724 30.8433C3.76971 30.8433 5.36431 30.7919 6.95466 30.8647C7.73708 30.9012 8.04112 30.6033 8.30476 29.9067C9.54855 26.6276 10.8519 23.3698 12.1382 20.1078C12.793 18.4511 13.4776 17.9925 15.2742 17.9925C19.2735 17.9925 23.2727 17.9925 27.2699 17.9925C29.5278 17.9925 30.4208 19.287 29.6044 21.3809C28.3818 24.5186 27.1976 27.6713 25.9028 30.7769C25.3819 32.0307 25.5371 33.2887 25.5031 34.5532C25.469 35.837 25.3564 35.9785 24.1041 35.9806C20.53 35.9828 16.956 35.9806 13.382 35.9806L13.3841 35.9828ZM9.76966 30.8433C14.3961 30.8433 18.8887 30.8369 23.3791 30.8519C23.8596 30.8519 24.1168 30.7469 24.3103 30.2389C25.5328 27.0283 26.7936 23.8328 28.0714 20.6458C28.3755 19.8892 28.114 19.6985 27.4017 19.7006C23.2642 19.7113 19.1268 19.7135 14.9893 19.6985C14.4131 19.6985 14.056 19.9192 13.8497 20.4465C12.5081 23.8714 11.1644 27.2941 9.77179 30.8433H9.76966ZM8.09002 32.5579C6.21902 32.5579 4.34377 32.6158 2.47702 32.5343C1.52239 32.4936 1.61806 33.0273 1.74138 33.5802C1.88596 34.2339 2.43025 34.2789 2.99792 34.2768C6.56345 34.266 10.1311 34.2768 13.6966 34.2618C14.0198 34.2618 14.6491 34.5532 14.462 33.7324C14.3515 33.2459 14.8044 32.4936 13.7051 32.5386C11.8363 32.6136 9.96314 32.56 8.09214 32.56L8.09002 32.5579ZM20.0814 32.5579C19.0226 32.5579 17.9574 32.6286 16.9071 32.5365C16.0354 32.4593 16.08 32.9415 16.1693 33.4945C16.2671 34.0903 16.686 34.2789 17.2494 34.2768C19.2246 34.2682 21.2019 34.2382 23.1771 34.2918C23.9637 34.3132 23.7873 33.8374 23.8 33.4045C23.8128 32.9437 23.9106 32.4914 23.1494 32.545C22.131 32.6158 21.1041 32.5622 20.0793 32.5622L20.0814 32.5579Z" fill="#020202"/>
<path d="M38.1684 22.5083C37.1607 22.5704 36.6461 21.8417 36.9757 21.0637C38.4342 17.6388 39.9204 14.2268 41.3406 10.7848C41.6277 10.0882 41.8722 9.98533 42.5568 10.2618C43.2818 10.5533 43.1925 10.8919 42.9459 11.4599C41.4533 14.9083 39.9905 18.3697 38.5193 21.8288C38.4002 22.1075 38.3364 22.4204 38.1684 22.5083Z" fill="#111213"/>
<path d="M35.2025 19.4992C34.9282 19.257 34.79 19.1498 34.6688 19.0276C34.0182 18.374 33.3804 17.7053 32.7192 17.0644C32.1791 16.5415 32.1451 16.055 32.7 15.5192C33.3613 14.8783 34.0374 14.2439 34.6369 13.5452C35.1281 12.9751 35.3853 13.3438 35.7043 13.691C36.0019 14.0125 36.4569 14.2461 35.885 14.7712C35.3747 15.2405 34.5158 15.6842 34.5561 16.31C34.5902 16.8265 35.396 17.283 35.8403 17.7846C35.9998 17.9667 36.3931 18.0996 36.0976 18.4618C35.8127 18.8112 35.5108 19.1455 35.2046 19.5013L35.2025 19.4992Z" fill="#111213"/>
<path d="M44.7042 19.4499C44.3725 19.0855 44.0217 18.7726 43.7687 18.3932C43.5454 18.0589 43.9473 17.9153 44.1174 17.731C45.4653 16.2693 45.4994 16.2414 44.1131 14.8655C43.605 14.3618 43.724 14.1089 44.1684 13.7017C44.5575 13.3438 44.8148 12.9923 45.3186 13.5988C45.8842 14.2782 46.5433 14.8783 47.1811 15.4934C47.7212 16.0143 47.7531 16.5029 47.2003 17.0409C46.539 17.6838 45.9033 18.3504 45.2506 19.0019C45.106 19.1477 44.9338 19.2634 44.7042 19.4499Z" fill="#111213"/>
<path d="M27.7185 8.56865C27.0466 8.56865 26.3578 8.47864 25.705 8.58794C24.6122 8.77226 24.6037 8.16573 24.6356 7.37702C24.6526 6.94408 24.7993 6.84335 25.1969 6.84764C26.8255 6.86478 28.4541 6.87764 30.0806 6.84549C30.8524 6.83049 30.576 7.37059 30.5888 7.72636C30.6015 8.09714 30.8078 8.62438 30.0551 8.57937C29.2791 8.53222 28.4988 8.56865 27.7206 8.56865H27.7185Z" fill="#020202"/>
<path d="M27.1147 15.4227C26.6193 15.4227 26.1133 15.3606 25.6306 15.4356C24.7313 15.5749 24.5846 15.1462 24.6292 14.3725C24.6569 13.8924 24.7164 13.676 25.2649 13.6953C26.5385 13.7381 27.8142 13.7553 29.0856 13.691C29.8255 13.6546 29.7745 14.0618 29.749 14.544C29.7256 14.9705 29.9297 15.5084 29.1303 15.4356C28.4626 15.3734 27.7865 15.4227 27.1147 15.4227Z" fill="#020202"/>
<path d="M34.0948 6.85407C34.3435 6.85407 34.5944 6.88407 34.8368 6.84764C35.5108 6.74905 35.7383 6.98052 35.7255 7.70064C35.7149 8.37791 35.5703 8.66081 34.8559 8.57937C34.2968 8.51507 33.7206 8.5215 33.1593 8.57937C32.4832 8.64581 32.2578 8.44006 32.2705 7.71993C32.2812 7.04053 32.4279 6.73833 33.1401 6.84549C33.4506 6.89264 33.7759 6.85407 34.0948 6.85407Z" fill="#020202"/>
<path d="M26.2663 11.9957C26.0176 11.9957 25.7667 11.97 25.5243 12C24.878 12.0836 24.591 11.9121 24.6207 11.162C24.6484 10.5126 24.7313 10.1804 25.4754 10.2682C26.0686 10.339 26.6788 10.3154 27.2784 10.2725C27.8439 10.2318 28.0629 10.3647 28.0736 11.0077C28.0863 11.7578 27.9609 12.165 27.1125 12.0043C26.8383 11.9528 26.547 11.9957 26.2642 11.9957H26.2663Z" fill="#020202"/>
<path d="M22.9113 7.65992C23.1175 8.46792 22.7518 8.57508 22.0927 8.59437C21.3847 8.61366 21.2317 8.38648 21.221 7.70493C21.2125 6.99123 21.4251 6.80906 22.1076 6.83478C22.7518 6.85835 23.209 6.89693 22.9113 7.66207V7.65992Z" fill="#020202"/>
<path d="M22.2161 10.2982C23.0963 10.0561 22.89 10.7055 22.9645 11.2241C23.092 12.1007 22.5477 11.9443 22.0162 12.015C21.1445 12.1307 21.2976 11.5906 21.2317 11.0548C21.1232 10.1889 21.6207 10.2254 22.2161 10.2982Z" fill="#020202"/>
<path d="M22.9283 14.6383C23.1579 15.4849 22.5988 15.3799 22.0417 15.442C21.2253 15.5342 21.2827 15.0862 21.2253 14.5076C21.1445 13.6824 21.5782 13.736 22.1565 13.6867C22.956 13.616 23.0516 13.9996 22.9283 14.6383Z" fill="#020202"/>
<path d="M22.1098 3.37988C22.063 3.91783 21.8015 4.26718 21.2614 4.27361C20.7256 4.28004 20.4088 3.95213 20.4088 3.41417C20.4088 2.92552 20.7065 2.61689 21.1849 2.58046C21.7249 2.53973 22.0098 2.86979 22.1098 3.37988Z" fill="#111213"/>
<path d="M23.8468 4.29504C23.3131 4.24789 22.9666 3.98427 22.9602 3.43989C22.9538 2.8998 23.277 2.58046 23.8128 2.58046C24.2975 2.58046 24.6037 2.88051 24.6399 3.36274C24.6803 3.90926 24.3528 4.19431 23.8468 4.29504Z" fill="#111213"/>
<path d="M26.3578 2.55902C26.8765 2.63832 27.2146 2.9148 27.1891 3.46132C27.1615 3.99713 26.8255 4.3079 26.2897 4.27361C25.8114 4.24361 25.5137 3.93498 25.5094 3.44418C25.5031 2.89765 25.8369 2.62761 26.3599 2.55902H26.3578Z" fill="#111213"/>
<path d="M15.2742 22.2875C14.7597 22.1953 14.4238 21.9146 14.4599 21.3702C14.4961 20.8344 14.8405 20.5301 15.3742 20.5751C15.8483 20.6136 16.1459 20.9265 16.1417 21.4173C16.1374 21.9639 15.7994 22.2296 15.2742 22.2896V22.2875Z" fill="#111213"/>
<path d="M18.7079 21.4774C18.6016 21.9853 18.3125 22.3197 17.7746 22.2639C17.2494 22.2103 16.9517 21.8567 17.0134 21.3166C17.0687 20.8408 17.3834 20.5472 17.8724 20.5708C18.4124 20.5943 18.6697 20.9373 18.7101 21.4774H18.7079Z" fill="#111213"/>
</svg>
