<svg width="48" height="50" viewBox="0 0 48 50" fill="none" xmlns="http://www.w3.org/2000/svg">
<path d="M37.8707 48.0452C36.6295 46.5503 36.4391 44.9538 36.4609 43.2576C36.5105 39.4491 36.4768 35.6406 36.4768 31.834V30.6675C34.5456 32.5805 32.7928 34.3294 31.0241 36.0627C29.2217 37.8292 27.6414 39.8908 24.8933 40.4359C24.927 40.5395 24.9627 40.6431 24.9964 40.7447C26.3804 40.7447 27.7663 40.7291 29.1503 40.7505C29.9018 40.7623 30.8615 40.5063 30.9606 41.6983C31.0241 42.4526 30.4927 42.7242 29.0909 42.7242C22.2879 42.7242 15.4849 42.7242 8.67987 42.7242C8.41616 42.7242 8.14848 42.7418 7.88873 42.7125C7.25027 42.6421 6.81207 42.3138 6.85767 41.6455C6.89931 41.0339 7.32363 40.7466 7.94425 40.7466C9.19936 40.7466 10.4545 40.7447 11.7096 40.7447C13.857 40.7447 16.0044 40.7095 18.1497 40.7642C18.8398 40.7818 19.1729 40.5473 19.385 39.9494C19.5813 39.4003 19.8669 38.8844 20.0691 38.3372C21.1755 35.3377 22.7142 32.6274 25.3136 30.6127C25.3929 30.5502 25.5595 30.4818 25.4504 30.2219C23.2872 30.2219 21.0883 30.2219 18.8893 30.2219C17.5014 30.2219 16.1154 30.2219 14.7274 30.2219C14.0315 30.2219 13.4247 30.0226 13.4168 29.2253C13.4089 28.4203 13.9978 28.2385 14.7096 28.2405C18.7386 28.2483 22.7677 28.2327 26.7968 28.2561C27.4352 28.26 27.9032 28.0959 28.3592 27.6367C30.8595 25.1296 33.3797 22.644 35.9216 20.1779C36.334 19.7793 36.4887 19.3865 36.4867 18.8237C36.4669 13.5184 36.451 8.21303 36.4986 2.90768C36.5066 2.05179 36.2389 1.93259 35.4576 1.93455C24.6573 1.9619 13.859 1.9619 3.05862 1.93455C2.23972 1.93259 1.95816 2.0557 1.96808 2.96044C2.02359 7.93946 1.99583 12.9204 1.99385 17.8994C1.99385 18.1593 2.02558 18.427 1.97997 18.6791C1.88281 19.2263 1.54574 19.5467 0.960811 19.5292C0.421488 19.5135 0.120101 19.195 0.0229439 18.6948C-0.018695 18.4739 0.00906425 18.2395 0.00906425 18.0128C0.00906425 12.512 0.00906425 7.01127 0.00906425 1.51051C0.0150127 0.236445 0.26088 0 1.57945 0C13.3692 0 25.159 0 36.9507 0C38.1979 0 38.4596 0.255986 38.4616 1.46752C38.4636 6.47976 38.4616 11.492 38.4616 16.5042V17.6845C39.6691 16.4866 40.72 15.4334 41.7828 14.3938C42.5779 13.6141 42.9725 13.6122 43.7755 14.3938C44.9751 15.5604 46.1648 16.7348 47.3485 17.9151C48.2269 18.7905 48.221 19.1149 47.3069 20.0177C44.5548 22.7378 41.8046 25.4579 39.0326 28.1584C38.6282 28.5531 38.4299 28.9381 38.4477 29.5126C38.4894 30.943 38.4874 32.3773 38.4477 33.8077C38.4319 34.3626 38.6004 34.5151 39.1615 34.5072C41.6043 34.4779 44.0491 34.4897 46.4939 34.4955C47.7709 34.4994 47.9711 34.7085 47.9731 35.9904C47.9751 38.7574 47.983 41.5244 47.9731 44.2894C47.9612 47.4824 45.4411 49.9914 42.2131 49.9934C30.0585 50.0012 17.9059 50.0032 5.75127 49.9934C2.57878 49.9914 0.0288923 47.4804 0.0209611 44.3597C0.00708144 38.8258 0.0209611 33.2938 0.00906425 27.7598C0.00906425 27.0231 0.169671 26.386 1.02228 26.3978C1.87687 26.4095 2.00971 27.0622 2.00773 27.7891C1.99385 33.1277 1.9998 38.4643 2.00178 43.8028C2.00178 46.5561 3.48889 48.0413 6.24895 48.0413C16.7182 48.0413 27.1854 48.0413 37.8727 48.0413L37.8707 48.0452ZM24.346 34.3411C25.1847 35.1443 26.0274 35.9181 26.8265 36.7329C27.1913 37.1062 27.3738 36.8717 27.6176 36.6313C33.451 30.8785 39.2825 25.1237 45.1298 19.3865C45.5382 18.9859 45.4212 18.7788 45.0743 18.4603C44.4477 17.8838 43.829 17.2937 43.26 16.6625C42.8892 16.2521 42.677 16.26 42.2765 16.6586C36.338 22.5365 30.3817 28.3968 24.348 34.3411H24.346ZM38.4616 40.8287C38.4616 41.9973 38.4418 43.1678 38.4656 44.3363C38.5092 46.4194 40.1866 48.0549 42.2408 48.0452C44.2554 48.0354 45.9427 46.4311 45.9764 44.4027C46.0161 41.9679 45.9705 39.5312 46.0002 37.0964C46.0062 36.5571 45.8099 36.4633 45.3201 36.4672C43.2441 36.4906 41.1681 36.4945 39.0941 36.4652C38.5568 36.4574 38.4358 36.6372 38.4497 37.1277C38.4814 38.3607 38.4596 39.5957 38.4616 40.8287ZM23.2396 36.1956C22.7419 37.2899 22.2165 38.4467 21.6038 39.797C22.9719 39.2068 24.1477 38.6988 25.3017 38.2024C24.6058 37.5243 23.9376 36.8736 23.2396 36.1956Z" fill="#0A0B0C"/>
<path d="M17.8166 6.37228C22.7082 6.35079 26.7432 10.2492 26.769 15.0269C26.7968 19.9591 22.843 23.9356 17.8821 23.9669C13.0381 23.9982 8.95746 20.0411 8.9297 15.2849C8.90194 10.3371 12.8319 6.39573 17.8166 6.37228ZM17.8662 8.35373C14.0414 8.34591 10.9323 11.3689 10.9165 15.1129C10.9006 18.8941 14.0592 22.0108 17.8821 21.9796C21.691 21.9483 24.7862 18.8843 24.7842 15.1461C24.7802 11.3982 21.6891 8.36154 17.8682 8.35373H17.8662Z" fill="#0F1010"/>
<path d="M11.3071 34.4955C12.3917 34.4955 13.4783 34.4955 14.5629 34.4955C15.1954 34.4955 15.6792 34.7105 15.7069 35.4139C15.7367 36.1643 15.237 36.4594 14.5728 36.4652C12.4016 36.4867 10.2304 36.4789 8.05925 36.4711C7.38708 36.4691 6.85371 36.1878 6.85172 35.4745C6.84974 34.7632 7.35337 34.4838 8.04934 34.4916C9.13393 34.5033 10.2205 34.4955 11.3051 34.4955H11.3071Z" fill="#0F1010"/>
<path d="M8.29124 28.2522C9.11212 28.2073 9.83188 28.3225 9.80015 29.2625C9.7724 30.1184 9.07445 30.2239 8.36262 30.2297C7.6151 30.2336 6.8656 30.1281 6.85965 29.2253C6.85371 28.3089 7.59329 28.1916 8.29124 28.2522Z" fill="#0F1010"/>
<path d="M2.00377 22.9117C1.97402 23.5487 1.61514 23.9259 1.02029 23.9317C0.429419 23.9376 0.0189783 23.5839 0.0229439 22.9547C0.0269095 22.386 0.363986 22.0441 0.942965 22.0148C1.56953 21.9835 1.91652 22.3176 2.00377 22.9117Z" fill="#0F1010"/>
<path d="M13.2919 15.1813C13.278 11.8476 16.8213 9.65515 19.8589 11.1149C20.5311 11.4373 21.1358 11.8535 20.7076 12.6762C20.315 13.4304 19.6904 13.2507 19.0182 12.9243C18.0268 12.4417 17.0275 12.512 16.1729 13.2683C15.3996 13.9502 15.0823 14.81 15.3877 15.8125C15.7109 16.8716 16.4406 17.5086 17.5708 17.6474C18.2231 17.7275 18.7981 17.5731 19.2819 17.0944C19.7697 16.6117 20.3407 16.5042 20.8265 17.0553C21.3163 17.6083 21.0625 18.132 20.5945 18.5912C19.5 19.664 17.656 19.9591 16.0876 19.3064C14.4141 18.6107 13.3018 16.9673 13.2939 15.1813H13.2919Z" fill="#0F1010"/>
</svg>
