<svg width="48" height="48" viewBox="0 0 48 48" fill="none" xmlns="http://www.w3.org/2000/svg">
<path d="M47.9898 23.8487C47.9898 24.8946 47.909 25.7851 47.8532 26.6778C47.7973 27.558 47.4516 28.024 46.6072 28.1586C46.5058 28.1752 46.4085 28.2124 46.3112 28.2476C45.0921 28.6909 43.5088 28.6204 42.6974 29.5359C41.8944 30.443 41.7577 31.9321 41.1078 33.067C40.9009 33.4274 41.0789 33.6511 41.2175 33.91C41.7991 35.0014 42.3766 36.097 42.9872 37.1698C43.3328 37.7787 43.3432 38.2737 42.8692 38.8536C41.6439 40.3572 40.2882 41.7179 38.7773 42.9336C38.2785 43.3354 37.8169 43.4162 37.2809 43.062C37.1381 42.9688 36.9787 42.9026 36.8255 42.8218C35.6727 42.215 34.5322 41.1546 33.367 41.1277C32.2017 41.1007 31.0323 42.1508 29.7656 42.4925C29.391 42.594 29.2544 42.8777 29.153 43.2402C28.8404 44.3627 28.443 45.4645 28.1616 46.5953C27.9608 47.403 27.6048 47.7944 26.7065 47.8752C24.8789 48.0388 23.07 48.0471 21.2424 47.8669C20.4021 47.7841 20.0398 47.4237 19.8412 46.6554C19.5493 45.5266 19.1374 44.4289 18.8518 43.3002C18.7214 42.7887 18.4648 42.5567 17.9867 42.4179C17.4278 42.2564 16.8214 42.1176 16.3619 41.7925C15.0373 40.8522 13.8472 41.0862 12.6674 42.0161C12.6426 42.0369 12.6012 42.0389 12.5722 42.0534C9.76768 43.5695 9.75112 43.586 7.47025 41.4073C6.65063 40.6244 5.94692 39.7214 5.16041 38.9012C4.614 38.3317 4.64504 37.7787 5.0176 37.1346C5.61783 36.0929 6.15596 35.018 6.75205 33.9742C6.97558 33.5807 7.0087 33.2617 6.78309 32.8434C6.42503 32.1827 6.00901 31.5013 5.87033 30.7806C5.63645 29.5731 4.93067 29.0906 3.813 28.8731C2.90852 28.6971 2.03509 28.3636 1.14716 28.1027C0.567633 27.9328 0.250961 27.6222 0.17231 26.9532C-0.0553623 24.9898 -0.0595018 23.0389 0.17231 21.0734C0.248891 20.4107 0.549005 20.0855 1.13474 19.9136C2.31864 19.5636 3.49012 19.1701 4.68644 18.8678C5.18939 18.7393 5.44397 18.5074 5.58885 18.0248C5.77513 17.4014 5.92208 16.7221 6.28429 16.2085C7.13081 15.0114 6.93419 13.9552 6.12077 12.8782C5.97796 12.6897 5.88896 12.4578 5.77513 12.2465C4.90583 10.62 5.10315 9.11023 6.36707 7.71709C7.22602 6.77061 8.18432 5.93389 9.16745 5.11789C9.69523 4.68089 10.1816 4.60012 10.7529 4.96463C10.9267 5.0744 11.1109 5.16967 11.2952 5.25665C12.4625 5.80549 13.5326 6.99221 14.7496 6.86795C15.919 6.74783 17.0428 5.86348 18.264 5.50104C18.6531 5.38506 18.7442 5.07854 18.8415 4.72646C19.1726 3.53766 19.5452 2.35922 19.8888 1.1725C20.0709 0.54496 20.4186 0.240512 21.1223 0.15974C23.0513 -0.0556517 24.9659 -0.0515095 26.8949 0.161811C27.611 0.240512 27.9277 0.580168 28.1077 1.19942C28.4513 2.38614 28.8363 3.56044 29.1468 4.75545C29.2689 5.22352 29.5152 5.43684 29.9457 5.58181C30.6577 5.82206 31.4152 6.01674 32.0403 6.41231C33.0462 7.04813 33.8844 6.94665 34.8262 6.29012C35.5816 5.76407 36.4592 5.4182 37.2622 4.95428C37.8107 4.6374 38.2599 4.66433 38.7649 5.06819C40.3048 6.30462 41.6915 7.68188 42.9209 9.22897C43.3245 9.73846 43.368 10.1982 43.0348 10.7305C42.9251 10.9045 42.834 11.0909 42.7471 11.2773C42.1903 12.4454 41.0147 13.5244 41.1182 14.738C41.2175 15.902 42.1262 17.0266 42.4822 18.2526C42.5939 18.6358 42.8878 18.7476 43.2438 18.847C44.4339 19.1784 45.6116 19.5491 46.7976 19.895C47.4164 20.0752 47.7704 20.3921 47.8304 21.1128C47.909 22.0758 48.0229 23.0327 47.996 23.8528L47.9898 23.8487ZM10.1216 6.55522C9.91877 6.69812 9.70558 6.81203 9.54 6.97357C8.67899 7.81857 7.84695 8.69049 6.97351 9.521C6.52851 9.94349 6.6051 10.3184 6.87416 10.7926C7.45369 11.8054 7.96285 12.8596 8.55273 13.8661C8.87147 14.4087 8.85285 14.8519 8.54238 15.3925C7.85523 16.5854 7.30674 17.8467 6.988 19.1908C6.84312 19.8059 6.45814 20.1042 5.88275 20.2678C4.76095 20.5888 3.66191 20.9927 2.52769 21.2536C1.92125 21.3924 1.74946 21.7072 1.71427 22.2415C1.63562 23.4138 1.64597 24.5839 1.71014 25.7561C1.74325 26.363 2.01025 26.6426 2.61462 26.7855C3.68054 27.0402 4.7092 27.4482 5.77306 27.7112C6.50368 27.8914 6.86588 28.2911 7.03767 29.0057C7.30467 30.1095 7.69792 31.1927 8.30436 32.1433C8.88389 33.0525 8.7804 33.7712 8.29608 34.6928C7.71034 35.8071 6.40019 36.8675 6.80793 38.1163C7.19084 39.2885 8.48857 40.0693 9.44272 40.9682C9.87737 41.3783 10.2479 41.4652 10.7943 41.1359C11.794 40.5353 12.8578 40.0424 13.8637 39.4501C14.4081 39.1291 14.8489 39.1539 15.3891 39.4625C16.5834 40.146 17.8418 40.6989 19.1871 41.0179C19.8039 41.1629 20.0957 41.5543 20.2592 42.128C20.5801 43.2484 20.9837 44.3503 21.2424 45.4852C21.381 46.0962 21.7019 46.2598 22.2338 46.295C23.4053 46.3758 24.5747 46.3633 25.7462 46.2991C26.3547 46.266 26.6299 45.9967 26.7748 45.3941C27.0294 44.3275 27.4351 43.2981 27.6979 42.2336C27.878 41.5025 28.2775 41.138 28.9915 40.9682C30.0947 40.7031 31.1772 40.3075 32.1293 39.7007C33.0358 39.1249 33.754 39.2202 34.6771 39.7069C35.7907 40.2951 36.8483 41.6061 38.0984 41.1981C39.2699 40.8149 40.0523 39.5164 40.9505 38.5616C41.3583 38.1267 41.4473 37.7559 41.1182 37.2071C40.5159 36.2068 40.0254 35.1423 39.4334 34.1378C39.1147 33.5952 39.1374 33.1519 39.4458 32.6135C40.1309 31.4205 40.6794 30.1592 41.0002 28.8131C41.1472 28.1979 41.5321 27.8997 42.1075 27.7382C43.1962 27.4316 44.2663 27.0444 45.3674 26.7979C46.0483 26.6446 46.2802 26.2884 46.2781 25.6629C46.2781 24.5611 46.2781 23.4573 46.2781 22.3554C46.2781 21.7383 46.0711 21.3572 45.3757 21.2143C44.4381 21.0217 43.5419 20.6406 42.6084 20.4231C41.6501 20.1995 41.0644 19.7542 40.8512 18.7083C40.6753 17.8488 40.3586 16.9499 39.8598 16.2396C39.007 15.0259 39.2678 14.0463 39.9405 12.8658C41.6315 9.9 41.5446 9.90829 39.096 7.50998C38.2412 6.67327 37.5313 6.46409 36.5627 7.21796C36.1611 7.53069 35.6313 7.67153 35.2173 7.96976C34.05 8.81683 32.9075 9.02394 31.6801 8.07124C31.3386 7.80615 30.8895 7.58247 30.4673 7.53276C28.294 7.27802 27.5655 5.82413 27.108 3.9146C26.5596 1.63227 26.4602 1.65506 24.1048 1.64884C21.5218 1.64263 21.3955 1.61156 20.816 4.09271C20.3834 5.94218 19.3755 6.71676 17.6928 7.59904C15.1283 8.94109 13.1662 8.5683 11.0633 7.04399C10.7901 6.84724 10.461 6.72712 10.1216 6.55107V6.55522Z" fill="#111212"/>
<path d="M12.2804 24.8345C11.4876 24.8345 10.6949 24.8283 9.90221 24.8345C8.9791 24.8449 8.14706 24.7248 7.44541 25.7644C6.68375 26.8932 4.94516 26.7213 3.98479 25.7064C3.00166 24.6668 3.08859 23.0679 4.17935 22.1235C5.23492 21.2101 6.84312 21.2702 7.64618 22.4259C8.12222 23.1135 8.62931 23.1963 9.33924 23.188C11.5104 23.159 13.6816 23.1632 15.8527 23.188C16.3598 23.1942 16.6517 23.099 16.5461 22.5211C16.5399 22.488 16.5461 22.4528 16.5461 22.4176C16.542 21.6244 16.8255 20.6385 16.4571 20.0897C16.0514 19.4829 14.9979 19.9344 14.2321 19.8784C13.8575 19.8515 13.5843 19.7293 13.3297 19.4725C12.3362 18.468 11.3365 17.4677 10.3327 16.4736C9.90842 16.0552 9.72007 15.6058 10.2127 15.1398C10.7156 14.6655 11.1482 14.9389 11.5477 15.3449C12.3714 16.1774 13.2138 16.9934 14.0314 17.8343C14.7289 18.5509 15.592 18.1201 16.3743 18.1739C16.6641 18.1947 16.5358 17.7784 16.5378 17.563C16.544 16.8774 16.8669 16.5026 17.5479 16.5668C18.1253 16.6206 18.175 16.3659 18.2205 15.8709C18.3116 14.8706 18.0653 14.0981 17.256 13.4415C16.5378 12.8575 15.9335 12.1347 15.2711 11.4802C14.8779 11.0929 14.7061 10.6684 15.1283 10.221C15.594 9.73017 16.0411 9.90829 16.4613 10.3329C17.4547 11.3373 18.4441 12.348 19.4603 13.3297C20.1537 13.9987 19.8474 14.8333 19.8225 15.5789C19.7956 16.4115 20.0605 16.5916 20.8471 16.5751C23.161 16.5254 23.161 16.5606 23.161 14.212C23.161 12.901 23.1652 11.59 23.161 10.2811C23.1569 9.19377 23.3121 8.18515 22.1427 7.33808C21.0457 6.54279 21.3272 4.80516 22.4014 3.89389C23.4674 2.9909 24.9928 3.12966 25.8972 4.21283C26.7934 5.28565 26.7003 6.87209 25.5392 7.67981C24.8955 8.12716 24.7982 8.60351 24.8086 9.28282C24.8375 11.387 24.8479 13.4912 24.8023 15.5934C24.7879 16.31 24.8851 16.6745 25.7255 16.573C26.4706 16.4819 27.4392 16.8153 27.9359 16.4508C28.472 16.0573 28.087 15.0425 28.1139 14.301C28.1284 13.8868 28.263 13.5844 28.5465 13.3048C29.5276 12.3356 30.5004 11.3601 31.4711 10.3784C31.8726 9.97249 32.3073 9.69704 32.8061 10.1755C33.3546 10.6994 33.0503 11.1592 32.6177 11.5859C31.9306 12.2631 31.2848 12.988 30.5563 13.6197C29.9622 14.1374 29.7201 14.7049 29.7615 15.494C29.7967 16.1526 29.7056 16.689 30.6825 16.5896C31.2517 16.5316 31.4959 17.0514 31.4297 17.6003C31.3676 18.1263 31.5911 18.1926 32.063 18.2278C33.0876 18.3086 33.9051 18.089 34.5819 17.2337C35.1552 16.5088 35.8838 15.9061 36.5399 15.2454C36.9394 14.8457 37.3719 14.7297 37.8004 15.1647C38.2288 15.6017 38.0922 16.0304 37.6969 16.426C36.6703 17.447 35.6437 18.468 34.6254 19.4974C33.9569 20.1725 33.1186 19.8515 32.3694 19.8349C31.5891 19.8184 31.4028 20.0317 31.4193 20.8021C31.4649 23.1756 31.4297 23.1777 33.8265 23.1777C35.6189 23.1777 37.4113 23.1652 39.2037 23.1859C39.6176 23.1901 39.8577 23.0803 40.1061 22.7158C40.8346 21.6388 41.8819 21.2806 42.9541 21.6451C43.9889 21.9971 44.6637 22.9084 44.6782 23.9729C44.6927 25.0768 43.9951 26.0316 42.9189 26.3816C41.8488 26.7295 40.8346 26.3609 40.0792 25.2694C39.8577 24.9484 39.6549 24.8242 39.2699 24.8262C36.8918 24.8449 34.5136 24.8469 32.1355 24.8262C31.6346 24.8221 31.3303 24.907 31.438 25.489C31.4442 25.5221 31.438 25.5573 31.438 25.5925C31.4421 26.3858 31.1606 27.3695 31.527 27.9204C31.9326 28.5335 32.9841 28.0757 33.7499 28.1337C34.1224 28.1627 34.3977 28.2787 34.6544 28.5376C35.6478 29.5421 36.6475 30.5424 37.6514 31.5365C38.0757 31.9549 38.264 32.4043 37.7735 32.8724C37.2726 33.3466 36.84 33.0774 36.4385 32.6715C35.6396 31.8617 34.8034 31.0871 34.0376 30.2483C33.3173 29.4613 32.4273 29.8983 31.6139 29.8424C31.32 29.8217 31.4504 30.2379 31.4483 30.4533C31.4421 31.1368 31.1192 31.5137 30.4383 31.4516C29.8608 31.3977 29.8111 31.6525 29.7656 32.1475C29.6725 33.1499 29.925 33.9203 30.7301 34.5769C31.4483 35.1609 32.0527 35.8837 32.715 36.5382C33.1083 36.9275 33.278 37.3542 32.8537 37.7994C32.388 38.2903 31.9409 38.1101 31.5208 37.6835C30.5273 36.679 29.5421 35.6662 28.5217 34.6887C27.8532 34.0487 28.1429 33.2555 28.1574 32.541C28.174 31.7478 28.0684 31.406 27.1329 31.4371C24.823 31.5158 24.823 31.4599 24.823 33.8106C24.823 35.1215 24.8189 36.4325 24.823 37.7415C24.8272 38.8308 24.674 39.8353 25.8434 40.6824C26.9425 41.4777 26.6548 43.2194 25.5806 44.1245C24.5084 45.0275 22.9913 44.8867 22.0848 43.8014C21.1865 42.7245 21.2817 41.1401 22.447 40.3344C23.0948 39.8871 23.1838 39.4066 23.1755 38.7314C23.1486 36.5589 23.1486 34.3863 23.1755 32.2138C23.1817 31.6649 23.0886 31.3501 22.4635 31.4599C22.3973 31.4723 22.3269 31.4599 22.2566 31.4599C21.5011 31.4702 20.5407 31.201 20.044 31.5676C19.51 31.9611 19.9053 32.9759 19.8639 33.7174C19.8432 34.0819 19.7687 34.376 19.5017 34.6369C18.471 35.6517 17.4485 36.679 16.4323 37.7083C16.0473 38.0977 15.6251 38.2841 15.1739 37.8678C14.6813 37.4122 14.8365 36.9627 15.2691 36.5361C16.0307 35.7864 16.751 34.9931 17.5437 34.2786C18.0467 33.8251 18.2599 33.3425 18.2143 32.6673C18.1709 31.9963 18.4027 31.2693 17.2374 31.4164C16.7469 31.4785 16.4861 30.9649 16.5523 30.4554C16.6289 29.8734 16.3474 29.832 15.859 29.7844C14.8572 29.6891 14.0872 29.9459 13.4332 30.7516C12.8475 31.4702 12.1272 32.075 11.4731 32.7377C11.0489 33.1685 10.5976 33.3259 10.1423 32.8309C9.72835 32.3794 9.90842 31.9611 10.3017 31.5717C11.3055 30.5776 12.3238 29.5959 13.2883 28.5645C13.8968 27.9142 14.644 28.1255 15.3229 28.1731C16.2646 28.2394 16.6268 28.0447 16.5772 26.9843C16.4757 24.8387 16.5482 24.8345 14.3501 24.8345C13.6609 24.8345 12.9716 24.8345 12.2824 24.8345H12.2804ZM18.2019 23.9025C18.2019 25.6277 18.2267 27.3509 18.1874 29.074C18.175 29.658 18.3406 29.8196 18.9263 29.8154C22.3042 29.7885 25.6799 29.7885 29.0578 29.8154C29.6414 29.8196 29.8029 29.6622 29.7967 29.0761C29.7697 25.6961 29.7697 22.3182 29.7967 18.9382C29.8008 18.3541 29.6435 18.1926 29.0578 18.1988C25.6799 18.2257 22.3042 18.2257 18.9263 18.1988C18.3427 18.1947 18.1729 18.3521 18.1854 18.9382C18.2247 20.593 18.1998 22.2477 18.1998 23.9025H18.2019ZM24.821 5.8117C24.7692 5.34364 24.5229 5.01848 24.0614 4.98327C23.5419 4.94392 23.2024 5.2608 23.1879 5.77235C23.1735 6.29012 23.5088 6.60907 24.0262 6.59871C24.496 6.58835 24.7423 6.2632 24.821 5.8117ZM5.83515 24.8345C6.31533 24.7247 6.65063 24.4472 6.59475 23.9232C6.54507 23.4697 6.23047 23.1652 5.7565 23.1984C5.24527 23.2356 4.93481 23.5712 4.98448 24.091C5.03002 24.5487 5.35497 24.7972 5.83515 24.8366V24.8345ZM43.0244 24.0268C42.9686 23.5504 42.7181 23.2294 42.2566 23.1984C41.737 23.1632 41.408 23.48 41.3873 23.9937C41.3686 24.4659 41.675 24.7765 42.1324 24.8117C42.6581 24.8532 42.9272 24.5114 43.0224 24.0268H43.0244ZM24.821 42.1839C24.7258 41.7283 24.4753 41.4073 24.0034 41.4114C23.486 41.4155 23.1672 41.7407 23.1859 42.2585C23.2024 42.7224 23.5129 43.0268 23.9807 43.0268C24.5022 43.0268 24.763 42.6851 24.821 42.1818V42.1839Z" fill="#050606"/>
<path d="M27.3047 24.0682C27.3047 24.791 27.2902 25.5118 27.3088 26.2346C27.3274 26.9553 27.0232 27.326 26.2781 27.3219C24.732 27.3115 23.1859 27.3198 21.6398 27.3177C21.0085 27.3177 20.6877 26.9988 20.6877 26.3671C20.6877 24.7848 20.6835 23.2046 20.6877 21.6223C20.6898 20.9865 21.0354 20.6924 21.6605 20.6924C23.2066 20.6944 24.7527 20.6965 26.2988 20.6924C26.9797 20.6903 27.3109 21.0113 27.3067 21.6948C27.3005 22.4859 27.3067 23.2771 27.3067 24.0682H27.3047ZM24.0303 22.3513C22.9044 22.3513 22.3414 22.9257 22.3414 24.0744C22.3414 25.1321 22.8809 25.6609 23.96 25.6609C25.0859 25.6609 25.6489 25.0865 25.6489 23.9377C25.6489 22.8801 25.1094 22.3513 24.0303 22.3513Z" fill="#050606"/>
</svg>
