<svg width="48" height="48" viewBox="0 0 48 48" fill="none" xmlns="http://www.w3.org/2000/svg">
<path d="M5.64744 35.5448C5.64744 34.3282 5.62495 33.1096 5.65869 31.893C5.67181 31.3774 5.54062 31.1562 4.98777 31.1956C4.39743 31.2387 3.80335 31.2068 3.20927 31.1956C2.99187 31.1918 2.76324 31.1918 2.55896 31.1281C0.383156 30.4663 -0.132216 29.2403 0.0476955 26.1827C0.141399 24.5949 1.41577 23.2826 3.01436 23.2488C5.29137 23.2001 7.57025 23.2057 9.84913 23.2488C11.3147 23.2751 12.5122 24.3212 12.7558 25.8078C12.8477 26.3646 13.0613 26.4395 13.5317 26.432C15.0291 26.4095 16.5283 26.4077 18.0257 26.4339C18.4418 26.4414 18.7116 26.2971 18.9928 26.0084C20.2334 24.7336 21.5003 23.4832 22.7559 22.2234C23.1345 21.8447 23.4474 19.8613 23.2019 19.4189C23.0445 19.1321 22.7709 19.2183 22.5366 19.2183C21.2566 19.2108 19.9766 19.2277 18.6985 19.2108C16.4909 19.1827 15.2296 17.906 15.2202 15.7145C15.2184 15.2459 15.2052 14.7772 15.224 14.3104C15.2971 12.6176 16.5808 11.3034 18.2675 11.2509C19.6393 11.2097 21.013 11.2509 22.3867 11.2228C22.6978 11.2172 23.2488 11.4665 23.2169 10.8216C23.1907 10.3099 23.5599 9.66497 22.651 9.39314C20.715 8.81199 19.5906 7.45848 19.2776 5.4507C18.8878 2.94614 20.6457 0.554054 23.2263 0.072263C25.657 -0.381408 28.2226 1.35454 28.7042 3.77849C29.2102 6.32805 27.9227 8.58703 25.3927 9.39126C24.4913 9.67809 24.853 10.308 24.8249 10.8198C24.7893 11.4665 25.3403 11.2172 25.6514 11.2247C26.9314 11.2509 28.2114 11.2247 29.4895 11.2397C31.2305 11.2622 32.383 12.1395 32.7522 13.8492C32.8703 14.3966 33.0877 14.4473 33.5431 14.4416C35.3834 14.421 37.2257 14.421 39.0679 14.4379C41.105 14.4566 42.3775 15.7408 42.3906 17.7786C42.4 19.3701 42.4131 20.9636 42.3813 22.5552C42.37 23.0895 42.5312 23.2807 43.0653 23.2376C43.5919 23.1964 44.126 23.2245 44.6564 23.2301C44.9056 23.2339 45.1586 23.2339 45.4041 23.2713C47.2614 23.5582 48.0466 24.9885 47.9979 27.9693C47.9698 29.6377 46.8622 31.0362 45.2917 31.1375C42.8329 31.2949 40.3629 31.2856 37.9022 31.1375C36.5847 31.0587 35.5352 30.0033 35.2804 28.6029C35.1923 28.1211 35.033 27.9861 34.5738 27.9936C33.0446 28.0161 31.5154 28.0161 29.9861 27.9936C29.5644 27.988 29.3058 28.1642 29.0284 28.4473C27.829 29.6752 26.609 30.8825 25.389 32.0898C24.3939 33.0759 23.6536 33.0796 22.6678 32.1029C21.4703 30.9163 20.2709 29.7333 19.0996 28.5204C18.751 28.1605 18.408 27.9749 17.8889 27.988C16.4234 28.0236 14.956 28.0124 13.4886 27.9936C13.0519 27.988 12.8551 28.0743 12.7614 28.5785C12.4635 30.1739 11.3203 31.1056 9.69545 31.1956C9.60175 31.2012 9.50804 31.1993 9.41434 31.2012C7.96006 31.2312 7.23291 31.9605 7.23291 33.389C7.23291 35.3555 7.24978 37.322 7.22167 39.2886C7.21417 39.8097 7.34911 39.9934 7.89259 39.9803C8.66846 39.9634 9.44995 39.8884 10.2239 40.0572C11.6183 40.3609 12.4935 41.2157 12.7521 42.5973C12.8477 43.111 13.0482 43.1766 13.4736 43.171C14.6599 43.1541 15.8462 43.1541 17.0306 43.171C17.4298 43.1766 17.5891 43.0979 17.6809 42.6386C18.0145 40.9889 19.227 40.0028 20.9249 39.9747C22.9845 39.9409 25.0442 39.9409 27.1038 39.9747C28.8073 40.0028 30.0142 40.9851 30.3497 42.6367C30.4415 43.0923 30.5971 43.1766 31 43.171C32.2481 43.1523 33.4963 43.1504 34.7444 43.171C35.1192 43.1785 35.2822 43.0379 35.4228 42.6967C36.223 40.747 37.4018 39.9709 39.5177 39.9634C40.9532 39.9597 42.3888 39.9484 43.8243 39.9653C46.2494 39.9953 48.0241 41.7519 47.9922 44.0671C47.9604 46.3261 46.1725 47.9833 43.7606 47.9889C42.2313 47.9908 40.7021 47.9945 39.1728 47.9889C37.4037 47.9795 36.0413 47.0628 35.4584 45.4019C35.2916 44.9294 35.0948 44.7776 34.6132 44.7926C33.4288 44.8263 32.2406 44.8113 31.0562 44.7982C30.6533 44.7945 30.4378 44.8132 30.3478 45.3531C30.0742 46.9822 28.7848 47.9795 27.1056 47.9889C25.0779 47.9983 23.0483 47.9964 21.0205 47.9889C19.2101 47.9833 18.0182 47.0441 17.6772 45.2538C17.5909 44.7982 17.3998 44.7982 17.07 44.8001C15.8537 44.8076 14.6355 44.8245 13.4192 44.7926C12.9301 44.7795 12.8383 44.9651 12.7577 45.415C12.4878 46.9335 11.2097 47.9739 9.64673 47.9852C7.49341 48.002 5.34009 48.0077 3.18678 47.9852C1.43264 47.9645 0.152644 46.5773 0.0289547 44.8226C-0.257779 40.7545 1.60318 39.686 4.80786 39.9766C5.53875 40.0422 5.69617 39.7797 5.66431 39.0973C5.60621 37.9144 5.64744 36.7259 5.64744 35.5392V35.5448ZM40.8033 20.2325C40.8033 19.4208 40.8276 18.609 40.7977 17.7973C40.7546 16.6163 40.1698 16.0332 38.9742 16.0164C37.1338 15.992 35.2916 16.0164 33.4513 16.0051C33.0765 16.0032 32.8834 16.0314 32.771 16.5075C32.3193 18.4009 31.2567 19.1939 29.2927 19.2108C28.0446 19.222 26.7964 19.2108 25.5483 19.2164C25.3084 19.2164 25.0329 19.1358 24.8493 19.3683C24.6768 19.5839 24.8361 21.781 25.046 21.9909C26.4966 23.4513 27.9546 24.9042 29.4089 26.3608C31.0599 26.3814 32.7091 26.4039 34.3602 26.4245C34.4539 26.4245 34.5495 26.4152 34.6413 26.4245C35.0742 26.4808 35.1942 26.2933 35.2729 25.8621C35.569 24.2405 36.759 23.2732 38.4157 23.2301C38.9142 23.217 39.4221 23.1739 39.9112 23.2395C40.7002 23.3463 40.8726 22.9939 40.8164 22.2928C40.7639 21.6104 40.8052 20.9205 40.8033 20.2344V20.2325ZM24.0097 17.6323C25.82 17.6323 27.6304 17.6492 29.4407 17.6267C30.5727 17.6136 31.1462 17.0137 31.1836 15.8851C31.1949 15.5739 31.1874 15.2609 31.1855 14.9478C31.1799 13.3206 30.6814 12.8088 29.0809 12.8069C25.7113 12.8032 22.3399 12.8032 18.9703 12.8069C17.3623 12.8069 16.8582 13.3187 16.8507 14.9328C16.8507 15.1203 16.8507 15.3077 16.8507 15.4952C16.8563 17.1187 17.3567 17.6286 18.9553 17.6305C20.6401 17.6323 22.3249 17.6305 24.0115 17.6305L24.0097 17.6323ZM6.46267 24.7973C5.77675 24.7973 5.09084 24.7973 4.40493 24.7973C1.92552 24.7973 1.62942 25.0991 1.6594 27.6075C1.6594 27.6393 1.6594 27.6693 1.6594 27.7012C1.68564 29.0622 2.23662 29.6152 3.60657 29.6209C5.41506 29.6284 7.22167 29.6246 9.03015 29.6209C10.7262 29.6209 11.2434 29.0941 11.2472 27.3769C11.2472 27.1894 11.2491 27.0019 11.2472 26.8163C11.2303 25.416 10.6456 24.8142 9.26816 24.7992C8.333 24.7898 7.39783 24.7973 6.46267 24.7973ZM41.6335 29.6227C42.2576 29.6227 42.8798 29.6227 43.5038 29.6227C46.1575 29.6227 46.4461 29.3247 46.3768 26.6626C46.3431 25.3729 45.779 24.8104 44.4615 24.8011C42.5612 24.788 40.659 24.7898 38.7568 24.8011C37.4168 24.8086 36.8152 25.4103 36.789 26.7339C36.7815 27.0769 36.7796 27.42 36.789 27.7631C36.8265 28.9872 37.4281 29.6002 38.6387 29.6209C39.6357 29.6377 40.6327 29.6246 41.6316 29.6246L41.6335 29.6227ZM23.9572 46.3729C24.9523 46.3729 25.9493 46.3842 26.9445 46.3711C28.2151 46.3542 28.7661 45.818 28.8148 44.5714C28.8317 44.1683 28.8335 43.7615 28.8148 43.3585C28.753 42.1718 28.1795 41.6281 26.9745 41.6244C25.046 41.6169 23.1157 41.6206 21.1873 41.6244C19.7986 41.6263 19.257 42.1474 19.2251 43.5178C19.2139 43.9527 19.1989 44.3914 19.2401 44.8245C19.3301 45.803 19.8886 46.3373 20.88 46.3673C21.9051 46.3973 22.9339 46.3748 23.9591 46.3767L23.9572 46.3729ZM6.41581 46.3729C7.34911 46.3729 8.2824 46.3786 9.21569 46.3729C10.6981 46.3617 11.2284 45.8293 11.2416 44.3483C11.2453 44.0052 11.2584 43.6622 11.2378 43.321C11.1722 42.2112 10.5688 41.6319 9.4462 41.6244C7.82887 41.6131 6.20779 41.6863 4.59234 41.6075C1.37829 41.4538 1.62942 42.5261 1.66877 44.6726C1.68939 45.7768 2.24224 46.3354 3.33296 46.3654C4.35808 46.3936 5.38695 46.3711 6.41394 46.3729H6.41581ZM41.5398 46.3692C41.5398 46.3692 41.5398 46.3673 41.5398 46.3654C42.4131 46.3654 43.2902 46.4029 44.1616 46.3561C45.4847 46.2867 46.3918 45.2575 46.3637 43.9359C46.3356 42.6386 45.361 41.6431 44.0436 41.6263C42.4206 41.6038 40.7977 41.6056 39.1747 41.6263C37.8329 41.6431 36.7928 42.7061 36.7984 44.009C36.804 45.265 37.8029 46.3055 39.1054 46.3636C39.915 46.3992 40.7283 46.3711 41.5398 46.3711V46.3692ZM24.0247 23.2863C23.8972 23.3932 23.7979 23.4644 23.7136 23.5488C22.5872 24.6717 21.474 25.8059 20.3346 26.9157C20.0235 27.2194 20.2053 27.375 20.4189 27.585C21.504 28.661 22.5929 29.7333 23.6536 30.8319C23.9497 31.1375 24.1184 31.1 24.3939 30.8169C25.4602 29.7221 26.5378 28.6385 27.636 27.5775C27.9415 27.2813 27.9078 27.1125 27.6248 26.837C26.5303 25.7703 25.4583 24.683 24.377 23.6032C24.272 23.4982 24.1558 23.4026 24.0247 23.2863ZM24.064 1.65824C22.2705 1.63574 20.8406 3.02862 20.8312 4.80769C20.8219 6.56801 22.2686 8.034 24.0172 8.034C25.7282 8.034 27.1731 6.613 27.2031 4.90142C27.235 3.10923 25.8519 1.68261 24.064 1.66011V1.65824Z" fill="#0E0F0F"/>
<path d="M20.314 16.007C19.7836 16.0445 19.2083 15.9282 19.242 15.1784C19.2757 14.421 19.8979 14.4266 20.4808 14.4304C21.0467 14.436 21.5865 14.4866 21.5865 15.214C21.5865 16.0145 20.9737 16.0089 20.3159 16.007H20.314Z" fill="#0E0F0F"/>
<path d="M6.37646 27.9824C5.84797 27.9824 5.3176 27.9918 4.78911 27.9805C4.28874 27.9693 4.03948 27.6375 4.04698 27.1988C4.05448 26.762 4.30935 26.4377 4.8116 26.4358C5.90044 26.432 6.98928 26.4227 8.07812 26.4414C8.55976 26.4489 8.82963 26.7601 8.82401 27.2194C8.81838 27.6824 8.53352 27.9674 8.05563 27.9824C7.49528 27.9993 6.93493 27.9861 6.37646 27.9861C6.37646 27.9861 6.37646 27.9843 6.37646 27.9824Z" fill="#0E0F0F"/>
<path d="M41.6391 26.4339C42.1676 26.4339 42.698 26.4302 43.2265 26.4339C43.7287 26.4377 43.9836 26.762 43.9911 27.1969C43.9986 27.6356 43.7475 27.973 43.249 27.9787C42.1601 27.9899 41.0713 27.9936 39.9824 27.9787C39.5046 27.973 39.2141 27.6787 39.2159 27.2157C39.2159 26.7039 39.5308 26.4302 40.0537 26.4283C40.5821 26.4264 41.1125 26.4283 41.641 26.4283C41.641 26.4283 41.641 26.4302 41.641 26.432L41.6391 26.4339Z" fill="#0E0F0F"/>
<path d="M23.9703 44.8076C23.4737 44.8076 22.9789 44.8132 22.4823 44.8076C21.9707 44.8001 21.6465 44.517 21.6183 44.0258C21.5902 43.5628 21.9126 43.2291 22.3474 43.2104C23.4606 43.1635 24.5775 43.1635 25.6888 43.2104C26.1255 43.2291 26.446 43.5647 26.416 44.0277C26.386 44.5189 26.0637 44.802 25.5502 44.8076C25.0235 44.8132 24.4969 44.8076 23.9703 44.8076Z" fill="#0E0F0F"/>
<path d="M6.35772 44.8076C5.86296 44.8076 5.36633 44.817 4.87157 44.8038C4.35058 44.7907 4.04885 44.4664 4.03761 43.9902C4.02636 43.5403 4.35058 43.2122 4.79848 43.1972C5.8817 43.1579 6.96679 43.1504 8.04814 43.1972C8.51853 43.2179 8.87461 43.5309 8.82775 44.0577C8.78278 44.5639 8.44169 44.8057 7.93757 44.8076C7.41095 44.8095 6.88433 44.8076 6.35772 44.8076Z" fill="#0E0F0F"/>
<path d="M41.566 44.8057C41.0394 44.8057 40.5128 44.8245 39.9862 44.7982C39.5233 44.7757 39.2347 44.4983 39.2047 44.0371C39.1747 43.5572 39.4821 43.2329 39.915 43.2122C41.0263 43.1598 42.1432 43.1616 43.2565 43.1991C43.6987 43.2141 44.0192 43.5516 43.9967 44.0071C43.9724 44.487 43.665 44.7963 43.1459 44.8038C42.6193 44.8113 42.0926 44.8038 41.566 44.8038V44.8057Z" fill="#0E0F0F"/>
<path d="M24.019 26.4208C24.6412 26.4958 25.5726 26.1583 25.5783 27.2082C25.5839 28.2561 24.6562 27.9861 24.0284 27.9843C23.4006 27.9843 22.4692 28.2636 22.4636 27.2175C22.4579 26.1658 23.3912 26.4939 24.019 26.4208Z" fill="#0E0F0F"/>
<path d="M23.9591 5.64379C23.7735 5.64379 23.5861 5.64004 23.4006 5.64379C22.8571 5.65504 22.4636 5.40946 22.4429 4.86018C22.4204 4.24154 22.8571 4.01095 23.425 4.00345C23.8279 3.99783 24.2308 3.99783 24.6337 4.00345C25.1622 4.01283 25.582 4.23216 25.5914 4.79456C25.6008 5.39821 25.1941 5.65691 24.6094 5.64379C24.392 5.64004 24.1746 5.64379 23.9591 5.64379Z" fill="#0E0F0F"/>
</svg>
