<svg width="46" height="46" viewBox="0 0 46 46" fill="none" xmlns="http://www.w3.org/2000/svg">
<path d="M43.6927 39.772C43.2747 39.701 42.9737 39.4957 42.9257 39.0468C42.8759 38.5863 43.1827 38.3599 43.5432 38.1796C44.2239 37.8362 44.4502 37.2606 44.4482 36.5258C44.4367 32.374 44.4482 28.2222 44.4406 24.0704C44.4406 23.0344 43.9267 22.3801 43.0849 22.2804C42.2431 22.1806 41.618 22.691 41.4051 23.7327C41.2997 24.2488 41.0696 24.5865 40.5307 24.5251C40.0475 24.4695 39.8519 24.1049 39.8596 23.6291C39.8654 23.1821 39.8788 22.7332 39.8539 22.288C39.8059 21.4209 39.2383 20.7992 38.456 20.7263C37.689 20.6534 36.9833 21.1753 36.8261 22.031C36.7379 22.5106 36.6458 22.9615 36.0974 22.9922C35.4301 23.0286 35.2307 22.5643 35.2633 21.9772C35.3036 21.2348 35.1732 20.569 34.4656 20.1623C33.5356 19.627 32.4522 20.145 32.224 21.2866C32.1186 21.8122 31.9901 22.2689 31.3803 22.2247C30.7073 22.1749 30.6555 21.6415 30.6555 21.0909C30.6631 17.7372 30.6651 14.3835 30.6555 11.0299C30.6516 9.89024 29.9671 9.14775 29.0237 9.21682C28.1454 9.28013 27.597 9.95931 27.5951 11.0395C27.5874 14.9035 27.5932 18.7694 27.5932 22.6334C27.5932 24.4215 27.5874 26.2115 27.597 27.9996C27.6009 28.5119 27.5587 29.0011 26.9604 29.1239C26.3449 29.2505 26.1455 28.7556 25.9365 28.3181C25.0947 26.5645 24.2644 24.8071 23.4092 23.0612C23.0161 22.2593 22.5156 21.5667 21.4667 21.6453C20.5482 21.5168 20.3871 21.8621 20.6307 22.7312C21.2826 25.0642 21.7102 27.4663 22.4753 29.757C23.4475 32.6675 24.7725 35.4341 27.0908 37.5752C27.482 37.9359 27.6315 38.3177 27.2941 38.7379C26.9796 39.1293 26.5654 39.0449 26.1781 38.7897C25.4973 38.3427 24.9815 37.7249 24.5347 37.0649C22.8301 34.5458 21.3459 31.927 20.6594 28.909C20.1283 26.578 19.4897 24.2719 18.8569 21.9676C18.6652 21.2712 18.8972 20.8856 19.4878 20.5748C21.5108 19.508 23.5261 20.0836 24.6402 22.0981C25.0947 22.9193 25.4762 23.7807 26.0553 24.5903C26.0553 24.2891 26.0553 23.9898 26.0553 23.6886C26.0553 19.5023 26.0534 15.3179 26.0553 11.1316C26.0553 9.08636 27.2864 7.69347 29.0927 7.67621C30.9354 7.65894 32.1857 9.06525 32.1895 11.168C32.1933 13.6583 32.1895 16.1505 32.1895 18.7425C33.7408 18.1516 35.0888 18.3415 36.1607 19.6232C36.3179 19.8112 36.4618 19.7555 36.6612 19.6845C39.0351 18.8365 39.6065 19.0111 41.2076 21.0237C41.2172 21.0352 41.2613 21.0199 41.3131 21.016C41.4722 20.7666 41.3821 20.4769 41.3821 20.2083C41.3879 14.2972 41.3744 8.38608 41.4032 2.47688C41.407 1.74974 41.2536 1.51951 40.477 1.52143C32.7168 1.55404 24.9566 1.54061 17.1964 1.54061C16.7227 1.54061 16.2031 1.44277 16.0248 2.07973C13.7314 4.43574 11.4361 6.79366 9.15427 9.13816C10.9241 9.13816 12.7611 9.11514 14.5981 9.15159C15.1849 9.1631 15.2731 8.91752 15.2597 8.41869C15.2309 7.27331 15.2693 6.126 15.2424 4.98061C15.229 4.36859 15.3977 3.92156 16.0267 3.7393C16.6518 3.95801 16.8896 4.37434 16.8685 5.05544C16.8225 6.55576 16.8282 8.058 16.8646 9.56024C16.8857 10.4217 16.5406 10.767 15.6758 10.7555C13.2808 10.7248 10.8858 10.7689 8.4908 10.7287C7.83117 10.7171 7.62408 10.8764 7.63751 11.5632C7.68161 13.9576 7.65476 16.3558 7.65476 18.7502C7.65476 19.1339 7.68928 19.5253 7.31536 19.7882C7.08526 19.9493 6.8494 19.9858 6.59629 19.8611C6.23771 19.6845 6.12266 19.3795 6.12458 18.9958C6.13033 17.3669 6.12074 15.738 6.12841 14.1073C6.13608 12.6396 5.76792 11.0088 6.28757 9.75018C6.80913 8.4916 8.22235 7.60138 9.25398 6.5596C11.2348 4.56428 13.2309 2.58623 15.1983 0.579409C15.5933 0.18802 15.973 0 16.5367 0C24.9029 0.0172671 33.2691 0.00959286 41.6371 0.01343C42.7857 0.01343 42.9238 0.163079 42.9238 1.37562C42.9238 7.50929 42.9334 13.643 42.9123 19.7766C42.9104 20.3887 42.9909 20.7033 43.6927 20.8626C45.1079 21.181 45.9765 22.3322 45.9842 23.7884C46.0053 28.1339 46.0053 32.4776 45.9842 36.8231C45.9765 38.2698 45.1922 39.2271 43.6947 39.7739L43.6927 39.772Z" fill="#1D1D1B"/>
<path d="M7.60682 41.4162C5.81969 41.4162 4.03064 41.4431 2.24542 41.4009C1.6414 41.3874 1.48033 41.5716 1.50909 42.1529C1.55703 43.1084 1.51676 44.0677 1.52443 45.027C1.52827 45.5795 1.33652 46.0093 0.730577 45.992C0.186 45.9786 0 45.5718 0 45.0596C0.00575258 43.6552 0.00383505 42.2489 0 40.8445C0 40.2171 0.308722 39.8603 0.935753 39.9101C1.49375 39.9543 1.49951 39.6703 1.54744 39.2367C1.91177 35.8754 2.29336 32.514 2.7133 29.1585C2.79959 28.4678 3.09105 27.8155 3.53975 27.2476C4.88777 25.5458 6.23579 23.8459 7.55505 22.1211C7.92322 21.6396 8.34124 21.465 8.9395 21.4727C11.1734 21.5014 13.4093 21.5091 15.6432 21.4727C16.5598 21.4573 16.8838 21.8218 16.8781 22.7236C16.8608 25.2139 15.3555 26.8543 12.8839 26.8754C12.1379 26.8811 11.6777 27.119 11.3748 27.7637C11.2942 27.9363 11.1984 28.1109 11.0699 28.2491C10.2894 29.0779 10.3451 29.8261 10.9069 30.8506C12.3067 33.3966 12.4428 36.2169 12.1725 39.0506C12.1092 39.7106 12.1629 39.9293 12.8896 39.9121C15.578 39.8487 15.3306 39.7164 15.3306 42.4024C15.3306 43.2964 15.3306 44.1905 15.3306 45.0845C15.3306 45.5968 15.1216 45.9882 14.577 45.9997C14.0248 46.0131 13.7928 45.6045 13.7793 45.1114C13.7525 44.1214 13.7352 43.1295 13.7755 42.1414C13.7985 41.5831 13.601 41.4431 13.0699 41.4527C11.2501 41.4814 9.43039 41.4642 7.61066 41.4642C7.61066 41.4488 7.61066 41.4335 7.61066 41.4201L7.60682 41.4162ZM6.76503 39.889C7.81775 39.889 8.87239 39.8737 9.92511 39.8967C10.3412 39.9063 10.5502 39.8123 10.6001 39.3442C10.9414 36.1612 10.7362 33.0877 8.84746 30.3518C8.48697 29.83 8.43903 29.4117 8.80528 28.8841C9.4419 27.967 10.0478 27.0288 10.6269 26.0753C10.9261 25.5822 11.3153 25.3578 11.8791 25.3674C12.3259 25.375 12.7746 25.3712 13.2194 25.3367C14.1974 25.2599 14.949 24.6114 15.2347 23.6905C15.3843 23.207 15.3172 22.9883 14.7477 23.0094C13.8234 23.044 12.8781 23.1399 11.9749 22.9941C9.62214 22.6142 8.12264 23.5543 6.78037 25.494C5.39208 27.4989 3.79095 29.2985 3.88299 31.9385C3.90025 32.4104 3.78711 32.8901 3.72959 33.364C3.51099 35.1674 3.30006 36.9747 3.06612 38.7763C2.96258 39.5782 3.11406 40.0195 4.08625 39.9121C4.96831 39.8142 5.87146 39.8909 6.76503 39.8909V39.889Z" fill="#1D1D1B"/>
<path d="M29.1272 39.866C33.9824 39.8852 38.8376 39.9562 43.6927 39.818C43.8174 39.843 43.9401 39.8852 44.0647 39.8909C45.3482 39.9511 45.9899 40.6098 45.9899 41.8671C45.9899 42.9204 45.9823 43.9737 45.9919 45.0289C45.9957 45.5373 45.8327 45.9536 45.292 45.9958C44.686 46.0438 44.4502 45.5968 44.4367 45.0672C44.4099 44.0773 44.4003 43.0873 44.4367 42.0992C44.454 41.5927 44.2853 41.4527 43.7867 41.4527C38.6171 41.4527 33.4474 41.4392 28.2778 41.4066C27.7447 41.4028 27.551 41.5352 27.5759 42.0935C27.62 43.0489 27.5779 44.0082 27.5913 44.9675C27.5989 45.5047 27.4647 45.9786 26.8588 45.9939C26.1877 46.0112 26.0573 45.5028 26.0592 44.933C26.0668 43.5919 26.0707 42.2508 26.0592 40.9097C26.0515 40.1749 26.4062 39.8718 27.1196 39.8871C27.7888 39.9005 28.458 39.8756 29.1272 39.866Z" fill="#1D1D1B"/>
<path d="M17.6336 16.8815C15.7199 16.8815 13.8081 16.8758 11.8944 16.8854C11.3019 16.8873 10.7305 16.8086 10.7573 16.0719C10.7822 15.4042 11.3307 15.3409 11.8829 15.3428C15.7084 15.3505 19.5358 15.3505 23.3612 15.3428C23.9537 15.3428 24.5252 15.4196 24.4983 16.1563C24.4734 16.822 23.925 16.8892 23.3727 16.8873C21.459 16.8777 19.5473 16.8834 17.6336 16.8834V16.8815Z" fill="#1D1D1B"/>
<path d="M34.5634 6.14135C35.4551 6.14135 36.3467 6.15094 37.2383 6.13751C37.8098 6.12984 38.3102 6.2603 38.3026 6.92796C38.2968 7.52848 37.8366 7.68196 37.2959 7.68004C35.4167 7.67237 33.5375 7.67429 31.6603 7.68004C31.1099 7.68004 30.6766 7.49394 30.69 6.89151C30.7034 6.28908 31.1579 6.13367 31.6986 6.13943C32.6535 6.15094 33.6085 6.14327 34.5653 6.14327L34.5634 6.14135Z" fill="#1D1D1B"/>
<path d="M14.5042 19.9493C13.5799 19.9493 12.6576 19.9436 11.7333 19.9512C11.1868 19.957 10.7477 19.7747 10.7535 19.1723C10.7612 18.5699 11.2079 18.4087 11.7525 18.4106C13.6317 18.4183 15.5109 18.4183 17.3881 18.4106C17.9365 18.4087 18.3737 18.589 18.368 19.1896C18.3603 19.7901 17.9135 19.957 17.3689 19.9512C16.414 19.9416 15.4591 19.9474 14.5022 19.9474L14.5042 19.9493Z" fill="#1D1D1B"/>
<path d="M21.4322 9.21106C22.1321 9.21106 22.832 9.21682 23.5319 9.20914C24.0822 9.20339 24.5098 9.39525 24.5021 9.99576C24.4964 10.5349 24.1071 10.7478 23.5913 10.7459C22.1589 10.7421 20.7265 10.7459 19.2961 10.744C18.7764 10.744 18.4063 10.5023 18.4198 9.96122C18.4332 9.42019 18.8167 9.20914 19.3325 9.21106C20.0324 9.2149 20.7323 9.21106 21.4322 9.21106Z" fill="#1D1D1B"/>
<path d="M20.6997 7.67237C20.1915 7.67237 19.6815 7.69539 19.1753 7.66661C18.6978 7.63975 18.3948 7.3558 18.4178 6.86657C18.4389 6.43105 18.7304 6.16245 19.1676 6.15478C20.1839 6.13559 21.2021 6.12984 22.2184 6.15478C22.6978 6.16629 22.9988 6.46367 22.9758 6.9529C22.9566 7.38842 22.6632 7.64551 22.226 7.66661C21.7179 7.68964 21.2098 7.67237 20.7016 7.67237H20.6997Z" fill="#1D1D1B"/>
<path d="M36.0667 9.21874C36.5749 9.21874 37.0849 9.1938 37.5912 9.22641C38.0284 9.25327 38.3026 9.52955 38.3083 9.96698C38.316 10.4063 38.0437 10.7095 37.6103 10.7229C36.5634 10.7555 35.5126 10.7536 34.4656 10.7267C34.0303 10.7152 33.7485 10.4255 33.7485 9.98808C33.7485 9.49885 34.0591 9.236 34.5385 9.21874C35.0466 9.19955 35.5548 9.2149 36.0648 9.2149C36.0648 9.2149 36.0648 9.21874 36.0648 9.22066L36.0667 9.21874Z" fill="#1D1D1B"/>
<path d="M13.0123 13.8099C12.5349 13.8099 12.0593 13.8176 11.5819 13.8099C11.1025 13.8022 10.7727 13.5605 10.7516 13.077C10.7305 12.5897 11.0411 12.3 11.5205 12.2904C12.5368 12.2693 13.555 12.2712 14.5713 12.2942C15.0085 12.3038 15.2942 12.582 15.3076 13.0175C15.321 13.5067 15.0161 13.7811 14.5368 13.806C14.0286 13.831 13.5205 13.8118 13.0123 13.8118V13.8099Z" fill="#1D1D1B"/>
<path d="M35.9555 13.8118C35.5107 13.8118 35.0658 13.8156 34.6209 13.8118C34.0994 13.8041 33.7427 13.5605 33.7542 13.0194C33.7657 12.5359 34.0994 12.2885 34.5787 12.2846C35.5317 12.2769 36.4867 12.2789 37.4397 12.2846C37.9613 12.2865 38.3237 12.5359 38.3064 13.0751C38.2872 13.6142 37.8999 13.8214 37.386 13.8176C36.9085 13.8137 36.433 13.8176 35.9555 13.8176V13.8118Z" fill="#1D1D1B"/>
<path d="M35.9287 16.8758C35.4512 16.8758 34.9738 16.893 34.4982 16.87C34.061 16.8489 33.7695 16.5918 33.7504 16.1563C33.7274 15.6671 34.0303 15.3716 34.5078 15.3582C35.5241 15.3332 36.5423 15.3371 37.5586 15.3582C37.9958 15.3658 38.2872 15.6364 38.3064 16.0719C38.3294 16.5611 38.0265 16.8451 37.549 16.87C37.0102 16.8988 36.4694 16.8758 35.9287 16.8758Z" fill="#1D1D1B"/>
<path d="M26.0534 7.67621C25.831 7.67621 25.6086 7.68004 25.388 7.67429C24.9106 7.66278 24.5712 7.43063 24.5539 6.94715C24.5347 6.40803 24.8856 6.1567 25.4072 6.14519C25.8195 6.13751 26.2318 6.1471 26.644 6.14135C27.156 6.13367 27.5529 6.33512 27.5721 6.87232C27.5932 7.469 27.179 7.6858 26.6268 7.67812C26.4369 7.67621 26.2452 7.67812 26.0553 7.67812L26.0534 7.67621Z" fill="#1D1D1B"/>
<path d="M18.4006 13.8118C18.2107 13.8118 18.019 13.8118 17.8292 13.8118C17.2769 13.8176 16.8627 13.5988 16.8876 13.0022C16.9087 12.465 17.3095 12.2673 17.8196 12.2769C18.1992 12.2827 18.5808 12.2808 18.9624 12.2769C19.5166 12.2712 19.9288 12.4918 19.9039 13.0866C19.8828 13.6238 19.4821 13.8233 18.972 13.8118C18.7822 13.808 18.5904 13.8118 18.4006 13.8118Z" fill="#1D1D1B"/>
<path d="M23.0007 12.2789C23.2232 12.2789 23.4456 12.2769 23.6661 12.2789C24.1455 12.2865 24.4849 12.5206 24.5041 13.0022C24.5271 13.5394 24.1781 13.7965 23.6546 13.808C23.2423 13.8176 22.8301 13.808 22.4178 13.8118C21.9077 13.8195 21.507 13.6238 21.4859 13.0847C21.4629 12.488 21.8732 12.2693 22.4274 12.275C22.6172 12.2769 22.809 12.275 22.9988 12.275L23.0007 12.2789Z" fill="#1D1D1B"/>
</svg>
