<svg width="54" height="48" viewBox="0 0 54 48" fill="none" xmlns="http://www.w3.org/2000/svg">
<path d="M26.8655 47.9914C21.0707 47.9914 15.278 48.0061 9.48322 47.9872C4.553 47.9705 0.940747 44.9965 0.0803841 40.2792C0.00657853 39.8711 0.00868726 39.4483 0.000252335 39.0318C-0.0102913 38.4772 0.310236 38.2135 0.839528 38.1633C0.978704 38.1507 1.11999 38.1591 1.25917 38.1465C2.08157 38.0712 3.20974 38.5274 3.64625 37.9582C4.05745 37.4224 3.78543 36.3571 3.78543 35.5242C3.78964 26.8115 3.77066 18.0989 3.79808 9.3863C3.80651 6.53791 4.70062 3.9846 6.76085 1.91894C8.03241 0.648567 9.58444 0.00396262 11.3874 0.00396262C21.7813 -0.000223119 32.1753 -0.00231599 42.5692 0.00396262C44.8867 0.00396262 46.6728 1.06296 48.0266 2.86282C49.5006 4.82384 50.1564 7.0674 50.1585 9.49932C50.1649 18.6996 50.1754 27.8998 50.1396 37.1001C50.1353 37.9749 50.3504 38.2993 51.2256 38.157C51.5334 38.1068 51.8561 38.1486 52.1724 38.1486C53.9353 38.1486 54.1904 38.45 53.8952 40.1871C53.1002 44.8793 49.45 47.96 44.5641 47.9851C38.6638 48.0144 32.7657 47.9914 26.8655 47.9914ZM26.9393 1.65733C21.7771 1.65733 16.6171 1.66152 11.4549 1.65524C10.0062 1.65314 8.78734 2.15125 7.79623 3.19559C6.17251 4.90337 5.48506 6.98578 5.47874 9.28375C5.45554 18.6221 5.47874 27.9605 5.44289 37.2989C5.44078 38.1089 5.75076 38.1675 6.41501 38.1633C11.05 38.1382 15.685 38.1424 20.32 38.1549C23.112 38.1633 23.0403 37.8012 22.9622 40.6747C22.9454 41.3131 23.19 41.403 23.7467 41.3926C25.5728 41.3612 27.399 41.3821 29.2231 41.3821C30.3758 41.3821 30.9536 40.7996 30.9564 39.6346C30.9607 38.2365 31.0366 38.1528 32.4325 38.1528C37.4534 38.1507 42.4743 38.1277 47.4952 38.1737C48.3556 38.1821 48.5074 37.9142 48.5053 37.1315C48.4779 28.0715 48.4863 19.0114 48.4926 9.95138C48.4926 9.04307 48.4441 8.14523 48.2586 7.25367C47.4741 3.47604 45.2431 1.65942 41.3715 1.65942C36.5614 1.65942 31.7514 1.65942 26.9414 1.65942L26.9393 1.65733ZM1.73996 39.7371C2.02463 43.3703 5.1793 46.3443 8.95604 46.3611C20.9674 46.4113 32.9766 46.4113 44.9879 46.3611C48.7562 46.3464 51.9172 43.3641 52.2082 39.7371H34.6214C33.3084 39.7371 32.6406 40.3754 32.6181 41.6521C32.597 42.7969 32.3545 43.0376 31.1779 43.0397C28.7191 43.0439 26.2603 43.0459 23.8036 43.0397C21.4861 43.0355 21.231 43.3955 21.3491 40.6036C21.3828 39.8104 21.0665 39.7183 20.3811 39.7204C14.7972 39.7455 9.2133 39.735 3.62938 39.735H1.73996V39.7371Z" fill="#111212"/>
<path d="M26.8634 15.6586C21.8446 15.6586 16.8258 15.6586 11.807 15.6565C11.4317 15.6565 11.0331 15.7424 10.7316 15.3907C10.3014 14.8885 10.546 14.1622 11.2292 14.0241C11.5329 13.9613 11.8577 13.999 12.174 13.999C22.0365 13.999 31.899 13.999 41.7616 13.999C41.9366 13.999 42.1116 14.0032 42.2888 13.999C42.8771 13.9843 43.3853 14.1413 43.398 14.8173C43.4127 15.5749 42.8602 15.667 42.236 15.6649C37.1118 15.6565 31.9876 15.6607 26.8634 15.6607V15.6586Z" fill="#111212"/>
<path d="M26.9794 11.1025C22.0281 11.1025 17.0768 11.1025 12.1255 11.1025C11.8092 11.1025 11.4907 11.1108 11.1786 11.0753C10.7147 11.0208 10.5249 10.7111 10.5397 10.2737C10.5523 9.87813 10.7463 9.60815 11.1576 9.56001C11.4696 9.52443 11.7881 9.52443 12.1023 9.52443C22.0049 9.52443 31.9054 9.52443 41.808 9.52443C41.9134 9.52443 42.0188 9.52443 42.1243 9.52443C42.7295 9.5328 43.4233 9.48048 43.3958 10.3553C43.3684 11.1485 42.7189 11.1046 42.1475 11.1046C37.0907 11.1046 32.034 11.1046 26.9794 11.1046V11.1025Z" fill="#111212"/>
<path d="M11.6721 24.3252C11.6721 23.5257 11.6658 22.7263 11.6742 21.9247C11.6805 21.3512 11.826 20.8552 12.543 20.8887C13.1925 20.918 13.3021 21.3722 13.2979 21.9142C13.2895 23.4085 13.3021 24.9049 13.2979 26.3993C13.2979 27.5252 13.7154 27.9961 14.7361 28.0003C15.7736 28.0066 16.1827 27.5441 16.1763 26.416C16.17 24.9217 16.189 23.4253 16.1848 21.931C16.1848 21.3429 16.3113 20.8741 17.0283 20.8866C17.6756 20.8992 17.8422 21.3471 17.8464 21.8807C17.8549 23.5153 17.8992 25.1519 17.8338 26.7843C17.7621 28.5968 16.4926 29.6997 14.6644 29.6641C12.8804 29.6286 11.7396 28.5214 11.6721 26.7257C11.6426 25.9263 11.6679 25.1268 11.6679 24.3273L11.6721 24.3252Z" fill="#111212"/>
<path d="M38.8473 24.4173C39.4989 23.555 40.0851 22.7765 40.6777 22.0021C41.0045 21.5731 41.3862 21.2906 41.9134 21.6987C42.4068 22.0817 42.3267 22.5253 41.9935 22.9711C41.4305 23.7246 40.9033 24.5073 40.2918 25.221C39.8932 25.6877 39.9586 26.0204 40.3044 26.4599C40.8633 27.1715 41.3651 27.925 41.9029 28.6554C42.2318 29.1032 42.3394 29.5804 41.8649 29.9488C41.3377 30.3548 40.8928 30.1015 40.5448 29.6097C40.0029 28.8416 39.4525 28.0819 38.8262 27.2092C38.2864 27.9166 37.7887 28.5737 37.289 29.2267C36.8988 29.7374 36.5404 30.539 35.7475 29.9802C34.8681 29.3628 35.6231 28.7684 36.0005 28.2284C36.4202 27.6299 36.8229 27.0062 37.3227 26.4788C37.8225 25.9514 37.717 25.5663 37.31 25.0619C36.7407 24.3587 36.2472 23.5948 35.7053 22.8707C35.3679 22.4186 35.254 21.9624 35.758 21.6003C36.2979 21.211 36.728 21.4496 37.0781 21.954C37.6306 22.7535 38.2105 23.5341 38.8473 24.4173Z" fill="#111212"/>
<path d="M27.7617 25.0117C27.7617 24.1745 27.7744 23.3374 27.7575 22.5023C27.7469 21.9163 27.8671 21.414 28.5757 21.4266C29.2884 21.4391 29.3622 21.9707 29.3601 22.54C29.3559 24.0029 29.3812 25.4679 29.3707 26.9308C29.3622 28.0024 29.8367 28.5696 30.7941 28.5717C31.7578 28.5758 32.2322 28.0338 32.2322 26.9497C32.2322 25.4512 32.2512 23.9527 32.2322 22.4542C32.2259 21.8912 32.3714 21.4559 32.9914 21.4287C33.6472 21.3994 33.9192 21.7991 33.915 22.427C33.9065 24.0992 33.9656 25.7756 33.8918 27.4457C33.8159 29.1681 32.4895 30.2501 30.6907 30.1853C28.9004 30.1204 27.8102 29.0593 27.7659 27.3117C27.7469 26.5458 27.7617 25.7777 27.7617 25.0117Z" fill="#111212"/>
<path d="M26.5661 20.2378C26.3278 21.1064 26.0304 22.1737 25.7415 23.2453C25.0583 25.7902 24.3751 28.3352 23.7003 30.8801C23.5506 31.4452 23.3671 32.0437 22.6354 31.8805C21.8615 31.7068 21.9142 31.127 22.0934 30.4741C23.0466 26.9978 23.9597 23.509 24.8896 20.0265C25.0225 19.5284 25.227 19.093 25.8744 19.1726C26.3826 19.2354 26.6124 19.5221 26.5639 20.2378H26.5661Z" fill="#111212"/>
<path d="M19.39 25.177C19.39 24.0992 19.3985 23.0214 19.3858 21.9456C19.3795 21.345 19.5672 20.8824 20.2462 20.8971C20.9273 20.9117 21.0749 21.3952 21.0707 21.9854C21.0602 24.1745 21.0602 26.3637 21.0707 28.5549C21.0728 29.1618 20.8493 29.6306 20.2061 29.616C19.5608 29.6013 19.3732 29.1137 19.3837 28.5151C19.4027 27.4038 19.39 26.2904 19.39 25.1791V25.177Z" fill="#111212"/>
</svg>
